<ttFont>
    <TTGlyph name=".notdef" xMin="90" yMin="2" xMax="610" yMax="818">
      <contour>
        <pt x="589" y="815" on="1"/>
        <pt x="602" y="814" on="0"/>
        <pt x="610" y="792" on="0"/>
        <pt x="610" y="780" on="1"/>
        <pt x="609" y="688" on="0"/>
        <pt x="608" y="507" on="0"/>
        <pt x="607" y="324" on="0"/>
        <pt x="607" y="136" on="0"/>
        <pt x="607" y="37" on="1"/>
        <pt x="607" y="16" on="0"/>
        <pt x="597" y="2" on="0"/>
        <pt x="588" y="2" on="1"/>
        <pt x="112" y="2" on="1"/>
        <pt x="103" y="2" on="0"/>
        <pt x="93" y="16" on="0"/>
        <pt x="93" y="37" on="1"/>
        <pt x="93" y="136" on="0"/>
        <pt x="93" y="324" on="0"/>
        <pt x="92" y="507" on="0"/>
        <pt x="91" y="688" on="0"/>
        <pt x="90" y="780" on="1"/>
        <pt x="90" y="792" on="0"/>
        <pt x="98" y="814" on="0"/>
        <pt x="113" y="815" on="1"/>
        <pt x="129" y="816" on="0"/>
        <pt x="183" y="817" on="0"/>
        <pt x="240" y="818" on="0"/>
        <pt x="291" y="818" on="0"/>
        <pt x="304" y="818" on="1"/>
        <pt x="329" y="818" on="0"/>
        <pt x="410" y="818" on="0"/>
        <pt x="495" y="817" on="0"/>
        <pt x="570" y="816" on="0"/>
      </contour>
      <contour>
        <pt x="529" y="54" on="1"/>
        <pt x="548" y="54" on="0"/>
        <pt x="548" y="75" on="1"/>
        <pt x="548" y="732" on="1"/>
        <pt x="548" y="746" on="0"/>
        <pt x="536" y="759" on="0"/>
        <pt x="519" y="759" on="1"/>
        <pt x="180" y="759" on="1"/>
        <pt x="159" y="759" on="0"/>
        <pt x="152" y="746" on="0"/>
        <pt x="152" y="726" on="1"/>
        <pt x="152" y="72" on="1"/>
        <pt x="152" y="61" on="0"/>
        <pt x="160" y="54" on="0"/>
        <pt x="171" y="54" on="1"/>
      </contour>
      <contour>
        <pt x="474" y="194" on="1"/>
        <pt x="474" y="188" on="0"/>
        <pt x="467" y="174" on="0"/>
        <pt x="457" y="162" on="0"/>
        <pt x="446" y="153" on="0"/>
        <pt x="441" y="153" on="1"/>
        <pt x="433" y="153" on="0"/>
        <pt x="400" y="204" on="0"/>
        <pt x="358" y="249" on="1"/>
        <pt x="339" y="229" on="0"/>
        <pt x="304" y="188" on="0"/>
        <pt x="275" y="155" on="0"/>
        <pt x="251" y="135" on="0"/>
        <pt x="244" y="135" on="1"/>
        <pt x="237" y="135" on="0"/>
        <pt x="218" y="158" on="0"/>
        <pt x="218" y="165" on="1"/>
        <pt x="218" y="174" on="0"/>
        <pt x="236" y="192" on="0"/>
        <pt x="244" y="203" on="1"/>
        <pt x="269" y="234" on="0"/>
        <pt x="293" y="262" on="0"/>
        <pt x="305" y="276" on="0"/>
        <pt x="312" y="284" on="0"/>
        <pt x="321" y="296" on="1"/>
        <pt x="289" y="338" on="0"/>
        <pt x="246" y="395" on="0"/>
        <pt x="219" y="430" on="0"/>
        <pt x="207" y="448" on="0"/>
        <pt x="207" y="452" on="1"/>
        <pt x="207" y="455" on="0"/>
        <pt x="214" y="466" on="0"/>
        <pt x="223" y="478" on="0"/>
        <pt x="233" y="486" on="0"/>
        <pt x="236" y="486" on="1"/>
        <pt x="248" y="486" on="0"/>
        <pt x="271" y="455" on="0"/>
        <pt x="287" y="435" on="1"/>
        <pt x="291" y="430" on="0"/>
        <pt x="324" y="387" on="0"/>
        <pt x="356" y="345" on="1"/>
        <pt x="394" y="397" on="1"/>
        <pt x="414" y="425" on="0"/>
        <pt x="438" y="450" on="0"/>
        <pt x="449" y="450" on="1"/>
        <pt x="452" y="450" on="0"/>
        <pt x="461" y="443" on="0"/>
        <pt x="470" y="433" on="0"/>
        <pt x="477" y="422" on="0"/>
        <pt x="477" y="418" on="1"/>
        <pt x="477" y="410" on="0"/>
        <pt x="471" y="403" on="1"/>
        <pt x="447" y="374" on="0"/>
        <pt x="413" y="328" on="0"/>
        <pt x="392" y="299" on="1"/>
        <pt x="432" y="253" on="0"/>
        <pt x="474" y="200" on="0"/>
      </contour>
    </TTGlyph>
    <TTGlyph name=".ttfautohint" xMin="0" yMin="0" xMax="0" yMax="0">
      <contour>
        <pt x="0" y="0" on="1"/>
      </contour>
    </TTGlyph>
    <TTGlyph name="A" xMin="-37" yMin="-55" xMax="754" yMax="837">
      <contour>
        <pt x="600" y="23" on="1"/>
        <pt x="606" y="0" on="0"/>
        <pt x="665" y="-9" on="0"/>
        <pt x="713" y="-9" on="1"/>
        <pt x="727" y="-9" on="0"/>
        <pt x="754" y="-17" on="0"/>
        <pt x="754" y="-31" on="1"/>
        <pt x="754" y="-45" on="0"/>
        <pt x="736" y="-55" on="0"/>
        <pt x="719" y="-55" on="1"/>
        <pt x="486" y="-55" on="1"/>
        <pt x="468" y="-55" on="0"/>
        <pt x="455" y="-47" on="0"/>
        <pt x="455" y="-39" on="1"/>
        <pt x="455" y="-28" on="0"/>
        <pt x="477" y="-23" on="0"/>
        <pt x="504" y="-18" on="0"/>
        <pt x="526" y="-4" on="0"/>
        <pt x="526" y="15" on="1"/>
        <pt x="526" y="20" on="0"/>
        <pt x="519" y="51" on="0"/>
        <pt x="509" y="92" on="0"/>
        <pt x="497" y="139" on="0"/>
        <pt x="485" y="181" on="0"/>
        <pt x="475" y="215" on="0"/>
        <pt x="473" y="223" on="1"/>
        <pt x="225" y="223" on="1"/>
        <pt x="218" y="203" on="0"/>
        <pt x="203" y="156" on="0"/>
        <pt x="190" y="111" on="0"/>
        <pt x="182" y="74" on="0"/>
        <pt x="182" y="65" on="1"/>
        <pt x="182" y="59" on="0"/>
        <pt x="197" y="52" on="0"/>
        <pt x="220" y="49" on="0"/>
        <pt x="247" y="49" on="0"/>
        <pt x="258" y="49" on="1"/>
        <pt x="268" y="49" on="0"/>
        <pt x="287" y="39" on="0"/>
        <pt x="287" y="24" on="1"/>
        <pt x="287" y="15" on="0"/>
        <pt x="273" y="0" on="0"/>
        <pt x="253" y="0" on="1"/>
        <pt x="-14" y="0" on="1"/>
        <pt x="-23" y="0" on="0"/>
        <pt x="-37" y="13" on="0"/>
        <pt x="-37" y="24" on="1"/>
        <pt x="-37" y="34" on="0"/>
        <pt x="-22" y="45" on="0"/>
        <pt x="-12" y="45" on="1"/>
        <pt x="-5" y="45" on="0"/>
        <pt x="17" y="47" on="0"/>
        <pt x="39" y="49" on="0"/>
        <pt x="56" y="51" on="0"/>
        <pt x="59" y="51" on="1"/>
        <pt x="80" y="53" on="0"/>
        <pt x="102" y="71" on="0"/>
        <pt x="108" y="89" on="1"/>
        <pt x="123" y="131" on="0"/>
        <pt x="160" y="253" on="0"/>
        <pt x="199" y="393" on="0"/>
        <pt x="240" y="540" on="0"/>
        <pt x="276" y="673" on="0"/>
        <pt x="307" y="783" on="0"/>
        <pt x="317" y="816" on="1"/>
        <pt x="319" y="824" on="0"/>
        <pt x="335" y="837" on="0"/>
        <pt x="353" y="837" on="1"/>
        <pt x="382" y="837" on="0"/>
        <pt x="388" y="816" on="1"/>
      </contour>
      <contour>
        <pt x="356" y="715" on="1"/>
        <pt x="351" y="696" on="0"/>
        <pt x="335" y="634" on="0"/>
        <pt x="315" y="558" on="0"/>
        <pt x="292" y="474" on="0"/>
        <pt x="271" y="392" on="0"/>
        <pt x="251" y="317" on="0"/>
        <pt x="244" y="289" on="1"/>
        <pt x="275" y="288" on="0"/>
        <pt x="332" y="288" on="0"/>
        <pt x="363" y="288" on="1"/>
        <pt x="386" y="288" on="0"/>
        <pt x="435" y="288" on="0"/>
        <pt x="458" y="289" on="1"/>
        <pt x="446" y="335" on="0"/>
        <pt x="420" y="441" on="0"/>
        <pt x="393" y="553" on="0"/>
        <pt x="367" y="664" on="0"/>
      </contour>
    </TTGlyph>
    <TTGlyph name="AE" xMin="-41" yMin="0" xMax="1019" yMax="821">
      <contour>
        <pt x="991" y="320" on="1"/>
        <pt x="1001" y="320" on="0"/>
        <pt x="1012" y="311" on="0"/>
        <pt x="1018" y="298" on="0"/>
        <pt x="1019" y="283" on="0"/>
        <pt x="1019" y="277" on="1"/>
        <pt x="1019" y="268" on="0"/>
        <pt x="1017" y="213" on="0"/>
        <pt x="1012" y="141" on="0"/>
        <pt x="1006" y="63" on="0"/>
        <pt x="1003" y="33" on="1"/>
        <pt x="1001" y="13" on="0"/>
        <pt x="982" y="0" on="0"/>
        <pt x="961" y="0" on="1"/>
        <pt x="892" y="0" on="0"/>
        <pt x="763" y="2" on="0"/>
        <pt x="694" y="2" on="1"/>
        <pt x="633" y="2" on="0"/>
        <pt x="512" y="1" on="0"/>
        <pt x="451" y="0" on="1"/>
        <pt x="436" y="0" on="0"/>
        <pt x="405" y="10" on="0"/>
        <pt x="405" y="24" on="1"/>
        <pt x="405" y="39" on="0"/>
        <pt x="424" y="48" on="0"/>
        <pt x="444" y="48" on="1"/>
        <pt x="491" y="48" on="0"/>
        <pt x="525" y="63" on="0"/>
        <pt x="525" y="84" on="1"/>
        <pt x="525" y="130" on="0"/>
        <pt x="526" y="190" on="0"/>
        <pt x="526" y="223" on="1"/>
        <pt x="299" y="223" on="1"/>
        <pt x="286" y="201" on="0"/>
        <pt x="257" y="150" on="0"/>
        <pt x="233" y="105" on="0"/>
        <pt x="217" y="71" on="0"/>
        <pt x="217" y="65" on="1"/>
        <pt x="217" y="51" on="0"/>
        <pt x="236" y="50" on="0"/>
        <pt x="248" y="49" on="1"/>
        <pt x="258" y="49" on="0"/>
        <pt x="284" y="41" on="0"/>
        <pt x="284" y="25" on="1"/>
        <pt x="284" y="11" on="0"/>
        <pt x="262" y="0" on="0"/>
        <pt x="242" y="0" on="1"/>
        <pt x="210" y="0" on="0"/>
        <pt x="151" y="2" on="0"/>
        <pt x="119" y="2" on="1"/>
        <pt x="87" y="2" on="0"/>
        <pt x="21" y="0" on="0"/>
        <pt x="-11" y="0" on="1"/>
        <pt x="-25" y="0" on="0"/>
        <pt x="-41" y="10" on="0"/>
        <pt x="-41" y="22" on="1"/>
        <pt x="-41" y="34" on="0"/>
        <pt x="-23" y="45" on="0"/>
        <pt x="-9" y="45" on="1"/>
        <pt x="2" y="45" on="0"/>
        <pt x="32" y="47" on="0"/>
        <pt x="61" y="49" on="0"/>
        <pt x="84" y="51" on="0"/>
        <pt x="88" y="51" on="1"/>
        <pt x="110" y="53" on="0"/>
        <pt x="134" y="71" on="0"/>
        <pt x="145" y="89" on="1"/>
        <pt x="169" y="129" on="0"/>
        <pt x="226" y="238" on="0"/>
        <pt x="289" y="362" on="0"/>
        <pt x="353" y="494" on="0"/>
        <pt x="414" y="618" on="0"/>
        <pt x="467" y="725" on="0"/>
        <pt x="487" y="763" on="1"/>
        <pt x="476" y="768" on="0"/>
        <pt x="449" y="769" on="0"/>
        <pt x="438" y="769" on="1"/>
        <pt x="426" y="769" on="0"/>
        <pt x="398" y="776" on="0"/>
        <pt x="398" y="792" on="1"/>
        <pt x="398" y="802" on="0"/>
        <pt x="408" y="814" on="0"/>
        <pt x="424" y="820" on="0"/>
        <pt x="441" y="821" on="0"/>
        <pt x="449" y="821" on="1"/>
        <pt x="482" y="821" on="0"/>
        <pt x="552" y="820" on="0"/>
        <pt x="616" y="820" on="0"/>
        <pt x="671" y="819" on="0"/>
        <pt x="690" y="819" on="1"/>
        <pt x="732" y="819" on="0"/>
        <pt x="785" y="820" on="0"/>
        <pt x="835" y="820" on="0"/>
        <pt x="897" y="821" on="0"/>
        <pt x="947" y="821" on="1"/>
        <pt x="961" y="821" on="0"/>
        <pt x="975" y="806" on="0"/>
        <pt x="975" y="785" on="1"/>
        <pt x="975" y="651" on="1"/>
        <pt x="975" y="632" on="0"/>
        <pt x="962" y="601" on="0"/>
        <pt x="942" y="601" on="1"/>
        <pt x="930" y="601" on="0"/>
        <pt x="916" y="610" on="0"/>
        <pt x="910" y="623" on="0"/>
        <pt x="908" y="638" on="0"/>
        <pt x="908" y="645" on="1"/>
        <pt x="908" y="727" on="1"/>
        <pt x="908" y="737" on="0"/>
        <pt x="900" y="749" on="0"/>
        <pt x="889" y="754" on="0"/>
        <pt x="876" y="755" on="0"/>
        <pt x="871" y="755" on="1"/>
        <pt x="598" y="755" on="1"/>
        <pt x="598" y="455" on="1"/>
        <pt x="619" y="454" on="0"/>
        <pt x="660" y="452" on="0"/>
        <pt x="682" y="452" on="1"/>
        <pt x="696" y="452" on="0"/>
        <pt x="730" y="453" on="0"/>
        <pt x="761" y="454" on="0"/>
        <pt x="785" y="455" on="0"/>
        <pt x="790" y="455" on="1"/>
        <pt x="796" y="455" on="0"/>
        <pt x="803" y="473" on="0"/>
        <pt x="806" y="497" on="0"/>
        <pt x="807" y="522" on="0"/>
        <pt x="807" y="530" on="1"/>
        <pt x="807" y="551" on="0"/>
        <pt x="826" y="566" on="0"/>
        <pt x="841" y="566" on="1"/>
        <pt x="858" y="566" on="0"/>
        <pt x="871" y="544" on="0"/>
        <pt x="871" y="533" on="1"/>
        <pt x="871" y="504" on="0"/>
        <pt x="869" y="449" on="0"/>
        <pt x="869" y="420" on="1"/>
        <pt x="869" y="391" on="0"/>
        <pt x="871" y="335" on="0"/>
        <pt x="871" y="307" on="1"/>
        <pt x="871" y="292" on="0"/>
        <pt x="856" y="274" on="0"/>
        <pt x="840" y="274" on="1"/>
        <pt x="825" y="274" on="0"/>
        <pt x="809" y="296" on="0"/>
        <pt x="809" y="309" on="1"/>
        <pt x="809" y="320" on="0"/>
        <pt x="805" y="347" on="0"/>
        <pt x="795" y="371" on="0"/>
        <pt x="776" y="387" on="0"/>
        <pt x="761" y="387" on="1"/>
        <pt x="747" y="387" on="0"/>
        <pt x="711" y="388" on="0"/>
        <pt x="682" y="388" on="1"/>
        <pt x="661" y="388" on="0"/>
        <pt x="619" y="387" on="0"/>
        <pt x="598" y="386" on="1"/>
        <pt x="598" y="66" on="1"/>
        <pt x="897" y="66" on="1"/>
        <pt x="904" y="66" on="0"/>
        <pt x="919" y="68" on="0"/>
        <pt x="931" y="75" on="0"/>
        <pt x="939" y="90" on="0"/>
        <pt x="940" y="103" on="1"/>
        <pt x="941" y="115" on="0"/>
        <pt x="945" y="157" on="0"/>
        <pt x="949" y="207" on="0"/>
        <pt x="952" y="255" on="0"/>
        <pt x="953" y="273" on="1"/>
        <pt x="954" y="293" on="0"/>
        <pt x="970" y="320" on="0"/>
      </contour>
      <contour>
        <pt x="410" y="287" on="1"/>
        <pt x="439" y="287" on="0"/>
        <pt x="497" y="287" on="0"/>
        <pt x="526" y="288" on="1"/>
        <pt x="527" y="314" on="0"/>
        <pt x="527" y="379" on="0"/>
        <pt x="527" y="425" on="1"/>
        <pt x="527" y="481" on="0"/>
        <pt x="525" y="554" on="0"/>
        <pt x="523" y="609" on="0"/>
        <pt x="521" y="660" on="0"/>
        <pt x="521" y="694" on="1"/>
        <pt x="521" y="698" on="1"/>
        <pt x="513" y="678" on="0"/>
        <pt x="483" y="619" on="0"/>
        <pt x="446" y="547" on="0"/>
        <pt x="405" y="469" on="0"/>
        <pt x="365" y="391" on="0"/>
        <pt x="331" y="318" on="0"/>
        <pt x="319" y="289" on="1"/>
        <pt x="342" y="289" on="0"/>
        <pt x="386" y="287" on="0"/>
      </contour>
    </TTGlyph>
    <TTGlyph name="AEacute" xMin="-41" yMin="0" xMax="1019" yMax="972">
      <contour>
        <pt x="660" y="941" on="1"/>
        <pt x="660" y="929" on="0"/>
        <pt x="632" y="899" on="0"/>
        <pt x="595" y="872" on="0"/>
        <pt x="556" y="854" on="0"/>
        <pt x="546" y="854" on="1"/>
        <pt x="535" y="854" on="0"/>
        <pt x="522" y="867" on="0"/>
        <pt x="522" y="877" on="1"/>
        <pt x="522" y="887" on="0"/>
        <pt x="547" y="919" on="0"/>
        <pt x="581" y="950" on="0"/>
        <pt x="617" y="972" on="0"/>
        <pt x="628" y="972" on="1"/>
        <pt x="643" y="972" on="0"/>
        <pt x="660" y="955" on="0"/>
      </contour>
      <contour>
        <pt x="991" y="320" on="1"/>
        <pt x="1001" y="320" on="0"/>
        <pt x="1012" y="311" on="0"/>
        <pt x="1018" y="298" on="0"/>
        <pt x="1019" y="283" on="0"/>
        <pt x="1019" y="277" on="1"/>
        <pt x="1019" y="268" on="0"/>
        <pt x="1017" y="213" on="0"/>
        <pt x="1012" y="141" on="0"/>
        <pt x="1006" y="63" on="0"/>
        <pt x="1003" y="33" on="1"/>
        <pt x="1001" y="13" on="0"/>
        <pt x="982" y="0" on="0"/>
        <pt x="961" y="0" on="1"/>
        <pt x="892" y="0" on="0"/>
        <pt x="763" y="2" on="0"/>
        <pt x="694" y="2" on="1"/>
        <pt x="633" y="2" on="0"/>
        <pt x="512" y="1" on="0"/>
        <pt x="451" y="0" on="1"/>
        <pt x="436" y="0" on="0"/>
        <pt x="405" y="10" on="0"/>
        <pt x="405" y="24" on="1"/>
        <pt x="405" y="39" on="0"/>
        <pt x="424" y="48" on="0"/>
        <pt x="444" y="48" on="1"/>
        <pt x="491" y="48" on="0"/>
        <pt x="525" y="63" on="0"/>
        <pt x="525" y="84" on="1"/>
        <pt x="525" y="130" on="0"/>
        <pt x="526" y="190" on="0"/>
        <pt x="526" y="223" on="1"/>
        <pt x="299" y="223" on="1"/>
        <pt x="286" y="201" on="0"/>
        <pt x="257" y="150" on="0"/>
        <pt x="233" y="105" on="0"/>
        <pt x="217" y="71" on="0"/>
        <pt x="217" y="65" on="1"/>
        <pt x="217" y="51" on="0"/>
        <pt x="236" y="50" on="0"/>
        <pt x="248" y="49" on="1"/>
        <pt x="258" y="49" on="0"/>
        <pt x="284" y="41" on="0"/>
        <pt x="284" y="25" on="1"/>
        <pt x="284" y="11" on="0"/>
        <pt x="262" y="0" on="0"/>
        <pt x="242" y="0" on="1"/>
        <pt x="210" y="0" on="0"/>
        <pt x="151" y="2" on="0"/>
        <pt x="119" y="2" on="1"/>
        <pt x="87" y="2" on="0"/>
        <pt x="21" y="0" on="0"/>
        <pt x="-11" y="0" on="1"/>
        <pt x="-25" y="0" on="0"/>
        <pt x="-41" y="10" on="0"/>
        <pt x="-41" y="22" on="1"/>
        <pt x="-41" y="34" on="0"/>
        <pt x="-23" y="45" on="0"/>
        <pt x="-9" y="45" on="1"/>
        <pt x="2" y="45" on="0"/>
        <pt x="32" y="47" on="0"/>
        <pt x="61" y="49" on="0"/>
        <pt x="84" y="51" on="0"/>
        <pt x="88" y="51" on="1"/>
        <pt x="110" y="53" on="0"/>
        <pt x="134" y="71" on="0"/>
        <pt x="145" y="89" on="1"/>
        <pt x="169" y="129" on="0"/>
        <pt x="226" y="238" on="0"/>
        <pt x="289" y="362" on="0"/>
        <pt x="353" y="494" on="0"/>
        <pt x="414" y="618" on="0"/>
        <pt x="467" y="725" on="0"/>
        <pt x="487" y="763" on="1"/>
        <pt x="476" y="768" on="0"/>
        <pt x="449" y="769" on="0"/>
        <pt x="438" y="769" on="1"/>
        <pt x="426" y="769" on="0"/>
        <pt x="398" y="776" on="0"/>
        <pt x="398" y="792" on="1"/>
        <pt x="398" y="802" on="0"/>
        <pt x="408" y="814" on="0"/>
        <pt x="424" y="820" on="0"/>
        <pt x="441" y="821" on="0"/>
        <pt x="449" y="821" on="1"/>
        <pt x="482" y="821" on="0"/>
        <pt x="552" y="820" on="0"/>
        <pt x="616" y="820" on="0"/>
        <pt x="671" y="819" on="0"/>
        <pt x="690" y="819" on="1"/>
        <pt x="732" y="819" on="0"/>
        <pt x="785" y="820" on="0"/>
        <pt x="835" y="820" on="0"/>
        <pt x="897" y="821" on="0"/>
        <pt x="947" y="821" on="1"/>
        <pt x="961" y="821" on="0"/>
        <pt x="975" y="806" on="0"/>
        <pt x="975" y="785" on="1"/>
        <pt x="975" y="651" on="1"/>
        <pt x="975" y="632" on="0"/>
        <pt x="962" y="601" on="0"/>
        <pt x="942" y="601" on="1"/>
        <pt x="930" y="601" on="0"/>
        <pt x="916" y="610" on="0"/>
        <pt x="910" y="623" on="0"/>
        <pt x="908" y="638" on="0"/>
        <pt x="908" y="645" on="1"/>
        <pt x="908" y="727" on="1"/>
        <pt x="908" y="737" on="0"/>
        <pt x="900" y="749" on="0"/>
        <pt x="889" y="754" on="0"/>
        <pt x="876" y="755" on="0"/>
        <pt x="871" y="755" on="1"/>
        <pt x="598" y="755" on="1"/>
        <pt x="598" y="455" on="1"/>
        <pt x="619" y="454" on="0"/>
        <pt x="660" y="452" on="0"/>
        <pt x="682" y="452" on="1"/>
        <pt x="696" y="452" on="0"/>
        <pt x="730" y="453" on="0"/>
        <pt x="761" y="454" on="0"/>
        <pt x="785" y="455" on="0"/>
        <pt x="790" y="455" on="1"/>
        <pt x="796" y="455" on="0"/>
        <pt x="803" y="473" on="0"/>
        <pt x="806" y="497" on="0"/>
        <pt x="807" y="522" on="0"/>
        <pt x="807" y="530" on="1"/>
        <pt x="807" y="551" on="0"/>
        <pt x="826" y="566" on="0"/>
        <pt x="841" y="566" on="1"/>
        <pt x="858" y="566" on="0"/>
        <pt x="871" y="544" on="0"/>
        <pt x="871" y="533" on="1"/>
        <pt x="871" y="504" on="0"/>
        <pt x="869" y="449" on="0"/>
        <pt x="869" y="420" on="1"/>
        <pt x="869" y="391" on="0"/>
        <pt x="871" y="335" on="0"/>
        <pt x="871" y="307" on="1"/>
        <pt x="871" y="292" on="0"/>
        <pt x="856" y="274" on="0"/>
        <pt x="840" y="274" on="1"/>
        <pt x="825" y="274" on="0"/>
        <pt x="809" y="296" on="0"/>
        <pt x="809" y="309" on="1"/>
        <pt x="809" y="320" on="0"/>
        <pt x="805" y="347" on="0"/>
        <pt x="795" y="371" on="0"/>
        <pt x="776" y="387" on="0"/>
        <pt x="761" y="387" on="1"/>
        <pt x="747" y="387" on="0"/>
        <pt x="711" y="388" on="0"/>
        <pt x="682" y="388" on="1"/>
        <pt x="661" y="388" on="0"/>
        <pt x="619" y="387" on="0"/>
        <pt x="598" y="386" on="1"/>
        <pt x="598" y="66" on="1"/>
        <pt x="897" y="66" on="1"/>
        <pt x="904" y="66" on="0"/>
        <pt x="919" y="68" on="0"/>
        <pt x="931" y="75" on="0"/>
        <pt x="939" y="90" on="0"/>
        <pt x="940" y="103" on="1"/>
        <pt x="941" y="115" on="0"/>
        <pt x="945" y="157" on="0"/>
        <pt x="949" y="207" on="0"/>
        <pt x="952" y="255" on="0"/>
        <pt x="953" y="273" on="1"/>
        <pt x="954" y="293" on="0"/>
        <pt x="970" y="320" on="0"/>
      </contour>
      <contour>
        <pt x="410" y="287" on="1"/>
        <pt x="439" y="287" on="0"/>
        <pt x="497" y="287" on="0"/>
        <pt x="526" y="288" on="1"/>
        <pt x="527" y="314" on="0"/>
        <pt x="527" y="379" on="0"/>
        <pt x="527" y="425" on="1"/>
        <pt x="527" y="481" on="0"/>
        <pt x="525" y="554" on="0"/>
        <pt x="523" y="609" on="0"/>
        <pt x="521" y="660" on="0"/>
        <pt x="521" y="694" on="1"/>
        <pt x="521" y="698" on="1"/>
        <pt x="513" y="678" on="0"/>
        <pt x="483" y="619" on="0"/>
        <pt x="446" y="547" on="0"/>
        <pt x="405" y="469" on="0"/>
        <pt x="365" y="391" on="0"/>
        <pt x="331" y="318" on="0"/>
        <pt x="319" y="289" on="1"/>
        <pt x="342" y="289" on="0"/>
        <pt x="386" y="287" on="0"/>
      </contour>
    </TTGlyph>
    <TTGlyph name="Aacute" xMin="-37" yMin="-55" xMax="754" yMax="972">
      <contour>
        <pt x="429" y="941" on="1"/>
        <pt x="429" y="929" on="0"/>
        <pt x="401" y="899" on="0"/>
        <pt x="364" y="872" on="0"/>
        <pt x="325" y="854" on="0"/>
        <pt x="315" y="854" on="1"/>
        <pt x="304" y="854" on="0"/>
        <pt x="291" y="867" on="0"/>
        <pt x="291" y="877" on="1"/>
        <pt x="291" y="887" on="0"/>
        <pt x="316" y="919" on="0"/>
        <pt x="350" y="950" on="0"/>
        <pt x="386" y="972" on="0"/>
        <pt x="397" y="972" on="1"/>
        <pt x="412" y="972" on="0"/>
        <pt x="429" y="955" on="0"/>
      </contour>
      <contour>
        <pt x="600" y="23" on="1"/>
        <pt x="606" y="0" on="0"/>
        <pt x="665" y="-9" on="0"/>
        <pt x="713" y="-9" on="1"/>
        <pt x="727" y="-9" on="0"/>
        <pt x="754" y="-17" on="0"/>
        <pt x="754" y="-31" on="1"/>
        <pt x="754" y="-45" on="0"/>
        <pt x="736" y="-55" on="0"/>
        <pt x="719" y="-55" on="1"/>
        <pt x="486" y="-55" on="1"/>
        <pt x="468" y="-55" on="0"/>
        <pt x="455" y="-47" on="0"/>
        <pt x="455" y="-39" on="1"/>
        <pt x="455" y="-28" on="0"/>
        <pt x="477" y="-23" on="0"/>
        <pt x="504" y="-18" on="0"/>
        <pt x="526" y="-4" on="0"/>
        <pt x="526" y="15" on="1"/>
        <pt x="526" y="20" on="0"/>
        <pt x="519" y="51" on="0"/>
        <pt x="509" y="92" on="0"/>
        <pt x="497" y="139" on="0"/>
        <pt x="485" y="181" on="0"/>
        <pt x="475" y="215" on="0"/>
        <pt x="473" y="223" on="1"/>
        <pt x="225" y="223" on="1"/>
        <pt x="218" y="203" on="0"/>
        <pt x="203" y="156" on="0"/>
        <pt x="190" y="111" on="0"/>
        <pt x="182" y="74" on="0"/>
        <pt x="182" y="65" on="1"/>
        <pt x="182" y="59" on="0"/>
        <pt x="197" y="52" on="0"/>
        <pt x="220" y="49" on="0"/>
        <pt x="247" y="49" on="0"/>
        <pt x="258" y="49" on="1"/>
        <pt x="268" y="49" on="0"/>
        <pt x="287" y="39" on="0"/>
        <pt x="287" y="24" on="1"/>
        <pt x="287" y="15" on="0"/>
        <pt x="273" y="0" on="0"/>
        <pt x="253" y="0" on="1"/>
        <pt x="-14" y="0" on="1"/>
        <pt x="-23" y="0" on="0"/>
        <pt x="-37" y="13" on="0"/>
        <pt x="-37" y="24" on="1"/>
        <pt x="-37" y="34" on="0"/>
        <pt x="-22" y="45" on="0"/>
        <pt x="-12" y="45" on="1"/>
        <pt x="-5" y="45" on="0"/>
        <pt x="17" y="47" on="0"/>
        <pt x="39" y="49" on="0"/>
        <pt x="56" y="51" on="0"/>
        <pt x="59" y="51" on="1"/>
        <pt x="80" y="53" on="0"/>
        <pt x="102" y="71" on="0"/>
        <pt x="108" y="89" on="1"/>
        <pt x="123" y="131" on="0"/>
        <pt x="160" y="253" on="0"/>
        <pt x="199" y="393" on="0"/>
        <pt x="240" y="540" on="0"/>
        <pt x="276" y="673" on="0"/>
        <pt x="307" y="783" on="0"/>
        <pt x="317" y="816" on="1"/>
        <pt x="319" y="824" on="0"/>
        <pt x="335" y="837" on="0"/>
        <pt x="353" y="837" on="1"/>
        <pt x="382" y="837" on="0"/>
        <pt x="388" y="816" on="1"/>
      </contour>
      <contour>
        <pt x="356" y="715" on="1"/>
        <pt x="351" y="696" on="0"/>
        <pt x="335" y="634" on="0"/>
        <pt x="315" y="558" on="0"/>
        <pt x="292" y="474" on="0"/>
        <pt x="271" y="392" on="0"/>
        <pt x="251" y="317" on="0"/>
        <pt x="244" y="289" on="1"/>
        <pt x="275" y="288" on="0"/>
        <pt x="332" y="288" on="0"/>
        <pt x="363" y="288" on="1"/>
        <pt x="386" y="288" on="0"/>
        <pt x="435" y="288" on="0"/>
        <pt x="458" y="289" on="1"/>
        <pt x="446" y="335" on="0"/>
        <pt x="420" y="441" on="0"/>
        <pt x="393" y="553" on="0"/>
        <pt x="367" y="664" on="0"/>
      </contour>
    </TTGlyph>
    <TTGlyph name="Abreve" xMin="-37" yMin="-55" xMax="754" yMax="972">
      <component glyphName=".ttfautohint" x="0" y="0" flags="0x0"/>
      <component glyphName="A" x="0" y="0" flags="0x204"/>
      <component glyphName="breve" x="246" y="355" flags="0x4"/>
    </TTGlyph>
    <TTGlyph name="Acircumflex" xMin="-37" yMin="-55" xMax="754" yMax="972">
      <contour>
        <pt x="478" y="848" on="1"/>
        <pt x="473" y="848" on="0"/>
        <pt x="447" y="856" on="0"/>
        <pt x="413" y="870" on="0"/>
        <pt x="375" y="888" on="0"/>
        <pt x="358" y="898" on="1"/>
        <pt x="341" y="888" on="0"/>
        <pt x="303" y="870" on="0"/>
        <pt x="270" y="856" on="0"/>
        <pt x="244" y="848" on="0"/>
        <pt x="239" y="848" on="1"/>
        <pt x="228" y="848" on="0"/>
        <pt x="228" y="861" on="1"/>
        <pt x="228" y="877" on="0"/>
        <pt x="263" y="915" on="0"/>
        <pt x="308" y="949" on="0"/>
        <pt x="350" y="972" on="0"/>
        <pt x="358" y="972" on="1"/>
        <pt x="367" y="972" on="0"/>
        <pt x="410" y="949" on="0"/>
        <pt x="455" y="915" on="0"/>
        <pt x="489" y="878" on="0"/>
        <pt x="489" y="865" on="1"/>
        <pt x="489" y="858" on="0"/>
        <pt x="484" y="848" on="0"/>
      </contour>
      <contour>
        <pt x="600" y="23" on="1"/>
        <pt x="606" y="0" on="0"/>
        <pt x="665" y="-9" on="0"/>
        <pt x="713" y="-9" on="1"/>
        <pt x="727" y="-9" on="0"/>
        <pt x="754" y="-17" on="0"/>
        <pt x="754" y="-31" on="1"/>
        <pt x="754" y="-45" on="0"/>
        <pt x="736" y="-55" on="0"/>
        <pt x="719" y="-55" on="1"/>
        <pt x="486" y="-55" on="1"/>
        <pt x="468" y="-55" on="0"/>
        <pt x="455" y="-47" on="0"/>
        <pt x="455" y="-39" on="1"/>
        <pt x="455" y="-28" on="0"/>
        <pt x="477" y="-23" on="0"/>
        <pt x="504" y="-18" on="0"/>
        <pt x="526" y="-4" on="0"/>
        <pt x="526" y="15" on="1"/>
        <pt x="526" y="20" on="0"/>
        <pt x="519" y="51" on="0"/>
        <pt x="509" y="92" on="0"/>
        <pt x="497" y="139" on="0"/>
        <pt x="485" y="181" on="0"/>
        <pt x="475" y="215" on="0"/>
        <pt x="473" y="223" on="1"/>
        <pt x="225" y="223" on="1"/>
        <pt x="218" y="203" on="0"/>
        <pt x="203" y="156" on="0"/>
        <pt x="190" y="111" on="0"/>
        <pt x="182" y="74" on="0"/>
        <pt x="182" y="65" on="1"/>
        <pt x="182" y="59" on="0"/>
        <pt x="197" y="52" on="0"/>
        <pt x="220" y="49" on="0"/>
        <pt x="247" y="49" on="0"/>
        <pt x="258" y="49" on="1"/>
        <pt x="268" y="49" on="0"/>
        <pt x="287" y="39" on="0"/>
        <pt x="287" y="24" on="1"/>
        <pt x="287" y="15" on="0"/>
        <pt x="273" y="0" on="0"/>
        <pt x="253" y="0" on="1"/>
        <pt x="-14" y="0" on="1"/>
        <pt x="-23" y="0" on="0"/>
        <pt x="-37" y="13" on="0"/>
        <pt x="-37" y="24" on="1"/>
        <pt x="-37" y="34" on="0"/>
        <pt x="-22" y="45" on="0"/>
        <pt x="-12" y="45" on="1"/>
        <pt x="-5" y="45" on="0"/>
        <pt x="17" y="47" on="0"/>
        <pt x="39" y="49" on="0"/>
        <pt x="56" y="51" on="0"/>
        <pt x="59" y="51" on="1"/>
        <pt x="80" y="53" on="0"/>
        <pt x="102" y="71" on="0"/>
        <pt x="108" y="89" on="1"/>
        <pt x="123" y="131" on="0"/>
        <pt x="160" y="253" on="0"/>
        <pt x="199" y="393" on="0"/>
        <pt x="240" y="540" on="0"/>
        <pt x="276" y="673" on="0"/>
        <pt x="307" y="783" on="0"/>
        <pt x="317" y="816" on="1"/>
        <pt x="319" y="824" on="0"/>
        <pt x="335" y="837" on="0"/>
        <pt x="353" y="837" on="1"/>
        <pt x="382" y="837" on="0"/>
        <pt x="388" y="816" on="1"/>
      </contour>
      <contour>
        <pt x="356" y="715" on="1"/>
        <pt x="351" y="696" on="0"/>
        <pt x="335" y="634" on="0"/>
        <pt x="315" y="558" on="0"/>
        <pt x="292" y="474" on="0"/>
        <pt x="271" y="392" on="0"/>
        <pt x="251" y="317" on="0"/>
        <pt x="244" y="289" on="1"/>
        <pt x="275" y="288" on="0"/>
        <pt x="332" y="288" on="0"/>
        <pt x="363" y="288" on="1"/>
        <pt x="386" y="288" on="0"/>
        <pt x="435" y="288" on="0"/>
        <pt x="458" y="289" on="1"/>
        <pt x="446" y="335" on="0"/>
        <pt x="420" y="441" on="0"/>
        <pt x="393" y="553" on="0"/>
        <pt x="367" y="664" on="0"/>
      </contour>
    </TTGlyph>
    <TTGlyph name="Adieresis" xMin="-37" yMin="-55" xMax="754" yMax="972">
      <contour>
        <pt x="200" y="916" on="1"/>
        <pt x="200" y="923" on="0"/>
        <pt x="206" y="942" on="0"/>
        <pt x="220" y="960" on="0"/>
        <pt x="241" y="972" on="0"/>
        <pt x="256" y="972" on="1"/>
        <pt x="276" y="972" on="0"/>
        <pt x="305" y="943" on="0"/>
        <pt x="305" y="920" on="1"/>
        <pt x="305" y="884" on="0"/>
        <pt x="268" y="859" on="0"/>
        <pt x="249" y="859" on="1"/>
        <pt x="229" y="859" on="0"/>
        <pt x="200" y="891" on="0"/>
      </contour>
      <contour>
        <pt x="407" y="904" on="1"/>
        <pt x="407" y="911" on="0"/>
        <pt x="413" y="930" on="0"/>
        <pt x="427" y="948" on="0"/>
        <pt x="448" y="960" on="0"/>
        <pt x="463" y="960" on="1"/>
        <pt x="483" y="960" on="0"/>
        <pt x="512" y="931" on="0"/>
        <pt x="512" y="908" on="1"/>
        <pt x="512" y="872" on="0"/>
        <pt x="475" y="847" on="0"/>
        <pt x="456" y="847" on="1"/>
        <pt x="436" y="847" on="0"/>
        <pt x="407" y="879" on="0"/>
      </contour>
      <contour>
        <pt x="600" y="23" on="1"/>
        <pt x="606" y="0" on="0"/>
        <pt x="665" y="-9" on="0"/>
        <pt x="713" y="-9" on="1"/>
        <pt x="727" y="-9" on="0"/>
        <pt x="754" y="-17" on="0"/>
        <pt x="754" y="-31" on="1"/>
        <pt x="754" y="-45" on="0"/>
        <pt x="736" y="-55" on="0"/>
        <pt x="719" y="-55" on="1"/>
        <pt x="486" y="-55" on="1"/>
        <pt x="468" y="-55" on="0"/>
        <pt x="455" y="-47" on="0"/>
        <pt x="455" y="-39" on="1"/>
        <pt x="455" y="-28" on="0"/>
        <pt x="477" y="-23" on="0"/>
        <pt x="504" y="-18" on="0"/>
        <pt x="526" y="-4" on="0"/>
        <pt x="526" y="15" on="1"/>
        <pt x="526" y="20" on="0"/>
        <pt x="519" y="51" on="0"/>
        <pt x="509" y="92" on="0"/>
        <pt x="497" y="139" on="0"/>
        <pt x="485" y="181" on="0"/>
        <pt x="475" y="215" on="0"/>
        <pt x="473" y="223" on="1"/>
        <pt x="225" y="223" on="1"/>
        <pt x="218" y="203" on="0"/>
        <pt x="203" y="156" on="0"/>
        <pt x="190" y="111" on="0"/>
        <pt x="182" y="74" on="0"/>
        <pt x="182" y="65" on="1"/>
        <pt x="182" y="59" on="0"/>
        <pt x="197" y="52" on="0"/>
        <pt x="220" y="49" on="0"/>
        <pt x="247" y="49" on="0"/>
        <pt x="258" y="49" on="1"/>
        <pt x="268" y="49" on="0"/>
        <pt x="287" y="39" on="0"/>
        <pt x="287" y="24" on="1"/>
        <pt x="287" y="15" on="0"/>
        <pt x="273" y="0" on="0"/>
        <pt x="253" y="0" on="1"/>
        <pt x="-14" y="0" on="1"/>
        <pt x="-23" y="0" on="0"/>
        <pt x="-37" y="13" on="0"/>
        <pt x="-37" y="24" on="1"/>
        <pt x="-37" y="34" on="0"/>
        <pt x="-22" y="45" on="0"/>
        <pt x="-12" y="45" on="1"/>
        <pt x="-5" y="45" on="0"/>
        <pt x="17" y="47" on="0"/>
        <pt x="39" y="49" on="0"/>
        <pt x="56" y="51" on="0"/>
        <pt x="59" y="51" on="1"/>
        <pt x="80" y="53" on="0"/>
        <pt x="102" y="71" on="0"/>
        <pt x="108" y="89" on="1"/>
        <pt x="123" y="131" on="0"/>
        <pt x="160" y="253" on="0"/>
        <pt x="199" y="393" on="0"/>
        <pt x="240" y="540" on="0"/>
        <pt x="276" y="673" on="0"/>
        <pt x="307" y="783" on="0"/>
        <pt x="317" y="816" on="1"/>
        <pt x="319" y="824" on="0"/>
        <pt x="335" y="837" on="0"/>
        <pt x="353" y="837" on="1"/>
        <pt x="382" y="837" on="0"/>
        <pt x="388" y="816" on="1"/>
      </contour>
      <contour>
        <pt x="356" y="715" on="1"/>
        <pt x="351" y="696" on="0"/>
        <pt x="335" y="634" on="0"/>
        <pt x="315" y="558" on="0"/>
        <pt x="292" y="474" on="0"/>
        <pt x="271" y="392" on="0"/>
        <pt x="251" y="317" on="0"/>
        <pt x="244" y="289" on="1"/>
        <pt x="275" y="288" on="0"/>
        <pt x="332" y="288" on="0"/>
        <pt x="363" y="288" on="1"/>
        <pt x="386" y="288" on="0"/>
        <pt x="435" y="288" on="0"/>
        <pt x="458" y="289" on="1"/>
        <pt x="446" y="335" on="0"/>
        <pt x="420" y="441" on="0"/>
        <pt x="393" y="553" on="0"/>
        <pt x="367" y="664" on="0"/>
      </contour>
    </TTGlyph>
    <TTGlyph name="Agrave" xMin="-37" yMin="-55" xMax="754" yMax="972">
      <contour>
        <pt x="291" y="941" on="1"/>
        <pt x="291" y="955" on="0"/>
        <pt x="308" y="972" on="0"/>
        <pt x="323" y="972" on="1"/>
        <pt x="334" y="972" on="0"/>
        <pt x="370" y="950" on="0"/>
        <pt x="404" y="919" on="0"/>
        <pt x="429" y="887" on="0"/>
        <pt x="429" y="877" on="1"/>
        <pt x="429" y="867" on="0"/>
        <pt x="416" y="854" on="0"/>
        <pt x="405" y="854" on="1"/>
        <pt x="394" y="854" on="0"/>
        <pt x="356" y="872" on="0"/>
        <pt x="319" y="899" on="0"/>
        <pt x="291" y="929" on="0"/>
      </contour>
      <contour>
        <pt x="600" y="23" on="1"/>
        <pt x="606" y="0" on="0"/>
        <pt x="665" y="-9" on="0"/>
        <pt x="713" y="-9" on="1"/>
        <pt x="727" y="-9" on="0"/>
        <pt x="754" y="-17" on="0"/>
        <pt x="754" y="-31" on="1"/>
        <pt x="754" y="-45" on="0"/>
        <pt x="736" y="-55" on="0"/>
        <pt x="719" y="-55" on="1"/>
        <pt x="486" y="-55" on="1"/>
        <pt x="468" y="-55" on="0"/>
        <pt x="455" y="-47" on="0"/>
        <pt x="455" y="-39" on="1"/>
        <pt x="455" y="-28" on="0"/>
        <pt x="477" y="-23" on="0"/>
        <pt x="504" y="-18" on="0"/>
        <pt x="526" y="-4" on="0"/>
        <pt x="526" y="15" on="1"/>
        <pt x="526" y="20" on="0"/>
        <pt x="519" y="51" on="0"/>
        <pt x="509" y="92" on="0"/>
        <pt x="497" y="139" on="0"/>
        <pt x="485" y="181" on="0"/>
        <pt x="475" y="215" on="0"/>
        <pt x="473" y="223" on="1"/>
        <pt x="225" y="223" on="1"/>
        <pt x="218" y="203" on="0"/>
        <pt x="203" y="156" on="0"/>
        <pt x="190" y="111" on="0"/>
        <pt x="182" y="74" on="0"/>
        <pt x="182" y="65" on="1"/>
        <pt x="182" y="59" on="0"/>
        <pt x="197" y="52" on="0"/>
        <pt x="220" y="49" on="0"/>
        <pt x="247" y="49" on="0"/>
        <pt x="258" y="49" on="1"/>
        <pt x="268" y="49" on="0"/>
        <pt x="287" y="39" on="0"/>
        <pt x="287" y="24" on="1"/>
        <pt x="287" y="15" on="0"/>
        <pt x="273" y="0" on="0"/>
        <pt x="253" y="0" on="1"/>
        <pt x="-14" y="0" on="1"/>
        <pt x="-23" y="0" on="0"/>
        <pt x="-37" y="13" on="0"/>
        <pt x="-37" y="24" on="1"/>
        <pt x="-37" y="34" on="0"/>
        <pt x="-22" y="45" on="0"/>
        <pt x="-12" y="45" on="1"/>
        <pt x="-5" y="45" on="0"/>
        <pt x="17" y="47" on="0"/>
        <pt x="39" y="49" on="0"/>
        <pt x="56" y="51" on="0"/>
        <pt x="59" y="51" on="1"/>
        <pt x="80" y="53" on="0"/>
        <pt x="102" y="71" on="0"/>
        <pt x="108" y="89" on="1"/>
        <pt x="123" y="131" on="0"/>
        <pt x="160" y="253" on="0"/>
        <pt x="199" y="393" on="0"/>
        <pt x="240" y="540" on="0"/>
        <pt x="276" y="673" on="0"/>
        <pt x="307" y="783" on="0"/>
        <pt x="317" y="816" on="1"/>
        <pt x="319" y="824" on="0"/>
        <pt x="335" y="837" on="0"/>
        <pt x="353" y="837" on="1"/>
        <pt x="382" y="837" on="0"/>
        <pt x="388" y="816" on="1"/>
      </contour>
      <contour>
        <pt x="356" y="715" on="1"/>
        <pt x="351" y="696" on="0"/>
        <pt x="335" y="634" on="0"/>
        <pt x="315" y="558" on="0"/>
        <pt x="292" y="474" on="0"/>
        <pt x="271" y="392" on="0"/>
        <pt x="251" y="317" on="0"/>
        <pt x="244" y="289" on="1"/>
        <pt x="275" y="288" on="0"/>
        <pt x="332" y="288" on="0"/>
        <pt x="363" y="288" on="1"/>
        <pt x="386" y="288" on="0"/>
        <pt x="435" y="288" on="0"/>
        <pt x="458" y="289" on="1"/>
        <pt x="446" y="335" on="0"/>
        <pt x="420" y="441" on="0"/>
        <pt x="393" y="553" on="0"/>
        <pt x="367" y="664" on="0"/>
      </contour>
    </TTGlyph>
    <TTGlyph name="Amacron" xMin="-37" yMin="-55" xMax="754" yMax="939">
      <component glyphName=".ttfautohint" x="0" y="0" flags="0x0"/>
      <component glyphName="A" x="0" y="0" flags="0x204"/>
      <component glyphName="macron" x="213" y="382" flags="0x4"/>
    </TTGlyph>
    <TTGlyph name="Aogonek" xMin="-37" yMin="-201" xMax="754" yMax="837">
      <component glyphName=".ttfautohint" x="0" y="0" flags="0x0"/>
      <component glyphName="A" x="0" y="0" flags="0x204"/>
      <component glyphName="ogonek" x="488" y="-52" flags="0x4"/>
    </TTGlyph>
    <TTGlyph name="Aring" xMin="-37" yMin="-55" xMax="754" yMax="972">
      <contour>
        <pt x="433" y="914" on="1"/>
        <pt x="433" y="883" on="0"/>
        <pt x="390" y="853" on="0"/>
        <pt x="363" y="853" on="1"/>
        <pt x="333" y="853" on="0"/>
        <pt x="291" y="886" on="0"/>
        <pt x="291" y="912" on="1"/>
        <pt x="291" y="938" on="0"/>
        <pt x="332" y="972" on="0"/>
        <pt x="362" y="972" on="1"/>
        <pt x="433" y="972" on="0"/>
      </contour>
      <contour>
        <pt x="362" y="938" on="1"/>
        <pt x="354" y="938" on="0"/>
        <pt x="336" y="927" on="0"/>
        <pt x="336" y="912" on="1"/>
        <pt x="336" y="897" on="0"/>
        <pt x="357" y="887" on="0"/>
        <pt x="363" y="887" on="1"/>
        <pt x="368" y="887" on="0"/>
        <pt x="388" y="897" on="0"/>
        <pt x="388" y="913" on="1"/>
        <pt x="388" y="927" on="0"/>
        <pt x="372" y="938" on="0"/>
      </contour>
      <contour>
        <pt x="600" y="23" on="1"/>
        <pt x="606" y="0" on="0"/>
        <pt x="665" y="-9" on="0"/>
        <pt x="713" y="-9" on="1"/>
        <pt x="727" y="-9" on="0"/>
        <pt x="754" y="-17" on="0"/>
        <pt x="754" y="-31" on="1"/>
        <pt x="754" y="-45" on="0"/>
        <pt x="736" y="-55" on="0"/>
        <pt x="719" y="-55" on="1"/>
        <pt x="486" y="-55" on="1"/>
        <pt x="468" y="-55" on="0"/>
        <pt x="455" y="-47" on="0"/>
        <pt x="455" y="-39" on="1"/>
        <pt x="455" y="-28" on="0"/>
        <pt x="477" y="-23" on="0"/>
        <pt x="504" y="-18" on="0"/>
        <pt x="526" y="-4" on="0"/>
        <pt x="526" y="15" on="1"/>
        <pt x="526" y="20" on="0"/>
        <pt x="519" y="51" on="0"/>
        <pt x="509" y="92" on="0"/>
        <pt x="497" y="139" on="0"/>
        <pt x="485" y="181" on="0"/>
        <pt x="475" y="215" on="0"/>
        <pt x="473" y="223" on="1"/>
        <pt x="225" y="223" on="1"/>
        <pt x="218" y="203" on="0"/>
        <pt x="203" y="156" on="0"/>
        <pt x="190" y="111" on="0"/>
        <pt x="182" y="74" on="0"/>
        <pt x="182" y="65" on="1"/>
        <pt x="182" y="59" on="0"/>
        <pt x="197" y="52" on="0"/>
        <pt x="220" y="49" on="0"/>
        <pt x="247" y="49" on="0"/>
        <pt x="258" y="49" on="1"/>
        <pt x="268" y="49" on="0"/>
        <pt x="287" y="39" on="0"/>
        <pt x="287" y="24" on="1"/>
        <pt x="287" y="15" on="0"/>
        <pt x="273" y="0" on="0"/>
        <pt x="253" y="0" on="1"/>
        <pt x="-14" y="0" on="1"/>
        <pt x="-23" y="0" on="0"/>
        <pt x="-37" y="13" on="0"/>
        <pt x="-37" y="24" on="1"/>
        <pt x="-37" y="34" on="0"/>
        <pt x="-22" y="45" on="0"/>
        <pt x="-12" y="45" on="1"/>
        <pt x="-5" y="45" on="0"/>
        <pt x="17" y="47" on="0"/>
        <pt x="39" y="49" on="0"/>
        <pt x="56" y="51" on="0"/>
        <pt x="59" y="51" on="1"/>
        <pt x="80" y="53" on="0"/>
        <pt x="102" y="71" on="0"/>
        <pt x="108" y="89" on="1"/>
        <pt x="123" y="131" on="0"/>
        <pt x="160" y="253" on="0"/>
        <pt x="199" y="393" on="0"/>
        <pt x="240" y="540" on="0"/>
        <pt x="276" y="673" on="0"/>
        <pt x="307" y="783" on="0"/>
        <pt x="317" y="816" on="1"/>
        <pt x="319" y="824" on="0"/>
        <pt x="335" y="837" on="0"/>
        <pt x="353" y="837" on="1"/>
        <pt x="382" y="837" on="0"/>
        <pt x="388" y="816" on="1"/>
      </contour>
      <contour>
        <pt x="356" y="715" on="1"/>
        <pt x="351" y="696" on="0"/>
        <pt x="335" y="634" on="0"/>
        <pt x="315" y="558" on="0"/>
        <pt x="292" y="474" on="0"/>
        <pt x="271" y="392" on="0"/>
        <pt x="251" y="317" on="0"/>
        <pt x="244" y="289" on="1"/>
        <pt x="275" y="288" on="0"/>
        <pt x="332" y="288" on="0"/>
        <pt x="363" y="288" on="1"/>
        <pt x="386" y="288" on="0"/>
        <pt x="435" y="288" on="0"/>
        <pt x="458" y="289" on="1"/>
        <pt x="446" y="335" on="0"/>
        <pt x="420" y="441" on="0"/>
        <pt x="393" y="553" on="0"/>
        <pt x="367" y="664" on="0"/>
      </contour>
    </TTGlyph>
    <TTGlyph name="Aringacute" xMin="-34" yMin="-55" xMax="757" yMax="972">
      <contour>
        <pt x="603" y="23" on="1"/>
        <pt x="610" y="0" on="0"/>
        <pt x="668" y="-9" on="0"/>
        <pt x="716" y="-9" on="1"/>
        <pt x="730" y="-9" on="0"/>
        <pt x="757" y="-17" on="0"/>
        <pt x="757" y="-31" on="1"/>
        <pt x="757" y="-45" on="0"/>
        <pt x="739" y="-55" on="0"/>
        <pt x="722" y="-55" on="1"/>
        <pt x="489" y="-55" on="1"/>
        <pt x="471" y="-55" on="0"/>
        <pt x="458" y="-47" on="0"/>
        <pt x="458" y="-39" on="1"/>
        <pt x="458" y="-28" on="0"/>
        <pt x="480" y="-23" on="0"/>
        <pt x="507" y="-18" on="0"/>
        <pt x="529" y="-4" on="0"/>
        <pt x="529" y="15" on="1"/>
        <pt x="529" y="20" on="0"/>
        <pt x="521" y="51" on="0"/>
        <pt x="509" y="92" on="0"/>
        <pt x="494" y="139" on="0"/>
        <pt x="480" y="181" on="0"/>
        <pt x="469" y="215" on="0"/>
        <pt x="466" y="223" on="1"/>
        <pt x="238" y="223" on="1"/>
        <pt x="230" y="203" on="0"/>
        <pt x="212" y="155" on="0"/>
        <pt x="197" y="110" on="0"/>
        <pt x="186" y="73" on="0"/>
        <pt x="185" y="65" on="1"/>
        <pt x="185" y="59" on="0"/>
        <pt x="200" y="52" on="0"/>
        <pt x="223" y="49" on="0"/>
        <pt x="250" y="49" on="0"/>
        <pt x="261" y="49" on="1"/>
        <pt x="271" y="49" on="0"/>
        <pt x="290" y="39" on="0"/>
        <pt x="290" y="24" on="1"/>
        <pt x="290" y="15" on="0"/>
        <pt x="276" y="0" on="0"/>
        <pt x="256" y="0" on="1"/>
        <pt x="-11" y="0" on="1"/>
        <pt x="-20" y="0" on="0"/>
        <pt x="-34" y="13" on="0"/>
        <pt x="-34" y="24" on="1"/>
        <pt x="-34" y="34" on="0"/>
        <pt x="-19" y="45" on="0"/>
        <pt x="-9" y="45" on="1"/>
        <pt x="-2" y="45" on="0"/>
        <pt x="20" y="47" on="0"/>
        <pt x="42" y="49" on="0"/>
        <pt x="59" y="51" on="0"/>
        <pt x="62" y="51" on="1"/>
        <pt x="83" y="53" on="0"/>
        <pt x="105" y="71" on="0"/>
        <pt x="111" y="89" on="1"/>
        <pt x="126" y="126" on="0"/>
        <pt x="163" y="232" on="0"/>
        <pt x="202" y="353" on="0"/>
        <pt x="243" y="480" on="0"/>
        <pt x="279" y="594" on="0"/>
        <pt x="310" y="688" on="0"/>
        <pt x="320" y="716" on="1"/>
        <pt x="322" y="724" on="0"/>
        <pt x="338" y="737" on="0"/>
        <pt x="356" y="737" on="1"/>
        <pt x="385" y="737" on="0"/>
        <pt x="391" y="716" on="1"/>
      </contour>
      <contour>
        <pt x="359" y="615" on="1"/>
        <pt x="353" y="594" on="0"/>
        <pt x="326" y="510" on="0"/>
        <pt x="294" y="414" on="0"/>
        <pt x="265" y="320" on="0"/>
        <pt x="257" y="289" on="1"/>
        <pt x="286" y="288" on="0"/>
        <pt x="337" y="288" on="0"/>
        <pt x="366" y="288" on="1"/>
        <pt x="387" y="288" on="0"/>
        <pt x="430" y="288" on="0"/>
        <pt x="451" y="289" on="1"/>
        <pt x="440" y="323" on="0"/>
        <pt x="416" y="404" on="0"/>
        <pt x="392" y="490" on="0"/>
        <pt x="369" y="576" on="0"/>
      </contour>
      <contour>
        <pt x="452" y="939" on="1"/>
        <pt x="452" y="930" on="0"/>
        <pt x="435" y="909" on="0"/>
        <pt x="409" y="890" on="0"/>
        <pt x="377" y="873" on="0"/>
        <pt x="363" y="867" on="1"/>
        <pt x="367" y="867" on="1"/>
        <pt x="438" y="867" on="0"/>
        <pt x="438" y="809" on="1"/>
        <pt x="438" y="778" on="0"/>
        <pt x="395" y="748" on="0"/>
        <pt x="368" y="748" on="1"/>
        <pt x="338" y="748" on="0"/>
        <pt x="296" y="781" on="0"/>
        <pt x="296" y="807" on="1"/>
        <pt x="296" y="824" on="0"/>
        <pt x="314" y="851" on="0"/>
        <pt x="330" y="859" on="1"/>
        <pt x="321" y="860" on="0"/>
        <pt x="315" y="873" on="0"/>
        <pt x="315" y="882" on="1"/>
        <pt x="316" y="892" on="0"/>
        <pt x="341" y="923" on="0"/>
        <pt x="375" y="952" on="0"/>
        <pt x="410" y="972" on="0"/>
        <pt x="422" y="972" on="1"/>
        <pt x="437" y="970" on="0"/>
        <pt x="452" y="953" on="0"/>
      </contour>
      <contour>
        <pt x="367" y="833" on="1"/>
        <pt x="359" y="833" on="0"/>
        <pt x="341" y="822" on="0"/>
        <pt x="341" y="807" on="1"/>
        <pt x="341" y="792" on="0"/>
        <pt x="362" y="782" on="0"/>
        <pt x="368" y="782" on="1"/>
        <pt x="373" y="782" on="0"/>
        <pt x="393" y="792" on="0"/>
        <pt x="393" y="808" on="1"/>
        <pt x="393" y="822" on="0"/>
        <pt x="377" y="833" on="0"/>
      </contour>
    </TTGlyph>
    <TTGlyph name="Atilde" xMin="-37" yMin="-55" xMax="754" yMax="972">
      <component glyphName=".ttfautohint" x="0" y="0" flags="0x0"/>
      <component glyphName="A" x="0" y="0" flags="0x204"/>
      <component glyphName="tilde" x="183" y="372" flags="0x4"/>
    </TTGlyph>
    <TTGlyph name="B" xMin="38" yMin="0" xMax="657" yMax="821">
      <contour>
        <pt x="67" y="48" on="1"/>
        <pt x="77" y="48" on="0"/>
        <pt x="102" y="49" on="0"/>
        <pt x="124" y="54" on="0"/>
        <pt x="139" y="63" on="0"/>
        <pt x="139" y="72" on="1"/>
        <pt x="139" y="140" on="0"/>
        <pt x="140" y="272" on="0"/>
        <pt x="140" y="313" on="1"/>
        <pt x="140" y="364" on="0"/>
        <pt x="138" y="489" on="0"/>
        <pt x="135" y="608" on="0"/>
        <pt x="133" y="707" on="0"/>
        <pt x="132" y="733" on="1"/>
        <pt x="131" y="760" on="0"/>
        <pt x="100" y="769" on="0"/>
        <pt x="67" y="769" on="1"/>
        <pt x="41" y="769" on="0"/>
        <pt x="41" y="794" on="1"/>
        <pt x="41" y="805" on="0"/>
        <pt x="56" y="818" on="0"/>
        <pt x="67" y="818" on="1"/>
        <pt x="104" y="818" on="0"/>
        <pt x="195" y="819" on="0"/>
        <pt x="277" y="820" on="0"/>
        <pt x="339" y="821" on="0"/>
        <pt x="348" y="821" on="1"/>
        <pt x="401" y="821" on="0"/>
        <pt x="498" y="794" on="0"/>
        <pt x="571" y="742" on="0"/>
        <pt x="615" y="664" on="0"/>
        <pt x="615" y="612" on="1"/>
        <pt x="615" y="542" on="0"/>
        <pt x="537" y="439" on="0"/>
        <pt x="469" y="421" on="1"/>
        <pt x="555" y="405" on="0"/>
        <pt x="657" y="299" on="0"/>
        <pt x="657" y="220" on="1"/>
        <pt x="657" y="159" on="0"/>
        <pt x="596" y="75" on="0"/>
        <pt x="494" y="23" on="0"/>
        <pt x="361" y="0" on="0"/>
        <pt x="289" y="0" on="1"/>
        <pt x="89" y="0" on="1"/>
        <pt x="64" y="0" on="0"/>
        <pt x="38" y="11" on="0"/>
        <pt x="38" y="25" on="1"/>
        <pt x="38" y="39" on="0"/>
        <pt x="54" y="48" on="0"/>
      </contour>
      <contour>
        <pt x="289" y="380" on="1"/>
        <pt x="270" y="380" on="0"/>
        <pt x="248" y="379" on="0"/>
        <pt x="233" y="378" on="0"/>
        <pt x="220" y="377" on="0"/>
        <pt x="210" y="377" on="1"/>
        <pt x="210" y="62" on="1"/>
        <pt x="251" y="62" on="0"/>
        <pt x="338" y="65" on="0"/>
        <pt x="421" y="75" on="0"/>
        <pt x="495" y="95" on="0"/>
        <pt x="551" y="131" on="0"/>
        <pt x="583" y="184" on="0"/>
        <pt x="583" y="222" on="1"/>
        <pt x="583" y="275" on="0"/>
        <pt x="531" y="337" on="0"/>
        <pt x="448" y="370" on="0"/>
        <pt x="343" y="380" on="0"/>
      </contour>
      <contour>
        <pt x="291" y="757" on="1"/>
        <pt x="274" y="757" on="0"/>
        <pt x="244" y="756" on="0"/>
        <pt x="233" y="755" on="1"/>
        <pt x="220" y="754" on="0"/>
        <pt x="210" y="753" on="1"/>
        <pt x="210" y="447" on="1"/>
        <pt x="210" y="445" on="0"/>
        <pt x="247" y="444" on="0"/>
        <pt x="280" y="444" on="1"/>
        <pt x="312" y="444" on="0"/>
        <pt x="402" y="451" on="0"/>
        <pt x="485" y="482" on="0"/>
        <pt x="543" y="546" on="0"/>
        <pt x="543" y="605" on="1"/>
        <pt x="543" y="651" on="0"/>
        <pt x="498" y="711" on="0"/>
        <pt x="426" y="744" on="0"/>
        <pt x="336" y="757" on="0"/>
      </contour>
    </TTGlyph>
    <TTGlyph name="C" xMin="37" yMin="-14" xMax="610" yMax="838">
      <contour>
        <pt x="610" y="219" on="1"/>
        <pt x="610" y="187" on="0"/>
        <pt x="579" y="107" on="0"/>
        <pt x="513" y="35" on="0"/>
        <pt x="407" y="-14" on="0"/>
        <pt x="332" y="-14" on="1"/>
        <pt x="278" y="-14" on="0"/>
        <pt x="172" y="33" on="0"/>
        <pt x="88" y="134" on="0"/>
        <pt x="37" y="293" on="0"/>
        <pt x="37" y="405" on="1"/>
        <pt x="37" y="496" on="0"/>
        <pt x="86" y="654" on="0"/>
        <pt x="170" y="771" on="0"/>
        <pt x="282" y="838" on="0"/>
        <pt x="345" y="838" on="1"/>
        <pt x="386" y="838" on="0"/>
        <pt x="450" y="811" on="0"/>
        <pt x="496" y="771" on="0"/>
        <pt x="525" y="723" on="0"/>
        <pt x="533" y="702" on="1"/>
        <pt x="531" y="733" on="0"/>
        <pt x="529" y="767" on="0"/>
        <pt x="528" y="784" on="0"/>
        <pt x="528" y="788" on="0"/>
        <pt x="528" y="788" on="1"/>
        <pt x="528" y="800" on="0"/>
        <pt x="543" y="823" on="0"/>
        <pt x="561" y="823" on="1"/>
        <pt x="573" y="823" on="0"/>
        <pt x="588" y="815" on="0"/>
        <pt x="595" y="805" on="0"/>
        <pt x="597" y="793" on="0"/>
        <pt x="597" y="790" on="1"/>
        <pt x="597" y="755" on="0"/>
        <pt x="593" y="670" on="0"/>
        <pt x="593" y="634" on="1"/>
        <pt x="593" y="602" on="0"/>
        <pt x="595" y="534" on="0"/>
        <pt x="595" y="502" on="1"/>
        <pt x="595" y="493" on="0"/>
        <pt x="583" y="468" on="0"/>
        <pt x="561" y="468" on="1"/>
        <pt x="543" y="468" on="0"/>
        <pt x="525" y="490" on="0"/>
        <pt x="525" y="527" on="1"/>
        <pt x="525" y="576" on="0"/>
        <pt x="506" y="667" on="0"/>
        <pt x="463" y="736" on="0"/>
        <pt x="395" y="777" on="0"/>
        <pt x="346" y="777" on="1"/>
        <pt x="294" y="777" on="0"/>
        <pt x="208" y="715" on="0"/>
        <pt x="146" y="611" on="0"/>
        <pt x="112" y="476" on="0"/>
        <pt x="112" y="404" on="1"/>
        <pt x="112" y="331" on="0"/>
        <pt x="140" y="201" on="0"/>
        <pt x="197" y="104" on="0"/>
        <pt x="283" y="48" on="0"/>
        <pt x="340" y="48" on="1"/>
        <pt x="384" y="48" on="0"/>
        <pt x="456" y="72" on="0"/>
        <pt x="509" y="114" on="0"/>
        <pt x="543" y="170" on="0"/>
        <pt x="549" y="203" on="1"/>
        <pt x="553" y="223" on="0"/>
        <pt x="563" y="249" on="0"/>
        <pt x="581" y="249" on="1"/>
        <pt x="610" y="249" on="0"/>
      </contour>
    </TTGlyph>
    <TTGlyph name="Cacute" xMin="37" yMin="-14" xMax="610" yMax="972">
      <contour>
        <pt x="441" y="941" on="1"/>
        <pt x="441" y="929" on="0"/>
        <pt x="413" y="899" on="0"/>
        <pt x="376" y="872" on="0"/>
        <pt x="337" y="854" on="0"/>
        <pt x="327" y="854" on="1"/>
        <pt x="316" y="854" on="0"/>
        <pt x="303" y="867" on="0"/>
        <pt x="303" y="877" on="1"/>
        <pt x="303" y="887" on="0"/>
        <pt x="328" y="919" on="0"/>
        <pt x="362" y="950" on="0"/>
        <pt x="398" y="972" on="0"/>
        <pt x="409" y="972" on="1"/>
        <pt x="424" y="972" on="0"/>
        <pt x="441" y="955" on="0"/>
      </contour>
      <contour>
        <pt x="610" y="219" on="1"/>
        <pt x="610" y="187" on="0"/>
        <pt x="579" y="107" on="0"/>
        <pt x="513" y="35" on="0"/>
        <pt x="407" y="-14" on="0"/>
        <pt x="332" y="-14" on="1"/>
        <pt x="278" y="-14" on="0"/>
        <pt x="172" y="33" on="0"/>
        <pt x="88" y="134" on="0"/>
        <pt x="37" y="293" on="0"/>
        <pt x="37" y="405" on="1"/>
        <pt x="37" y="496" on="0"/>
        <pt x="86" y="654" on="0"/>
        <pt x="170" y="771" on="0"/>
        <pt x="282" y="838" on="0"/>
        <pt x="345" y="838" on="1"/>
        <pt x="386" y="838" on="0"/>
        <pt x="450" y="811" on="0"/>
        <pt x="496" y="771" on="0"/>
        <pt x="525" y="723" on="0"/>
        <pt x="533" y="702" on="1"/>
        <pt x="531" y="733" on="0"/>
        <pt x="529" y="767" on="0"/>
        <pt x="528" y="784" on="0"/>
        <pt x="528" y="788" on="0"/>
        <pt x="528" y="788" on="1"/>
        <pt x="528" y="800" on="0"/>
        <pt x="543" y="823" on="0"/>
        <pt x="561" y="823" on="1"/>
        <pt x="573" y="823" on="0"/>
        <pt x="588" y="815" on="0"/>
        <pt x="595" y="805" on="0"/>
        <pt x="597" y="793" on="0"/>
        <pt x="597" y="790" on="1"/>
        <pt x="597" y="755" on="0"/>
        <pt x="593" y="670" on="0"/>
        <pt x="593" y="634" on="1"/>
        <pt x="593" y="602" on="0"/>
        <pt x="595" y="534" on="0"/>
        <pt x="595" y="502" on="1"/>
        <pt x="595" y="493" on="0"/>
        <pt x="583" y="468" on="0"/>
        <pt x="561" y="468" on="1"/>
        <pt x="543" y="468" on="0"/>
        <pt x="525" y="490" on="0"/>
        <pt x="525" y="527" on="1"/>
        <pt x="525" y="576" on="0"/>
        <pt x="506" y="667" on="0"/>
        <pt x="463" y="736" on="0"/>
        <pt x="395" y="777" on="0"/>
        <pt x="346" y="777" on="1"/>
        <pt x="294" y="777" on="0"/>
        <pt x="208" y="715" on="0"/>
        <pt x="146" y="611" on="0"/>
        <pt x="112" y="476" on="0"/>
        <pt x="112" y="404" on="1"/>
        <pt x="112" y="331" on="0"/>
        <pt x="140" y="201" on="0"/>
        <pt x="197" y="104" on="0"/>
        <pt x="283" y="48" on="0"/>
        <pt x="340" y="48" on="1"/>
        <pt x="384" y="48" on="0"/>
        <pt x="456" y="72" on="0"/>
        <pt x="509" y="114" on="0"/>
        <pt x="543" y="170" on="0"/>
        <pt x="549" y="203" on="1"/>
        <pt x="553" y="223" on="0"/>
        <pt x="563" y="249" on="0"/>
        <pt x="581" y="249" on="1"/>
        <pt x="610" y="249" on="0"/>
      </contour>
    </TTGlyph>
    <TTGlyph name="Ccaron" xMin="37" yMin="-14" xMax="610" yMax="972">
      <contour>
        <pt x="461" y="972" on="1"/>
        <pt x="467" y="972" on="0"/>
        <pt x="472" y="962" on="0"/>
        <pt x="472" y="955" on="1"/>
        <pt x="472" y="941" on="0"/>
        <pt x="438" y="904" on="0"/>
        <pt x="393" y="871" on="0"/>
        <pt x="350" y="847" on="0"/>
        <pt x="341" y="847" on="1"/>
        <pt x="333" y="847" on="0"/>
        <pt x="291" y="870" on="0"/>
        <pt x="246" y="904" on="0"/>
        <pt x="211" y="943" on="0"/>
        <pt x="211" y="959" on="1"/>
        <pt x="211" y="972" on="0"/>
        <pt x="222" y="972" on="1"/>
        <pt x="227" y="972" on="0"/>
        <pt x="253" y="964" on="0"/>
        <pt x="286" y="950" on="0"/>
        <pt x="324" y="931" on="0"/>
        <pt x="341" y="921" on="1"/>
        <pt x="358" y="931" on="0"/>
        <pt x="396" y="950" on="0"/>
        <pt x="430" y="964" on="0"/>
        <pt x="456" y="972" on="0"/>
      </contour>
      <contour>
        <pt x="610" y="219" on="1"/>
        <pt x="610" y="187" on="0"/>
        <pt x="579" y="107" on="0"/>
        <pt x="513" y="35" on="0"/>
        <pt x="407" y="-14" on="0"/>
        <pt x="332" y="-14" on="1"/>
        <pt x="278" y="-14" on="0"/>
        <pt x="172" y="33" on="0"/>
        <pt x="88" y="134" on="0"/>
        <pt x="37" y="293" on="0"/>
        <pt x="37" y="405" on="1"/>
        <pt x="37" y="496" on="0"/>
        <pt x="86" y="654" on="0"/>
        <pt x="170" y="771" on="0"/>
        <pt x="282" y="838" on="0"/>
        <pt x="345" y="838" on="1"/>
        <pt x="386" y="838" on="0"/>
        <pt x="450" y="811" on="0"/>
        <pt x="496" y="771" on="0"/>
        <pt x="525" y="723" on="0"/>
        <pt x="533" y="702" on="1"/>
        <pt x="531" y="733" on="0"/>
        <pt x="529" y="767" on="0"/>
        <pt x="528" y="784" on="0"/>
        <pt x="528" y="788" on="0"/>
        <pt x="528" y="788" on="1"/>
        <pt x="528" y="800" on="0"/>
        <pt x="543" y="823" on="0"/>
        <pt x="561" y="823" on="1"/>
        <pt x="573" y="823" on="0"/>
        <pt x="588" y="815" on="0"/>
        <pt x="595" y="805" on="0"/>
        <pt x="597" y="793" on="0"/>
        <pt x="597" y="790" on="1"/>
        <pt x="597" y="755" on="0"/>
        <pt x="593" y="670" on="0"/>
        <pt x="593" y="634" on="1"/>
        <pt x="593" y="602" on="0"/>
        <pt x="595" y="534" on="0"/>
        <pt x="595" y="502" on="1"/>
        <pt x="595" y="493" on="0"/>
        <pt x="583" y="468" on="0"/>
        <pt x="561" y="468" on="1"/>
        <pt x="543" y="468" on="0"/>
        <pt x="525" y="490" on="0"/>
        <pt x="525" y="527" on="1"/>
        <pt x="525" y="576" on="0"/>
        <pt x="506" y="667" on="0"/>
        <pt x="463" y="736" on="0"/>
        <pt x="395" y="777" on="0"/>
        <pt x="346" y="777" on="1"/>
        <pt x="294" y="777" on="0"/>
        <pt x="208" y="715" on="0"/>
        <pt x="146" y="611" on="0"/>
        <pt x="112" y="476" on="0"/>
        <pt x="112" y="404" on="1"/>
        <pt x="112" y="331" on="0"/>
        <pt x="140" y="201" on="0"/>
        <pt x="197" y="104" on="0"/>
        <pt x="283" y="48" on="0"/>
        <pt x="340" y="48" on="1"/>
        <pt x="384" y="48" on="0"/>
        <pt x="456" y="72" on="0"/>
        <pt x="509" y="114" on="0"/>
        <pt x="543" y="170" on="0"/>
        <pt x="549" y="203" on="1"/>
        <pt x="553" y="223" on="0"/>
        <pt x="563" y="249" on="0"/>
        <pt x="581" y="249" on="1"/>
        <pt x="610" y="249" on="0"/>
      </contour>
    </TTGlyph>
    <TTGlyph name="Ccedilla" xMin="37" yMin="-181" xMax="610" yMax="838">
      <component glyphName=".ttfautohint" x="37" y="0" flags="0x0"/>
      <component glyphName="C" x="0" y="0" flags="0x204"/>
      <component glyphName="cedilla" x="316" y="0" flags="0x4"/>
    </TTGlyph>
    <TTGlyph name="Ccircumflex" xMin="37" yMin="-14" xMax="610" yMax="972">
      <contour>
        <pt x="461" y="847" on="1"/>
        <pt x="456" y="847" on="0"/>
        <pt x="430" y="855" on="0"/>
        <pt x="396" y="869" on="0"/>
        <pt x="358" y="888" on="0"/>
        <pt x="341" y="898" on="1"/>
        <pt x="324" y="888" on="0"/>
        <pt x="286" y="869" on="0"/>
        <pt x="253" y="855" on="0"/>
        <pt x="227" y="847" on="0"/>
        <pt x="222" y="847" on="1"/>
        <pt x="211" y="847" on="0"/>
        <pt x="211" y="860" on="1"/>
        <pt x="211" y="876" on="0"/>
        <pt x="246" y="915" on="0"/>
        <pt x="291" y="949" on="0"/>
        <pt x="333" y="972" on="0"/>
        <pt x="341" y="972" on="1"/>
        <pt x="350" y="972" on="0"/>
        <pt x="393" y="948" on="0"/>
        <pt x="438" y="915" on="0"/>
        <pt x="472" y="877" on="0"/>
        <pt x="472" y="864" on="1"/>
        <pt x="472" y="857" on="0"/>
        <pt x="467" y="847" on="0"/>
      </contour>
      <contour>
        <pt x="610" y="219" on="1"/>
        <pt x="610" y="187" on="0"/>
        <pt x="579" y="107" on="0"/>
        <pt x="513" y="35" on="0"/>
        <pt x="407" y="-14" on="0"/>
        <pt x="332" y="-14" on="1"/>
        <pt x="278" y="-14" on="0"/>
        <pt x="172" y="33" on="0"/>
        <pt x="88" y="134" on="0"/>
        <pt x="37" y="293" on="0"/>
        <pt x="37" y="405" on="1"/>
        <pt x="37" y="496" on="0"/>
        <pt x="86" y="654" on="0"/>
        <pt x="170" y="771" on="0"/>
        <pt x="282" y="838" on="0"/>
        <pt x="345" y="838" on="1"/>
        <pt x="386" y="838" on="0"/>
        <pt x="450" y="811" on="0"/>
        <pt x="496" y="771" on="0"/>
        <pt x="525" y="723" on="0"/>
        <pt x="533" y="702" on="1"/>
        <pt x="531" y="733" on="0"/>
        <pt x="529" y="767" on="0"/>
        <pt x="528" y="784" on="0"/>
        <pt x="528" y="788" on="0"/>
        <pt x="528" y="788" on="1"/>
        <pt x="528" y="800" on="0"/>
        <pt x="543" y="823" on="0"/>
        <pt x="561" y="823" on="1"/>
        <pt x="573" y="823" on="0"/>
        <pt x="588" y="815" on="0"/>
        <pt x="595" y="805" on="0"/>
        <pt x="597" y="793" on="0"/>
        <pt x="597" y="790" on="1"/>
        <pt x="597" y="755" on="0"/>
        <pt x="593" y="670" on="0"/>
        <pt x="593" y="634" on="1"/>
        <pt x="593" y="602" on="0"/>
        <pt x="595" y="534" on="0"/>
        <pt x="595" y="502" on="1"/>
        <pt x="595" y="493" on="0"/>
        <pt x="583" y="468" on="0"/>
        <pt x="561" y="468" on="1"/>
        <pt x="543" y="468" on="0"/>
        <pt x="525" y="490" on="0"/>
        <pt x="525" y="527" on="1"/>
        <pt x="525" y="576" on="0"/>
        <pt x="506" y="667" on="0"/>
        <pt x="463" y="736" on="0"/>
        <pt x="395" y="777" on="0"/>
        <pt x="346" y="777" on="1"/>
        <pt x="294" y="777" on="0"/>
        <pt x="208" y="715" on="0"/>
        <pt x="146" y="611" on="0"/>
        <pt x="112" y="476" on="0"/>
        <pt x="112" y="404" on="1"/>
        <pt x="112" y="331" on="0"/>
        <pt x="140" y="201" on="0"/>
        <pt x="197" y="104" on="0"/>
        <pt x="283" y="48" on="0"/>
        <pt x="340" y="48" on="1"/>
        <pt x="384" y="48" on="0"/>
        <pt x="456" y="72" on="0"/>
        <pt x="509" y="114" on="0"/>
        <pt x="543" y="170" on="0"/>
        <pt x="549" y="203" on="1"/>
        <pt x="553" y="223" on="0"/>
        <pt x="563" y="249" on="0"/>
        <pt x="581" y="249" on="1"/>
        <pt x="610" y="249" on="0"/>
      </contour>
    </TTGlyph>
    <TTGlyph name="Cdotaccent" xMin="37" yMin="-14" xMax="610" yMax="972">
      <component glyphName=".ttfautohint" x="37" y="0" flags="0x0"/>
      <component glyphName="C" x="0" y="0" flags="0x204"/>
      <component glyphName="dotaccent" x="281" y="336" flags="0x4"/>
    </TTGlyph>
    <TTGlyph name="D" xMin="39" yMin="0" xMax="662" yMax="821">
      <contour>
        <pt x="63" y="818" on="1"/>
        <pt x="113" y="820" on="0"/>
        <pt x="218" y="821" on="0"/>
        <pt x="279" y="821" on="1"/>
        <pt x="342" y="821" on="0"/>
        <pt x="478" y="781" on="0"/>
        <pt x="590" y="691" on="0"/>
        <pt x="662" y="545" on="0"/>
        <pt x="662" y="439" on="1"/>
        <pt x="662" y="349" on="0"/>
        <pt x="613" y="189" on="0"/>
        <pt x="515" y="70" on="0"/>
        <pt x="367" y="0" on="0"/>
        <pt x="269" y="0" on="1"/>
        <pt x="75" y="0" on="1"/>
        <pt x="58" y="0" on="0"/>
        <pt x="39" y="11" on="0"/>
        <pt x="39" y="24" on="1"/>
        <pt x="39" y="37" on="0"/>
        <pt x="53" y="48" on="0"/>
        <pt x="70" y="48" on="1"/>
        <pt x="79" y="48" on="0"/>
        <pt x="102" y="49" on="0"/>
        <pt x="124" y="53" on="0"/>
        <pt x="139" y="63" on="0"/>
        <pt x="139" y="72" on="1"/>
        <pt x="139" y="127" on="0"/>
        <pt x="139" y="203" on="0"/>
        <pt x="140" y="279" on="0"/>
        <pt x="140" y="369" on="0"/>
        <pt x="140" y="437" on="1"/>
        <pt x="140" y="455" on="0"/>
        <pt x="138" y="533" on="0"/>
        <pt x="135" y="621" on="0"/>
        <pt x="133" y="704" on="0"/>
        <pt x="133" y="727" on="1"/>
        <pt x="133" y="742" on="0"/>
        <pt x="122" y="759" on="0"/>
        <pt x="103" y="767" on="0"/>
        <pt x="78" y="769" on="0"/>
        <pt x="65" y="769" on="1"/>
        <pt x="53" y="769" on="0"/>
        <pt x="42" y="784" on="0"/>
        <pt x="42" y="794" on="1"/>
        <pt x="42" y="802" on="0"/>
        <pt x="52" y="817" on="0"/>
      </contour>
      <contour>
        <pt x="273" y="756" on="1"/>
        <pt x="258" y="756" on="0"/>
        <pt x="226" y="753" on="0"/>
        <pt x="211" y="752" on="1"/>
        <pt x="211" y="74" on="1"/>
        <pt x="211" y="70" on="0"/>
        <pt x="224" y="66" on="0"/>
        <pt x="242" y="64" on="0"/>
        <pt x="264" y="64" on="0"/>
        <pt x="273" y="64" on="1"/>
        <pt x="355" y="64" on="0"/>
        <pt x="474" y="121" on="0"/>
        <pt x="551" y="222" on="0"/>
        <pt x="587" y="359" on="0"/>
        <pt x="587" y="439" on="1"/>
        <pt x="587" y="504" on="0"/>
        <pt x="550" y="620" on="0"/>
        <pt x="473" y="706" on="0"/>
        <pt x="355" y="756" on="0"/>
      </contour>
    </TTGlyph>
    <TTGlyph name="Dcaron" xMin="39" yMin="0" xMax="662" yMax="972">
      <contour>
        <pt x="423" y="972" on="1"/>
        <pt x="429" y="972" on="0"/>
        <pt x="434" y="962" on="0"/>
        <pt x="434" y="955" on="1"/>
        <pt x="434" y="941" on="0"/>
        <pt x="400" y="904" on="0"/>
        <pt x="355" y="871" on="0"/>
        <pt x="312" y="847" on="0"/>
        <pt x="303" y="847" on="1"/>
        <pt x="295" y="847" on="0"/>
        <pt x="253" y="870" on="0"/>
        <pt x="208" y="904" on="0"/>
        <pt x="173" y="943" on="0"/>
        <pt x="173" y="959" on="1"/>
        <pt x="173" y="972" on="0"/>
        <pt x="184" y="972" on="1"/>
        <pt x="189" y="972" on="0"/>
        <pt x="215" y="964" on="0"/>
        <pt x="248" y="950" on="0"/>
        <pt x="286" y="931" on="0"/>
        <pt x="303" y="921" on="1"/>
        <pt x="320" y="931" on="0"/>
        <pt x="358" y="950" on="0"/>
        <pt x="392" y="964" on="0"/>
        <pt x="418" y="972" on="0"/>
      </contour>
      <contour>
        <pt x="63" y="818" on="1"/>
        <pt x="113" y="820" on="0"/>
        <pt x="218" y="821" on="0"/>
        <pt x="279" y="821" on="1"/>
        <pt x="342" y="821" on="0"/>
        <pt x="478" y="781" on="0"/>
        <pt x="590" y="691" on="0"/>
        <pt x="662" y="545" on="0"/>
        <pt x="662" y="439" on="1"/>
        <pt x="662" y="349" on="0"/>
        <pt x="613" y="189" on="0"/>
        <pt x="515" y="70" on="0"/>
        <pt x="367" y="0" on="0"/>
        <pt x="269" y="0" on="1"/>
        <pt x="75" y="0" on="1"/>
        <pt x="58" y="0" on="0"/>
        <pt x="39" y="11" on="0"/>
        <pt x="39" y="24" on="1"/>
        <pt x="39" y="37" on="0"/>
        <pt x="53" y="48" on="0"/>
        <pt x="70" y="48" on="1"/>
        <pt x="79" y="48" on="0"/>
        <pt x="102" y="49" on="0"/>
        <pt x="124" y="53" on="0"/>
        <pt x="139" y="63" on="0"/>
        <pt x="139" y="72" on="1"/>
        <pt x="139" y="127" on="0"/>
        <pt x="139" y="203" on="0"/>
        <pt x="140" y="279" on="0"/>
        <pt x="140" y="369" on="0"/>
        <pt x="140" y="437" on="1"/>
        <pt x="140" y="455" on="0"/>
        <pt x="138" y="533" on="0"/>
        <pt x="135" y="621" on="0"/>
        <pt x="133" y="704" on="0"/>
        <pt x="133" y="727" on="1"/>
        <pt x="133" y="742" on="0"/>
        <pt x="122" y="759" on="0"/>
        <pt x="103" y="767" on="0"/>
        <pt x="78" y="769" on="0"/>
        <pt x="65" y="769" on="1"/>
        <pt x="53" y="769" on="0"/>
        <pt x="42" y="784" on="0"/>
        <pt x="42" y="794" on="1"/>
        <pt x="42" y="802" on="0"/>
        <pt x="52" y="817" on="0"/>
      </contour>
      <contour>
        <pt x="273" y="756" on="1"/>
        <pt x="258" y="756" on="0"/>
        <pt x="226" y="753" on="0"/>
        <pt x="211" y="752" on="1"/>
        <pt x="211" y="74" on="1"/>
        <pt x="211" y="70" on="0"/>
        <pt x="224" y="66" on="0"/>
        <pt x="242" y="64" on="0"/>
        <pt x="264" y="64" on="0"/>
        <pt x="273" y="64" on="1"/>
        <pt x="355" y="64" on="0"/>
        <pt x="474" y="121" on="0"/>
        <pt x="551" y="222" on="0"/>
        <pt x="587" y="359" on="0"/>
        <pt x="587" y="439" on="1"/>
        <pt x="587" y="504" on="0"/>
        <pt x="550" y="620" on="0"/>
        <pt x="473" y="706" on="0"/>
        <pt x="355" y="756" on="0"/>
      </contour>
    </TTGlyph>
    <TTGlyph name="Dcroat" xMin="41" yMin="0" xMax="664" yMax="821">
      <contour>
        <pt x="326" y="444" on="1"/>
        <pt x="334" y="444" on="0"/>
        <pt x="347" y="422" on="0"/>
        <pt x="347" y="412" on="1"/>
        <pt x="347" y="408" on="0"/>
        <pt x="344" y="396" on="0"/>
        <pt x="338" y="384" on="0"/>
        <pt x="327" y="375" on="0"/>
        <pt x="318" y="375" on="1"/>
        <pt x="298" y="375" on="0"/>
        <pt x="231" y="375" on="0"/>
        <pt x="159" y="374" on="0"/>
        <pt x="95" y="374" on="0"/>
        <pt x="77" y="374" on="1"/>
        <pt x="66" y="374" on="0"/>
        <pt x="51" y="400" on="0"/>
        <pt x="51" y="409" on="1"/>
        <pt x="51" y="419" on="0"/>
        <pt x="63" y="443" on="0"/>
        <pt x="77" y="443" on="1"/>
        <pt x="84" y="443" on="0"/>
        <pt x="114" y="442" on="0"/>
        <pt x="150" y="442" on="0"/>
        <pt x="185" y="441" on="0"/>
        <pt x="198" y="441" on="1"/>
        <pt x="240" y="441" on="0"/>
        <pt x="302" y="444" on="0"/>
      </contour>
      <contour>
        <pt x="65" y="818" on="1"/>
        <pt x="115" y="820" on="0"/>
        <pt x="220" y="821" on="0"/>
        <pt x="281" y="821" on="1"/>
        <pt x="344" y="821" on="0"/>
        <pt x="480" y="781" on="0"/>
        <pt x="592" y="691" on="0"/>
        <pt x="664" y="545" on="0"/>
        <pt x="664" y="439" on="1"/>
        <pt x="664" y="349" on="0"/>
        <pt x="615" y="189" on="0"/>
        <pt x="517" y="70" on="0"/>
        <pt x="369" y="0" on="0"/>
        <pt x="271" y="0" on="1"/>
        <pt x="77" y="0" on="1"/>
        <pt x="60" y="0" on="0"/>
        <pt x="41" y="11" on="0"/>
        <pt x="41" y="24" on="1"/>
        <pt x="41" y="37" on="0"/>
        <pt x="55" y="48" on="0"/>
        <pt x="72" y="48" on="1"/>
        <pt x="81" y="48" on="0"/>
        <pt x="104" y="49" on="0"/>
        <pt x="126" y="53" on="0"/>
        <pt x="141" y="63" on="0"/>
        <pt x="141" y="72" on="1"/>
        <pt x="141" y="127" on="0"/>
        <pt x="141" y="203" on="0"/>
        <pt x="142" y="279" on="0"/>
        <pt x="142" y="369" on="0"/>
        <pt x="142" y="437" on="1"/>
        <pt x="142" y="455" on="0"/>
        <pt x="140" y="533" on="0"/>
        <pt x="137" y="621" on="0"/>
        <pt x="135" y="704" on="0"/>
        <pt x="135" y="727" on="1"/>
        <pt x="135" y="742" on="0"/>
        <pt x="124" y="759" on="0"/>
        <pt x="105" y="767" on="0"/>
        <pt x="80" y="769" on="0"/>
        <pt x="67" y="769" on="1"/>
        <pt x="55" y="769" on="0"/>
        <pt x="44" y="784" on="0"/>
        <pt x="44" y="794" on="1"/>
        <pt x="44" y="802" on="0"/>
        <pt x="54" y="817" on="0"/>
      </contour>
      <contour>
        <pt x="275" y="756" on="1"/>
        <pt x="260" y="756" on="0"/>
        <pt x="228" y="753" on="0"/>
        <pt x="213" y="752" on="1"/>
        <pt x="213" y="74" on="1"/>
        <pt x="213" y="70" on="0"/>
        <pt x="226" y="66" on="0"/>
        <pt x="244" y="64" on="0"/>
        <pt x="266" y="64" on="0"/>
        <pt x="275" y="64" on="1"/>
        <pt x="357" y="64" on="0"/>
        <pt x="476" y="121" on="0"/>
        <pt x="553" y="222" on="0"/>
        <pt x="589" y="359" on="0"/>
        <pt x="589" y="439" on="1"/>
        <pt x="589" y="504" on="0"/>
        <pt x="552" y="620" on="0"/>
        <pt x="475" y="706" on="0"/>
        <pt x="357" y="756" on="0"/>
      </contour>
    </TTGlyph>
    <TTGlyph name="E" xMin="38" yMin="0" xMax="632" yMax="821">
      <contour>
        <pt x="602" y="315" on="1"/>
        <pt x="616" y="315" on="0"/>
        <pt x="632" y="297" on="0"/>
        <pt x="632" y="282" on="1"/>
        <pt x="632" y="273" on="0"/>
        <pt x="629" y="216" on="0"/>
        <pt x="624" y="142" on="0"/>
        <pt x="619" y="63" on="0"/>
        <pt x="616" y="33" on="1"/>
        <pt x="614" y="8" on="0"/>
        <pt x="594" y="0" on="0"/>
        <pt x="574" y="0" on="1"/>
        <pt x="513" y="0" on="0"/>
        <pt x="398" y="2" on="0"/>
        <pt x="337" y="2" on="1"/>
        <pt x="276" y="2" on="0"/>
        <pt x="145" y="0" on="0"/>
        <pt x="84" y="0" on="1"/>
        <pt x="67" y="0" on="0"/>
        <pt x="38" y="7" on="0"/>
        <pt x="38" y="21" on="1"/>
        <pt x="38" y="37" on="0"/>
        <pt x="57" y="48" on="0"/>
        <pt x="77" y="48" on="1"/>
        <pt x="106" y="48" on="0"/>
        <pt x="138" y="63" on="0"/>
        <pt x="138" y="84" on="1"/>
        <pt x="138" y="117" on="0"/>
        <pt x="138" y="167" on="0"/>
        <pt x="139" y="211" on="0"/>
        <pt x="139" y="255" on="0"/>
        <pt x="140" y="309" on="0"/>
        <pt x="140" y="377" on="0"/>
        <pt x="140" y="425" on="1"/>
        <pt x="140" y="478" on="0"/>
        <pt x="138" y="562" on="0"/>
        <pt x="136" y="634" on="0"/>
        <pt x="134" y="698" on="0"/>
        <pt x="134" y="730" on="1"/>
        <pt x="134" y="745" on="0"/>
        <pt x="122" y="760" on="0"/>
        <pt x="105" y="768" on="0"/>
        <pt x="87" y="769" on="0"/>
        <pt x="81" y="769" on="1"/>
        <pt x="64" y="769" on="0"/>
        <pt x="41" y="781" on="0"/>
        <pt x="41" y="794" on="1"/>
        <pt x="41" y="812" on="0"/>
        <pt x="67" y="821" on="0"/>
        <pt x="82" y="821" on="1"/>
        <pt x="115" y="821" on="0"/>
        <pt x="188" y="820" on="0"/>
        <pt x="256" y="820" on="0"/>
        <pt x="314" y="819" on="0"/>
        <pt x="333" y="819" on="1"/>
        <pt x="370" y="819" on="0"/>
        <pt x="417" y="820" on="0"/>
        <pt x="462" y="820" on="0"/>
        <pt x="516" y="821" on="0"/>
        <pt x="560" y="821" on="1"/>
        <pt x="574" y="821" on="0"/>
        <pt x="588" y="806" on="0"/>
        <pt x="588" y="785" on="1"/>
        <pt x="588" y="646" on="1"/>
        <pt x="588" y="622" on="0"/>
        <pt x="574" y="600" on="0"/>
        <pt x="557" y="600" on="1"/>
        <pt x="535" y="600" on="0"/>
        <pt x="521" y="626" on="0"/>
        <pt x="521" y="640" on="1"/>
        <pt x="521" y="727" on="1"/>
        <pt x="521" y="737" on="0"/>
        <pt x="513" y="749" on="0"/>
        <pt x="502" y="754" on="0"/>
        <pt x="489" y="755" on="0"/>
        <pt x="484" y="755" on="1"/>
        <pt x="211" y="755" on="1"/>
        <pt x="211" y="455" on="1"/>
        <pt x="239" y="454" on="0"/>
        <pt x="281" y="452" on="0"/>
        <pt x="310" y="452" on="1"/>
        <pt x="322" y="452" on="0"/>
        <pt x="351" y="453" on="0"/>
        <pt x="378" y="454" on="0"/>
        <pt x="399" y="455" on="0"/>
        <pt x="403" y="455" on="1"/>
        <pt x="409" y="455" on="0"/>
        <pt x="416" y="473" on="0"/>
        <pt x="419" y="498" on="0"/>
        <pt x="420" y="524" on="0"/>
        <pt x="420" y="532" on="1"/>
        <pt x="420" y="543" on="0"/>
        <pt x="434" y="566" on="0"/>
        <pt x="452" y="566" on="1"/>
        <pt x="466" y="566" on="0"/>
        <pt x="484" y="552" on="0"/>
        <pt x="484" y="535" on="1"/>
        <pt x="484" y="506" on="0"/>
        <pt x="482" y="449" on="0"/>
        <pt x="482" y="420" on="1"/>
        <pt x="482" y="391" on="0"/>
        <pt x="484" y="332" on="0"/>
        <pt x="484" y="304" on="1"/>
        <pt x="484" y="287" on="0"/>
        <pt x="466" y="277" on="0"/>
        <pt x="453" y="277" on="1"/>
        <pt x="434" y="277" on="0"/>
        <pt x="422" y="293" on="0"/>
        <pt x="422" y="306" on="1"/>
        <pt x="422" y="317" on="0"/>
        <pt x="418" y="345" on="0"/>
        <pt x="407" y="370" on="0"/>
        <pt x="389" y="387" on="0"/>
        <pt x="374" y="387" on="1"/>
        <pt x="363" y="387" on="0"/>
        <pt x="333" y="388" on="0"/>
        <pt x="310" y="388" on="1"/>
        <pt x="281" y="388" on="0"/>
        <pt x="240" y="387" on="0"/>
        <pt x="211" y="386" on="1"/>
        <pt x="211" y="66" on="1"/>
        <pt x="510" y="66" on="1"/>
        <pt x="517" y="66" on="0"/>
        <pt x="532" y="68" on="0"/>
        <pt x="544" y="75" on="0"/>
        <pt x="552" y="90" on="0"/>
        <pt x="553" y="103" on="1"/>
        <pt x="554" y="115" on="0"/>
        <pt x="558" y="159" on="0"/>
        <pt x="562" y="210" on="0"/>
        <pt x="565" y="260" on="0"/>
        <pt x="566" y="278" on="1"/>
        <pt x="567" y="299" on="0"/>
        <pt x="589" y="315" on="0"/>
      </contour>
    </TTGlyph>
    <TTGlyph name="Eacute" xMin="38" yMin="0" xMax="632" yMax="972">
      <contour>
        <pt x="429" y="941" on="1"/>
        <pt x="429" y="929" on="0"/>
        <pt x="401" y="899" on="0"/>
        <pt x="364" y="872" on="0"/>
        <pt x="325" y="854" on="0"/>
        <pt x="315" y="854" on="1"/>
        <pt x="304" y="854" on="0"/>
        <pt x="291" y="867" on="0"/>
        <pt x="291" y="877" on="1"/>
        <pt x="291" y="887" on="0"/>
        <pt x="316" y="919" on="0"/>
        <pt x="350" y="950" on="0"/>
        <pt x="386" y="972" on="0"/>
        <pt x="397" y="972" on="1"/>
        <pt x="412" y="972" on="0"/>
        <pt x="429" y="955" on="0"/>
      </contour>
      <contour>
        <pt x="602" y="315" on="1"/>
        <pt x="616" y="315" on="0"/>
        <pt x="632" y="297" on="0"/>
        <pt x="632" y="282" on="1"/>
        <pt x="632" y="273" on="0"/>
        <pt x="629" y="216" on="0"/>
        <pt x="624" y="142" on="0"/>
        <pt x="619" y="63" on="0"/>
        <pt x="616" y="33" on="1"/>
        <pt x="614" y="8" on="0"/>
        <pt x="594" y="0" on="0"/>
        <pt x="574" y="0" on="1"/>
        <pt x="513" y="0" on="0"/>
        <pt x="398" y="2" on="0"/>
        <pt x="337" y="2" on="1"/>
        <pt x="276" y="2" on="0"/>
        <pt x="145" y="0" on="0"/>
        <pt x="84" y="0" on="1"/>
        <pt x="67" y="0" on="0"/>
        <pt x="38" y="7" on="0"/>
        <pt x="38" y="21" on="1"/>
        <pt x="38" y="37" on="0"/>
        <pt x="57" y="48" on="0"/>
        <pt x="77" y="48" on="1"/>
        <pt x="106" y="48" on="0"/>
        <pt x="138" y="63" on="0"/>
        <pt x="138" y="84" on="1"/>
        <pt x="138" y="117" on="0"/>
        <pt x="138" y="167" on="0"/>
        <pt x="139" y="211" on="0"/>
        <pt x="139" y="255" on="0"/>
        <pt x="140" y="309" on="0"/>
        <pt x="140" y="377" on="0"/>
        <pt x="140" y="425" on="1"/>
        <pt x="140" y="478" on="0"/>
        <pt x="138" y="562" on="0"/>
        <pt x="136" y="634" on="0"/>
        <pt x="134" y="698" on="0"/>
        <pt x="134" y="730" on="1"/>
        <pt x="134" y="745" on="0"/>
        <pt x="122" y="760" on="0"/>
        <pt x="105" y="768" on="0"/>
        <pt x="87" y="769" on="0"/>
        <pt x="81" y="769" on="1"/>
        <pt x="64" y="769" on="0"/>
        <pt x="41" y="781" on="0"/>
        <pt x="41" y="794" on="1"/>
        <pt x="41" y="812" on="0"/>
        <pt x="67" y="821" on="0"/>
        <pt x="82" y="821" on="1"/>
        <pt x="115" y="821" on="0"/>
        <pt x="188" y="820" on="0"/>
        <pt x="256" y="820" on="0"/>
        <pt x="314" y="819" on="0"/>
        <pt x="333" y="819" on="1"/>
        <pt x="370" y="819" on="0"/>
        <pt x="417" y="820" on="0"/>
        <pt x="462" y="820" on="0"/>
        <pt x="516" y="821" on="0"/>
        <pt x="560" y="821" on="1"/>
        <pt x="574" y="821" on="0"/>
        <pt x="588" y="806" on="0"/>
        <pt x="588" y="785" on="1"/>
        <pt x="588" y="646" on="1"/>
        <pt x="588" y="622" on="0"/>
        <pt x="574" y="600" on="0"/>
        <pt x="557" y="600" on="1"/>
        <pt x="535" y="600" on="0"/>
        <pt x="521" y="626" on="0"/>
        <pt x="521" y="640" on="1"/>
        <pt x="521" y="727" on="1"/>
        <pt x="521" y="737" on="0"/>
        <pt x="513" y="749" on="0"/>
        <pt x="502" y="754" on="0"/>
        <pt x="489" y="755" on="0"/>
        <pt x="484" y="755" on="1"/>
        <pt x="211" y="755" on="1"/>
        <pt x="211" y="455" on="1"/>
        <pt x="239" y="454" on="0"/>
        <pt x="281" y="452" on="0"/>
        <pt x="310" y="452" on="1"/>
        <pt x="322" y="452" on="0"/>
        <pt x="351" y="453" on="0"/>
        <pt x="378" y="454" on="0"/>
        <pt x="399" y="455" on="0"/>
        <pt x="403" y="455" on="1"/>
        <pt x="409" y="455" on="0"/>
        <pt x="416" y="473" on="0"/>
        <pt x="419" y="498" on="0"/>
        <pt x="420" y="524" on="0"/>
        <pt x="420" y="532" on="1"/>
        <pt x="420" y="543" on="0"/>
        <pt x="434" y="566" on="0"/>
        <pt x="452" y="566" on="1"/>
        <pt x="466" y="566" on="0"/>
        <pt x="484" y="552" on="0"/>
        <pt x="484" y="535" on="1"/>
        <pt x="484" y="506" on="0"/>
        <pt x="482" y="449" on="0"/>
        <pt x="482" y="420" on="1"/>
        <pt x="482" y="391" on="0"/>
        <pt x="484" y="332" on="0"/>
        <pt x="484" y="304" on="1"/>
        <pt x="484" y="287" on="0"/>
        <pt x="466" y="277" on="0"/>
        <pt x="453" y="277" on="1"/>
        <pt x="434" y="277" on="0"/>
        <pt x="422" y="293" on="0"/>
        <pt x="422" y="306" on="1"/>
        <pt x="422" y="317" on="0"/>
        <pt x="418" y="345" on="0"/>
        <pt x="407" y="370" on="0"/>
        <pt x="389" y="387" on="0"/>
        <pt x="374" y="387" on="1"/>
        <pt x="363" y="387" on="0"/>
        <pt x="333" y="388" on="0"/>
        <pt x="310" y="388" on="1"/>
        <pt x="281" y="388" on="0"/>
        <pt x="240" y="387" on="0"/>
        <pt x="211" y="386" on="1"/>
        <pt x="211" y="66" on="1"/>
        <pt x="510" y="66" on="1"/>
        <pt x="517" y="66" on="0"/>
        <pt x="532" y="68" on="0"/>
        <pt x="544" y="75" on="0"/>
        <pt x="552" y="90" on="0"/>
        <pt x="553" y="103" on="1"/>
        <pt x="554" y="115" on="0"/>
        <pt x="558" y="159" on="0"/>
        <pt x="562" y="210" on="0"/>
        <pt x="565" y="260" on="0"/>
        <pt x="566" y="278" on="1"/>
        <pt x="567" y="299" on="0"/>
        <pt x="589" y="315" on="0"/>
      </contour>
    </TTGlyph>
    <TTGlyph name="Ebreve" xMin="38" yMin="0" xMax="632" yMax="972">
      <component glyphName=".ttfautohint" x="38" y="0" flags="0x0"/>
      <component glyphName="E" x="0" y="0" flags="0x204"/>
      <component glyphName="breve" x="241" y="355" flags="0x4"/>
    </TTGlyph>
    <TTGlyph name="Ecaron" xMin="38" yMin="0" xMax="632" yMax="972">
      <contour>
        <pt x="468" y="972" on="1"/>
        <pt x="474" y="972" on="0"/>
        <pt x="479" y="962" on="0"/>
        <pt x="479" y="955" on="1"/>
        <pt x="479" y="941" on="0"/>
        <pt x="445" y="904" on="0"/>
        <pt x="400" y="871" on="0"/>
        <pt x="357" y="847" on="0"/>
        <pt x="348" y="847" on="1"/>
        <pt x="340" y="847" on="0"/>
        <pt x="298" y="870" on="0"/>
        <pt x="253" y="904" on="0"/>
        <pt x="218" y="943" on="0"/>
        <pt x="218" y="959" on="1"/>
        <pt x="218" y="972" on="0"/>
        <pt x="229" y="972" on="1"/>
        <pt x="234" y="972" on="0"/>
        <pt x="260" y="964" on="0"/>
        <pt x="293" y="950" on="0"/>
        <pt x="331" y="931" on="0"/>
        <pt x="348" y="921" on="1"/>
        <pt x="365" y="931" on="0"/>
        <pt x="403" y="950" on="0"/>
        <pt x="437" y="964" on="0"/>
        <pt x="463" y="972" on="0"/>
      </contour>
      <contour>
        <pt x="602" y="315" on="1"/>
        <pt x="616" y="315" on="0"/>
        <pt x="632" y="297" on="0"/>
        <pt x="632" y="282" on="1"/>
        <pt x="632" y="273" on="0"/>
        <pt x="629" y="216" on="0"/>
        <pt x="624" y="142" on="0"/>
        <pt x="619" y="63" on="0"/>
        <pt x="616" y="33" on="1"/>
        <pt x="614" y="8" on="0"/>
        <pt x="594" y="0" on="0"/>
        <pt x="574" y="0" on="1"/>
        <pt x="513" y="0" on="0"/>
        <pt x="398" y="2" on="0"/>
        <pt x="337" y="2" on="1"/>
        <pt x="276" y="2" on="0"/>
        <pt x="145" y="0" on="0"/>
        <pt x="84" y="0" on="1"/>
        <pt x="67" y="0" on="0"/>
        <pt x="38" y="7" on="0"/>
        <pt x="38" y="21" on="1"/>
        <pt x="38" y="37" on="0"/>
        <pt x="57" y="48" on="0"/>
        <pt x="77" y="48" on="1"/>
        <pt x="106" y="48" on="0"/>
        <pt x="138" y="63" on="0"/>
        <pt x="138" y="84" on="1"/>
        <pt x="138" y="117" on="0"/>
        <pt x="138" y="167" on="0"/>
        <pt x="139" y="211" on="0"/>
        <pt x="139" y="255" on="0"/>
        <pt x="140" y="309" on="0"/>
        <pt x="140" y="377" on="0"/>
        <pt x="140" y="425" on="1"/>
        <pt x="140" y="478" on="0"/>
        <pt x="138" y="562" on="0"/>
        <pt x="136" y="634" on="0"/>
        <pt x="134" y="698" on="0"/>
        <pt x="134" y="730" on="1"/>
        <pt x="134" y="745" on="0"/>
        <pt x="122" y="760" on="0"/>
        <pt x="105" y="768" on="0"/>
        <pt x="87" y="769" on="0"/>
        <pt x="81" y="769" on="1"/>
        <pt x="64" y="769" on="0"/>
        <pt x="41" y="781" on="0"/>
        <pt x="41" y="794" on="1"/>
        <pt x="41" y="812" on="0"/>
        <pt x="67" y="821" on="0"/>
        <pt x="82" y="821" on="1"/>
        <pt x="115" y="821" on="0"/>
        <pt x="188" y="820" on="0"/>
        <pt x="256" y="820" on="0"/>
        <pt x="314" y="819" on="0"/>
        <pt x="333" y="819" on="1"/>
        <pt x="370" y="819" on="0"/>
        <pt x="417" y="820" on="0"/>
        <pt x="462" y="820" on="0"/>
        <pt x="516" y="821" on="0"/>
        <pt x="560" y="821" on="1"/>
        <pt x="574" y="821" on="0"/>
        <pt x="588" y="806" on="0"/>
        <pt x="588" y="785" on="1"/>
        <pt x="588" y="646" on="1"/>
        <pt x="588" y="622" on="0"/>
        <pt x="574" y="600" on="0"/>
        <pt x="557" y="600" on="1"/>
        <pt x="535" y="600" on="0"/>
        <pt x="521" y="626" on="0"/>
        <pt x="521" y="640" on="1"/>
        <pt x="521" y="727" on="1"/>
        <pt x="521" y="737" on="0"/>
        <pt x="513" y="749" on="0"/>
        <pt x="502" y="754" on="0"/>
        <pt x="489" y="755" on="0"/>
        <pt x="484" y="755" on="1"/>
        <pt x="211" y="755" on="1"/>
        <pt x="211" y="455" on="1"/>
        <pt x="239" y="454" on="0"/>
        <pt x="281" y="452" on="0"/>
        <pt x="310" y="452" on="1"/>
        <pt x="322" y="452" on="0"/>
        <pt x="351" y="453" on="0"/>
        <pt x="378" y="454" on="0"/>
        <pt x="399" y="455" on="0"/>
        <pt x="403" y="455" on="1"/>
        <pt x="409" y="455" on="0"/>
        <pt x="416" y="473" on="0"/>
        <pt x="419" y="498" on="0"/>
        <pt x="420" y="524" on="0"/>
        <pt x="420" y="532" on="1"/>
        <pt x="420" y="543" on="0"/>
        <pt x="434" y="566" on="0"/>
        <pt x="452" y="566" on="1"/>
        <pt x="466" y="566" on="0"/>
        <pt x="484" y="552" on="0"/>
        <pt x="484" y="535" on="1"/>
        <pt x="484" y="506" on="0"/>
        <pt x="482" y="449" on="0"/>
        <pt x="482" y="420" on="1"/>
        <pt x="482" y="391" on="0"/>
        <pt x="484" y="332" on="0"/>
        <pt x="484" y="304" on="1"/>
        <pt x="484" y="287" on="0"/>
        <pt x="466" y="277" on="0"/>
        <pt x="453" y="277" on="1"/>
        <pt x="434" y="277" on="0"/>
        <pt x="422" y="293" on="0"/>
        <pt x="422" y="306" on="1"/>
        <pt x="422" y="317" on="0"/>
        <pt x="418" y="345" on="0"/>
        <pt x="407" y="370" on="0"/>
        <pt x="389" y="387" on="0"/>
        <pt x="374" y="387" on="1"/>
        <pt x="363" y="387" on="0"/>
        <pt x="333" y="388" on="0"/>
        <pt x="310" y="388" on="1"/>
        <pt x="281" y="388" on="0"/>
        <pt x="240" y="387" on="0"/>
        <pt x="211" y="386" on="1"/>
        <pt x="211" y="66" on="1"/>
        <pt x="510" y="66" on="1"/>
        <pt x="517" y="66" on="0"/>
        <pt x="532" y="68" on="0"/>
        <pt x="544" y="75" on="0"/>
        <pt x="552" y="90" on="0"/>
        <pt x="553" y="103" on="1"/>
        <pt x="554" y="115" on="0"/>
        <pt x="558" y="159" on="0"/>
        <pt x="562" y="210" on="0"/>
        <pt x="565" y="260" on="0"/>
        <pt x="566" y="278" on="1"/>
        <pt x="567" y="299" on="0"/>
        <pt x="589" y="315" on="0"/>
      </contour>
    </TTGlyph>
    <TTGlyph name="Ecircumflex" xMin="38" yMin="0" xMax="632" yMax="972">
      <contour>
        <pt x="468" y="847" on="1"/>
        <pt x="463" y="847" on="0"/>
        <pt x="437" y="855" on="0"/>
        <pt x="403" y="869" on="0"/>
        <pt x="365" y="888" on="0"/>
        <pt x="348" y="898" on="1"/>
        <pt x="331" y="888" on="0"/>
        <pt x="293" y="869" on="0"/>
        <pt x="260" y="855" on="0"/>
        <pt x="234" y="847" on="0"/>
        <pt x="229" y="847" on="1"/>
        <pt x="218" y="847" on="0"/>
        <pt x="218" y="860" on="1"/>
        <pt x="218" y="876" on="0"/>
        <pt x="253" y="915" on="0"/>
        <pt x="298" y="949" on="0"/>
        <pt x="340" y="972" on="0"/>
        <pt x="348" y="972" on="1"/>
        <pt x="357" y="972" on="0"/>
        <pt x="400" y="948" on="0"/>
        <pt x="445" y="915" on="0"/>
        <pt x="479" y="877" on="0"/>
        <pt x="479" y="864" on="1"/>
        <pt x="479" y="857" on="0"/>
        <pt x="474" y="847" on="0"/>
      </contour>
      <contour>
        <pt x="602" y="315" on="1"/>
        <pt x="616" y="315" on="0"/>
        <pt x="632" y="297" on="0"/>
        <pt x="632" y="282" on="1"/>
        <pt x="632" y="273" on="0"/>
        <pt x="629" y="216" on="0"/>
        <pt x="624" y="142" on="0"/>
        <pt x="619" y="63" on="0"/>
        <pt x="616" y="33" on="1"/>
        <pt x="614" y="8" on="0"/>
        <pt x="594" y="0" on="0"/>
        <pt x="574" y="0" on="1"/>
        <pt x="513" y="0" on="0"/>
        <pt x="398" y="2" on="0"/>
        <pt x="337" y="2" on="1"/>
        <pt x="276" y="2" on="0"/>
        <pt x="145" y="0" on="0"/>
        <pt x="84" y="0" on="1"/>
        <pt x="67" y="0" on="0"/>
        <pt x="38" y="7" on="0"/>
        <pt x="38" y="21" on="1"/>
        <pt x="38" y="37" on="0"/>
        <pt x="57" y="48" on="0"/>
        <pt x="77" y="48" on="1"/>
        <pt x="106" y="48" on="0"/>
        <pt x="138" y="63" on="0"/>
        <pt x="138" y="84" on="1"/>
        <pt x="138" y="117" on="0"/>
        <pt x="138" y="167" on="0"/>
        <pt x="139" y="211" on="0"/>
        <pt x="139" y="255" on="0"/>
        <pt x="140" y="309" on="0"/>
        <pt x="140" y="377" on="0"/>
        <pt x="140" y="425" on="1"/>
        <pt x="140" y="478" on="0"/>
        <pt x="138" y="562" on="0"/>
        <pt x="136" y="634" on="0"/>
        <pt x="134" y="698" on="0"/>
        <pt x="134" y="730" on="1"/>
        <pt x="134" y="745" on="0"/>
        <pt x="122" y="760" on="0"/>
        <pt x="105" y="768" on="0"/>
        <pt x="87" y="769" on="0"/>
        <pt x="81" y="769" on="1"/>
        <pt x="64" y="769" on="0"/>
        <pt x="41" y="781" on="0"/>
        <pt x="41" y="794" on="1"/>
        <pt x="41" y="812" on="0"/>
        <pt x="67" y="821" on="0"/>
        <pt x="82" y="821" on="1"/>
        <pt x="115" y="821" on="0"/>
        <pt x="188" y="820" on="0"/>
        <pt x="256" y="820" on="0"/>
        <pt x="314" y="819" on="0"/>
        <pt x="333" y="819" on="1"/>
        <pt x="370" y="819" on="0"/>
        <pt x="417" y="820" on="0"/>
        <pt x="462" y="820" on="0"/>
        <pt x="516" y="821" on="0"/>
        <pt x="560" y="821" on="1"/>
        <pt x="574" y="821" on="0"/>
        <pt x="588" y="806" on="0"/>
        <pt x="588" y="785" on="1"/>
        <pt x="588" y="646" on="1"/>
        <pt x="588" y="622" on="0"/>
        <pt x="574" y="600" on="0"/>
        <pt x="557" y="600" on="1"/>
        <pt x="535" y="600" on="0"/>
        <pt x="521" y="626" on="0"/>
        <pt x="521" y="640" on="1"/>
        <pt x="521" y="727" on="1"/>
        <pt x="521" y="737" on="0"/>
        <pt x="513" y="749" on="0"/>
        <pt x="502" y="754" on="0"/>
        <pt x="489" y="755" on="0"/>
        <pt x="484" y="755" on="1"/>
        <pt x="211" y="755" on="1"/>
        <pt x="211" y="455" on="1"/>
        <pt x="239" y="454" on="0"/>
        <pt x="281" y="452" on="0"/>
        <pt x="310" y="452" on="1"/>
        <pt x="322" y="452" on="0"/>
        <pt x="351" y="453" on="0"/>
        <pt x="378" y="454" on="0"/>
        <pt x="399" y="455" on="0"/>
        <pt x="403" y="455" on="1"/>
        <pt x="409" y="455" on="0"/>
        <pt x="416" y="473" on="0"/>
        <pt x="419" y="498" on="0"/>
        <pt x="420" y="524" on="0"/>
        <pt x="420" y="532" on="1"/>
        <pt x="420" y="543" on="0"/>
        <pt x="434" y="566" on="0"/>
        <pt x="452" y="566" on="1"/>
        <pt x="466" y="566" on="0"/>
        <pt x="484" y="552" on="0"/>
        <pt x="484" y="535" on="1"/>
        <pt x="484" y="506" on="0"/>
        <pt x="482" y="449" on="0"/>
        <pt x="482" y="420" on="1"/>
        <pt x="482" y="391" on="0"/>
        <pt x="484" y="332" on="0"/>
        <pt x="484" y="304" on="1"/>
        <pt x="484" y="287" on="0"/>
        <pt x="466" y="277" on="0"/>
        <pt x="453" y="277" on="1"/>
        <pt x="434" y="277" on="0"/>
        <pt x="422" y="293" on="0"/>
        <pt x="422" y="306" on="1"/>
        <pt x="422" y="317" on="0"/>
        <pt x="418" y="345" on="0"/>
        <pt x="407" y="370" on="0"/>
        <pt x="389" y="387" on="0"/>
        <pt x="374" y="387" on="1"/>
        <pt x="363" y="387" on="0"/>
        <pt x="333" y="388" on="0"/>
        <pt x="310" y="388" on="1"/>
        <pt x="281" y="388" on="0"/>
        <pt x="240" y="387" on="0"/>
        <pt x="211" y="386" on="1"/>
        <pt x="211" y="66" on="1"/>
        <pt x="510" y="66" on="1"/>
        <pt x="517" y="66" on="0"/>
        <pt x="532" y="68" on="0"/>
        <pt x="544" y="75" on="0"/>
        <pt x="552" y="90" on="0"/>
        <pt x="553" y="103" on="1"/>
        <pt x="554" y="115" on="0"/>
        <pt x="558" y="159" on="0"/>
        <pt x="562" y="210" on="0"/>
        <pt x="565" y="260" on="0"/>
        <pt x="566" y="278" on="1"/>
        <pt x="567" y="299" on="0"/>
        <pt x="589" y="315" on="0"/>
      </contour>
    </TTGlyph>
    <TTGlyph name="Edieresis" xMin="38" yMin="0" xMax="632" yMax="972">
      <contour>
        <pt x="188" y="916" on="1"/>
        <pt x="188" y="923" on="0"/>
        <pt x="194" y="942" on="0"/>
        <pt x="208" y="960" on="0"/>
        <pt x="229" y="972" on="0"/>
        <pt x="244" y="972" on="1"/>
        <pt x="264" y="972" on="0"/>
        <pt x="293" y="943" on="0"/>
        <pt x="293" y="920" on="1"/>
        <pt x="293" y="884" on="0"/>
        <pt x="256" y="859" on="0"/>
        <pt x="237" y="859" on="1"/>
        <pt x="217" y="859" on="0"/>
        <pt x="188" y="891" on="0"/>
      </contour>
      <contour>
        <pt x="395" y="904" on="1"/>
        <pt x="395" y="911" on="0"/>
        <pt x="401" y="930" on="0"/>
        <pt x="415" y="948" on="0"/>
        <pt x="436" y="960" on="0"/>
        <pt x="451" y="960" on="1"/>
        <pt x="471" y="960" on="0"/>
        <pt x="500" y="931" on="0"/>
        <pt x="500" y="908" on="1"/>
        <pt x="500" y="872" on="0"/>
        <pt x="463" y="847" on="0"/>
        <pt x="444" y="847" on="1"/>
        <pt x="424" y="847" on="0"/>
        <pt x="395" y="879" on="0"/>
      </contour>
      <contour>
        <pt x="602" y="315" on="1"/>
        <pt x="616" y="315" on="0"/>
        <pt x="632" y="297" on="0"/>
        <pt x="632" y="282" on="1"/>
        <pt x="632" y="273" on="0"/>
        <pt x="629" y="216" on="0"/>
        <pt x="624" y="142" on="0"/>
        <pt x="619" y="63" on="0"/>
        <pt x="616" y="33" on="1"/>
        <pt x="614" y="8" on="0"/>
        <pt x="594" y="0" on="0"/>
        <pt x="574" y="0" on="1"/>
        <pt x="513" y="0" on="0"/>
        <pt x="398" y="2" on="0"/>
        <pt x="337" y="2" on="1"/>
        <pt x="276" y="2" on="0"/>
        <pt x="145" y="0" on="0"/>
        <pt x="84" y="0" on="1"/>
        <pt x="67" y="0" on="0"/>
        <pt x="38" y="7" on="0"/>
        <pt x="38" y="21" on="1"/>
        <pt x="38" y="37" on="0"/>
        <pt x="57" y="48" on="0"/>
        <pt x="77" y="48" on="1"/>
        <pt x="106" y="48" on="0"/>
        <pt x="138" y="63" on="0"/>
        <pt x="138" y="84" on="1"/>
        <pt x="138" y="117" on="0"/>
        <pt x="138" y="167" on="0"/>
        <pt x="139" y="211" on="0"/>
        <pt x="139" y="255" on="0"/>
        <pt x="140" y="309" on="0"/>
        <pt x="140" y="377" on="0"/>
        <pt x="140" y="425" on="1"/>
        <pt x="140" y="478" on="0"/>
        <pt x="138" y="562" on="0"/>
        <pt x="136" y="634" on="0"/>
        <pt x="134" y="698" on="0"/>
        <pt x="134" y="730" on="1"/>
        <pt x="134" y="745" on="0"/>
        <pt x="122" y="760" on="0"/>
        <pt x="105" y="768" on="0"/>
        <pt x="87" y="769" on="0"/>
        <pt x="81" y="769" on="1"/>
        <pt x="64" y="769" on="0"/>
        <pt x="41" y="781" on="0"/>
        <pt x="41" y="794" on="1"/>
        <pt x="41" y="812" on="0"/>
        <pt x="67" y="821" on="0"/>
        <pt x="82" y="821" on="1"/>
        <pt x="115" y="821" on="0"/>
        <pt x="188" y="820" on="0"/>
        <pt x="256" y="820" on="0"/>
        <pt x="314" y="819" on="0"/>
        <pt x="333" y="819" on="1"/>
        <pt x="370" y="819" on="0"/>
        <pt x="417" y="820" on="0"/>
        <pt x="462" y="820" on="0"/>
        <pt x="516" y="821" on="0"/>
        <pt x="560" y="821" on="1"/>
        <pt x="574" y="821" on="0"/>
        <pt x="588" y="806" on="0"/>
        <pt x="588" y="785" on="1"/>
        <pt x="588" y="646" on="1"/>
        <pt x="588" y="622" on="0"/>
        <pt x="574" y="600" on="0"/>
        <pt x="557" y="600" on="1"/>
        <pt x="535" y="600" on="0"/>
        <pt x="521" y="626" on="0"/>
        <pt x="521" y="640" on="1"/>
        <pt x="521" y="727" on="1"/>
        <pt x="521" y="737" on="0"/>
        <pt x="513" y="749" on="0"/>
        <pt x="502" y="754" on="0"/>
        <pt x="489" y="755" on="0"/>
        <pt x="484" y="755" on="1"/>
        <pt x="211" y="755" on="1"/>
        <pt x="211" y="455" on="1"/>
        <pt x="239" y="454" on="0"/>
        <pt x="281" y="452" on="0"/>
        <pt x="310" y="452" on="1"/>
        <pt x="322" y="452" on="0"/>
        <pt x="351" y="453" on="0"/>
        <pt x="378" y="454" on="0"/>
        <pt x="399" y="455" on="0"/>
        <pt x="403" y="455" on="1"/>
        <pt x="409" y="455" on="0"/>
        <pt x="416" y="473" on="0"/>
        <pt x="419" y="498" on="0"/>
        <pt x="420" y="524" on="0"/>
        <pt x="420" y="532" on="1"/>
        <pt x="420" y="543" on="0"/>
        <pt x="434" y="566" on="0"/>
        <pt x="452" y="566" on="1"/>
        <pt x="466" y="566" on="0"/>
        <pt x="484" y="552" on="0"/>
        <pt x="484" y="535" on="1"/>
        <pt x="484" y="506" on="0"/>
        <pt x="482" y="449" on="0"/>
        <pt x="482" y="420" on="1"/>
        <pt x="482" y="391" on="0"/>
        <pt x="484" y="332" on="0"/>
        <pt x="484" y="304" on="1"/>
        <pt x="484" y="287" on="0"/>
        <pt x="466" y="277" on="0"/>
        <pt x="453" y="277" on="1"/>
        <pt x="434" y="277" on="0"/>
        <pt x="422" y="293" on="0"/>
        <pt x="422" y="306" on="1"/>
        <pt x="422" y="317" on="0"/>
        <pt x="418" y="345" on="0"/>
        <pt x="407" y="370" on="0"/>
        <pt x="389" y="387" on="0"/>
        <pt x="374" y="387" on="1"/>
        <pt x="363" y="387" on="0"/>
        <pt x="333" y="388" on="0"/>
        <pt x="310" y="388" on="1"/>
        <pt x="281" y="388" on="0"/>
        <pt x="240" y="387" on="0"/>
        <pt x="211" y="386" on="1"/>
        <pt x="211" y="66" on="1"/>
        <pt x="510" y="66" on="1"/>
        <pt x="517" y="66" on="0"/>
        <pt x="532" y="68" on="0"/>
        <pt x="544" y="75" on="0"/>
        <pt x="552" y="90" on="0"/>
        <pt x="553" y="103" on="1"/>
        <pt x="554" y="115" on="0"/>
        <pt x="558" y="159" on="0"/>
        <pt x="562" y="210" on="0"/>
        <pt x="565" y="260" on="0"/>
        <pt x="566" y="278" on="1"/>
        <pt x="567" y="299" on="0"/>
        <pt x="589" y="315" on="0"/>
      </contour>
    </TTGlyph>
    <TTGlyph name="Edotaccent" xMin="38" yMin="0" xMax="632" yMax="972">
      <component glyphName=".ttfautohint" x="38" y="0" flags="0x0"/>
      <component glyphName="E" x="0" y="0" flags="0x204"/>
      <component glyphName="dotaccent" x="274" y="336" flags="0x4"/>
    </TTGlyph>
    <TTGlyph name="Egrave" xMin="38" yMin="0" xMax="632" yMax="972">
      <contour>
        <pt x="275" y="941" on="1"/>
        <pt x="275" y="955" on="0"/>
        <pt x="292" y="972" on="0"/>
        <pt x="307" y="972" on="1"/>
        <pt x="318" y="972" on="0"/>
        <pt x="354" y="950" on="0"/>
        <pt x="388" y="919" on="0"/>
        <pt x="413" y="887" on="0"/>
        <pt x="413" y="877" on="1"/>
        <pt x="413" y="867" on="0"/>
        <pt x="400" y="854" on="0"/>
        <pt x="389" y="854" on="1"/>
        <pt x="378" y="854" on="0"/>
        <pt x="340" y="872" on="0"/>
        <pt x="303" y="899" on="0"/>
        <pt x="275" y="929" on="0"/>
      </contour>
      <contour>
        <pt x="602" y="315" on="1"/>
        <pt x="616" y="315" on="0"/>
        <pt x="632" y="297" on="0"/>
        <pt x="632" y="282" on="1"/>
        <pt x="632" y="273" on="0"/>
        <pt x="629" y="216" on="0"/>
        <pt x="624" y="142" on="0"/>
        <pt x="619" y="63" on="0"/>
        <pt x="616" y="33" on="1"/>
        <pt x="614" y="8" on="0"/>
        <pt x="594" y="0" on="0"/>
        <pt x="574" y="0" on="1"/>
        <pt x="513" y="0" on="0"/>
        <pt x="398" y="2" on="0"/>
        <pt x="337" y="2" on="1"/>
        <pt x="276" y="2" on="0"/>
        <pt x="145" y="0" on="0"/>
        <pt x="84" y="0" on="1"/>
        <pt x="67" y="0" on="0"/>
        <pt x="38" y="7" on="0"/>
        <pt x="38" y="21" on="1"/>
        <pt x="38" y="37" on="0"/>
        <pt x="57" y="48" on="0"/>
        <pt x="77" y="48" on="1"/>
        <pt x="106" y="48" on="0"/>
        <pt x="138" y="63" on="0"/>
        <pt x="138" y="84" on="1"/>
        <pt x="138" y="117" on="0"/>
        <pt x="138" y="167" on="0"/>
        <pt x="139" y="211" on="0"/>
        <pt x="139" y="255" on="0"/>
        <pt x="140" y="309" on="0"/>
        <pt x="140" y="377" on="0"/>
        <pt x="140" y="425" on="1"/>
        <pt x="140" y="478" on="0"/>
        <pt x="138" y="562" on="0"/>
        <pt x="136" y="634" on="0"/>
        <pt x="134" y="698" on="0"/>
        <pt x="134" y="730" on="1"/>
        <pt x="134" y="745" on="0"/>
        <pt x="122" y="760" on="0"/>
        <pt x="105" y="768" on="0"/>
        <pt x="87" y="769" on="0"/>
        <pt x="81" y="769" on="1"/>
        <pt x="64" y="769" on="0"/>
        <pt x="41" y="781" on="0"/>
        <pt x="41" y="794" on="1"/>
        <pt x="41" y="812" on="0"/>
        <pt x="67" y="821" on="0"/>
        <pt x="82" y="821" on="1"/>
        <pt x="115" y="821" on="0"/>
        <pt x="188" y="820" on="0"/>
        <pt x="256" y="820" on="0"/>
        <pt x="314" y="819" on="0"/>
        <pt x="333" y="819" on="1"/>
        <pt x="370" y="819" on="0"/>
        <pt x="417" y="820" on="0"/>
        <pt x="462" y="820" on="0"/>
        <pt x="516" y="821" on="0"/>
        <pt x="560" y="821" on="1"/>
        <pt x="574" y="821" on="0"/>
        <pt x="588" y="806" on="0"/>
        <pt x="588" y="785" on="1"/>
        <pt x="588" y="646" on="1"/>
        <pt x="588" y="622" on="0"/>
        <pt x="574" y="600" on="0"/>
        <pt x="557" y="600" on="1"/>
        <pt x="535" y="600" on="0"/>
        <pt x="521" y="626" on="0"/>
        <pt x="521" y="640" on="1"/>
        <pt x="521" y="727" on="1"/>
        <pt x="521" y="737" on="0"/>
        <pt x="513" y="749" on="0"/>
        <pt x="502" y="754" on="0"/>
        <pt x="489" y="755" on="0"/>
        <pt x="484" y="755" on="1"/>
        <pt x="211" y="755" on="1"/>
        <pt x="211" y="455" on="1"/>
        <pt x="239" y="454" on="0"/>
        <pt x="281" y="452" on="0"/>
        <pt x="310" y="452" on="1"/>
        <pt x="322" y="452" on="0"/>
        <pt x="351" y="453" on="0"/>
        <pt x="378" y="454" on="0"/>
        <pt x="399" y="455" on="0"/>
        <pt x="403" y="455" on="1"/>
        <pt x="409" y="455" on="0"/>
        <pt x="416" y="473" on="0"/>
        <pt x="419" y="498" on="0"/>
        <pt x="420" y="524" on="0"/>
        <pt x="420" y="532" on="1"/>
        <pt x="420" y="543" on="0"/>
        <pt x="434" y="566" on="0"/>
        <pt x="452" y="566" on="1"/>
        <pt x="466" y="566" on="0"/>
        <pt x="484" y="552" on="0"/>
        <pt x="484" y="535" on="1"/>
        <pt x="484" y="506" on="0"/>
        <pt x="482" y="449" on="0"/>
        <pt x="482" y="420" on="1"/>
        <pt x="482" y="391" on="0"/>
        <pt x="484" y="332" on="0"/>
        <pt x="484" y="304" on="1"/>
        <pt x="484" y="287" on="0"/>
        <pt x="466" y="277" on="0"/>
        <pt x="453" y="277" on="1"/>
        <pt x="434" y="277" on="0"/>
        <pt x="422" y="293" on="0"/>
        <pt x="422" y="306" on="1"/>
        <pt x="422" y="317" on="0"/>
        <pt x="418" y="345" on="0"/>
        <pt x="407" y="370" on="0"/>
        <pt x="389" y="387" on="0"/>
        <pt x="374" y="387" on="1"/>
        <pt x="363" y="387" on="0"/>
        <pt x="333" y="388" on="0"/>
        <pt x="310" y="388" on="1"/>
        <pt x="281" y="388" on="0"/>
        <pt x="240" y="387" on="0"/>
        <pt x="211" y="386" on="1"/>
        <pt x="211" y="66" on="1"/>
        <pt x="510" y="66" on="1"/>
        <pt x="517" y="66" on="0"/>
        <pt x="532" y="68" on="0"/>
        <pt x="544" y="75" on="0"/>
        <pt x="552" y="90" on="0"/>
        <pt x="553" y="103" on="1"/>
        <pt x="554" y="115" on="0"/>
        <pt x="558" y="159" on="0"/>
        <pt x="562" y="210" on="0"/>
        <pt x="565" y="260" on="0"/>
        <pt x="566" y="278" on="1"/>
        <pt x="567" y="299" on="0"/>
        <pt x="589" y="315" on="0"/>
      </contour>
    </TTGlyph>
    <TTGlyph name="Emacron" xMin="38" yMin="0" xMax="632" yMax="942">
      <component glyphName=".ttfautohint" x="38" y="0" flags="0x0"/>
      <component glyphName="E" x="0" y="0" flags="0x204"/>
      <component glyphName="macron" x="206" y="385" flags="0x4"/>
    </TTGlyph>
    <TTGlyph name="Eng" xMin="33" yMin="-239" xMax="813" yMax="821">
      <contour>
        <pt x="213" y="51" on="1"/>
        <pt x="313" y="51" on="1"/>
        <pt x="324" y="51" on="0"/>
        <pt x="343" y="40" on="0"/>
        <pt x="343" y="25" on="1"/>
        <pt x="343" y="0" on="0"/>
        <pt x="323" y="0" on="1"/>
        <pt x="97" y="0" on="1"/>
        <pt x="83" y="0" on="0"/>
        <pt x="56" y="9" on="0"/>
        <pt x="56" y="25" on="1"/>
        <pt x="56" y="38" on="0"/>
        <pt x="76" y="48" on="0"/>
        <pt x="85" y="48" on="1"/>
        <pt x="91" y="48" on="0"/>
        <pt x="106" y="49" on="0"/>
        <pt x="121" y="58" on="0"/>
        <pt x="132" y="77" on="0"/>
        <pt x="133" y="94" on="1"/>
        <pt x="135" y="162" on="0"/>
        <pt x="142" y="313" on="0"/>
        <pt x="142" y="388" on="1"/>
        <pt x="142" y="474" on="0"/>
        <pt x="139" y="657" on="0"/>
        <pt x="139" y="738" on="1"/>
        <pt x="139" y="753" on="0"/>
        <pt x="106" y="763" on="0"/>
        <pt x="66" y="770" on="0"/>
        <pt x="33" y="784" on="0"/>
        <pt x="33" y="804" on="1"/>
        <pt x="33" y="821" on="0"/>
        <pt x="91" y="821" on="1"/>
        <pt x="229" y="821" on="1"/>
        <pt x="241" y="821" on="0"/>
        <pt x="255" y="806" on="0"/>
        <pt x="269" y="781" on="1"/>
        <pt x="285" y="751" on="0"/>
        <pt x="343" y="643" on="0"/>
        <pt x="414" y="512" on="0"/>
        <pt x="489" y="371" on="0"/>
        <pt x="554" y="247" on="0"/>
        <pt x="602" y="152" on="0"/>
        <pt x="611" y="132" on="1"/>
        <pt x="611" y="731" on="1"/>
        <pt x="611" y="740" on="0"/>
        <pt x="599" y="749" on="0"/>
        <pt x="581" y="753" on="0"/>
        <pt x="562" y="754" on="0"/>
        <pt x="556" y="754" on="1"/>
        <pt x="545" y="754" on="0"/>
        <pt x="519" y="764" on="0"/>
        <pt x="519" y="781" on="1"/>
        <pt x="519" y="804" on="0"/>
        <pt x="556" y="804" on="1"/>
        <pt x="762" y="804" on="1"/>
        <pt x="794" y="804" on="0"/>
        <pt x="813" y="794" on="0"/>
        <pt x="813" y="781" on="1"/>
        <pt x="813" y="764" on="0"/>
        <pt x="788" y="754" on="0"/>
        <pt x="776" y="754" on="1"/>
        <pt x="771" y="754" on="0"/>
        <pt x="742" y="753" on="0"/>
        <pt x="710" y="749" on="0"/>
        <pt x="685" y="738" on="0"/>
        <pt x="685" y="729" on="1"/>
        <pt x="684" y="674" on="0"/>
        <pt x="683" y="591" on="0"/>
        <pt x="682" y="512" on="0"/>
        <pt x="681" y="426" on="0"/>
        <pt x="681" y="368" on="1"/>
        <pt x="681" y="336" on="0"/>
        <pt x="682" y="251" on="0"/>
        <pt x="682" y="159" on="0"/>
        <pt x="683" y="69" on="0"/>
        <pt x="683" y="33" on="1"/>
        <pt x="683" y="-108" on="0"/>
        <pt x="611" y="-239" on="0"/>
        <pt x="527" y="-239" on="1"/>
        <pt x="499" y="-239" on="0"/>
        <pt x="444" y="-224" on="0"/>
        <pt x="401" y="-193" on="0"/>
        <pt x="375" y="-147" on="0"/>
        <pt x="375" y="-115" on="1"/>
        <pt x="375" y="-94" on="0"/>
        <pt x="388" y="-55" on="0"/>
        <pt x="414" y="-25" on="0"/>
        <pt x="452" y="-7" on="0"/>
        <pt x="478" y="-7" on="1"/>
        <pt x="496" y="-7" on="0"/>
        <pt x="528" y="-27" on="0"/>
        <pt x="528" y="-50" on="1"/>
        <pt x="528" y="-72" on="0"/>
        <pt x="504" y="-92" on="0"/>
        <pt x="488" y="-92" on="1"/>
        <pt x="476" y="-92" on="0"/>
        <pt x="457" y="-82" on="0"/>
        <pt x="452" y="-76" on="1"/>
        <pt x="446" y="-79" on="0"/>
        <pt x="440" y="-89" on="0"/>
        <pt x="436" y="-101" on="0"/>
        <pt x="435" y="-111" on="0"/>
        <pt x="435" y="-113" on="1"/>
        <pt x="435" y="-130" on="0"/>
        <pt x="450" y="-152" on="0"/>
        <pt x="474" y="-167" on="0"/>
        <pt x="502" y="-173" on="0"/>
        <pt x="514" y="-173" on="1"/>
        <pt x="540" y="-173" on="0"/>
        <pt x="575" y="-155" on="0"/>
        <pt x="597" y="-114" on="0"/>
        <pt x="609" y="-48" on="0"/>
        <pt x="611" y="0" on="1"/>
        <pt x="611" y="1" on="0"/>
        <pt x="606" y="8" on="0"/>
        <pt x="584" y="48" on="0"/>
        <pt x="536" y="133" on="0"/>
        <pt x="447" y="291" on="0"/>
        <pt x="312" y="532" on="0"/>
        <pt x="213" y="708" on="1"/>
      </contour>
    </TTGlyph>
    <TTGlyph name="Eogonek" xMin="38" yMin="-149" xMax="632" yMax="821">
      <component glyphName=".ttfautohint" x="38" y="0" flags="0x0"/>
      <component glyphName="E" x="0" y="0" flags="0x204"/>
      <component glyphName="ogonek" x="241" y="0" flags="0x4"/>
    </TTGlyph>
    <TTGlyph name="Eth" xMin="41" yMin="0" xMax="664" yMax="821">
      <contour>
        <pt x="326" y="444" on="1"/>
        <pt x="334" y="444" on="0"/>
        <pt x="347" y="422" on="0"/>
        <pt x="347" y="412" on="1"/>
        <pt x="347" y="408" on="0"/>
        <pt x="344" y="396" on="0"/>
        <pt x="338" y="384" on="0"/>
        <pt x="327" y="375" on="0"/>
        <pt x="318" y="375" on="1"/>
        <pt x="298" y="375" on="0"/>
        <pt x="231" y="375" on="0"/>
        <pt x="159" y="374" on="0"/>
        <pt x="95" y="374" on="0"/>
        <pt x="77" y="374" on="1"/>
        <pt x="66" y="374" on="0"/>
        <pt x="51" y="400" on="0"/>
        <pt x="51" y="409" on="1"/>
        <pt x="51" y="419" on="0"/>
        <pt x="63" y="443" on="0"/>
        <pt x="77" y="443" on="1"/>
        <pt x="84" y="443" on="0"/>
        <pt x="114" y="442" on="0"/>
        <pt x="150" y="442" on="0"/>
        <pt x="185" y="441" on="0"/>
        <pt x="198" y="441" on="1"/>
        <pt x="240" y="441" on="0"/>
        <pt x="302" y="444" on="0"/>
      </contour>
      <contour>
        <pt x="65" y="818" on="1"/>
        <pt x="115" y="820" on="0"/>
        <pt x="220" y="821" on="0"/>
        <pt x="281" y="821" on="1"/>
        <pt x="344" y="821" on="0"/>
        <pt x="480" y="781" on="0"/>
        <pt x="592" y="691" on="0"/>
        <pt x="664" y="545" on="0"/>
        <pt x="664" y="439" on="1"/>
        <pt x="664" y="349" on="0"/>
        <pt x="615" y="189" on="0"/>
        <pt x="517" y="70" on="0"/>
        <pt x="369" y="0" on="0"/>
        <pt x="271" y="0" on="1"/>
        <pt x="77" y="0" on="1"/>
        <pt x="60" y="0" on="0"/>
        <pt x="41" y="11" on="0"/>
        <pt x="41" y="24" on="1"/>
        <pt x="41" y="37" on="0"/>
        <pt x="55" y="48" on="0"/>
        <pt x="72" y="48" on="1"/>
        <pt x="81" y="48" on="0"/>
        <pt x="104" y="49" on="0"/>
        <pt x="126" y="53" on="0"/>
        <pt x="141" y="63" on="0"/>
        <pt x="141" y="72" on="1"/>
        <pt x="141" y="127" on="0"/>
        <pt x="141" y="203" on="0"/>
        <pt x="142" y="279" on="0"/>
        <pt x="142" y="369" on="0"/>
        <pt x="142" y="437" on="1"/>
        <pt x="142" y="455" on="0"/>
        <pt x="140" y="533" on="0"/>
        <pt x="137" y="621" on="0"/>
        <pt x="135" y="704" on="0"/>
        <pt x="135" y="727" on="1"/>
        <pt x="135" y="742" on="0"/>
        <pt x="124" y="759" on="0"/>
        <pt x="105" y="767" on="0"/>
        <pt x="80" y="769" on="0"/>
        <pt x="67" y="769" on="1"/>
        <pt x="55" y="769" on="0"/>
        <pt x="44" y="784" on="0"/>
        <pt x="44" y="794" on="1"/>
        <pt x="44" y="802" on="0"/>
        <pt x="54" y="817" on="0"/>
      </contour>
      <contour>
        <pt x="275" y="756" on="1"/>
        <pt x="260" y="756" on="0"/>
        <pt x="228" y="753" on="0"/>
        <pt x="213" y="752" on="1"/>
        <pt x="213" y="74" on="1"/>
        <pt x="213" y="70" on="0"/>
        <pt x="226" y="66" on="0"/>
        <pt x="244" y="64" on="0"/>
        <pt x="266" y="64" on="0"/>
        <pt x="275" y="64" on="1"/>
        <pt x="357" y="64" on="0"/>
        <pt x="476" y="121" on="0"/>
        <pt x="553" y="222" on="0"/>
        <pt x="589" y="359" on="0"/>
        <pt x="589" y="439" on="1"/>
        <pt x="589" y="504" on="0"/>
        <pt x="552" y="620" on="0"/>
        <pt x="475" y="706" on="0"/>
        <pt x="357" y="756" on="0"/>
      </contour>
    </TTGlyph>
    <TTGlyph name="Etilde" xMin="38" yMin="0" xMax="632" yMax="953">
      <component glyphName=".ttfautohint" x="38" y="0" flags="0x0"/>
      <component glyphName="E" x="0" y="0" flags="0x204"/>
      <component glyphName="tilde" x="154" y="353" flags="0x4"/>
    </TTGlyph>
    <TTGlyph name="Euro" xMin="32" yMin="-14" xMax="620" yMax="838">
      <contour>
        <pt x="617" y="166" on="1"/>
        <pt x="617" y="134" on="0"/>
        <pt x="595" y="70" on="0"/>
        <pt x="541" y="19" on="0"/>
        <pt x="451" y="-14" on="0"/>
        <pt x="383" y="-14" on="1"/>
        <pt x="332" y="-14" on="0"/>
        <pt x="244" y="20" on="0"/>
        <pt x="175" y="88" on="0"/>
        <pt x="128" y="188" on="0"/>
        <pt x="118" y="254" on="1"/>
        <pt x="58" y="254" on="1"/>
        <pt x="47" y="254" on="0"/>
        <pt x="32" y="276" on="0"/>
        <pt x="32" y="286" on="1"/>
        <pt x="32" y="297" on="0"/>
        <pt x="44" y="317" on="0"/>
        <pt x="58" y="317" on="1"/>
        <pt x="66" y="317" on="0"/>
        <pt x="94" y="316" on="0"/>
        <pt x="111" y="316" on="1"/>
        <pt x="109" y="336" on="0"/>
        <pt x="106" y="380" on="0"/>
        <pt x="106" y="405" on="1"/>
        <pt x="106" y="420" on="1"/>
        <pt x="58" y="420" on="1"/>
        <pt x="47" y="420" on="0"/>
        <pt x="32" y="442" on="0"/>
        <pt x="32" y="452" on="1"/>
        <pt x="32" y="463" on="0"/>
        <pt x="44" y="483" on="0"/>
        <pt x="58" y="483" on="1"/>
        <pt x="65" y="483" on="0"/>
        <pt x="92" y="482" on="0"/>
        <pt x="108" y="482" on="1"/>
        <pt x="118" y="563" on="0"/>
        <pt x="163" y="694" on="0"/>
        <pt x="235" y="787" on="0"/>
        <pt x="334" y="838" on="0"/>
        <pt x="396" y="838" on="1"/>
        <pt x="437" y="838" on="0"/>
        <pt x="518" y="815" on="0"/>
        <pt x="581" y="759" on="0"/>
        <pt x="620" y="665" on="0"/>
        <pt x="620" y="595" on="1"/>
        <pt x="620" y="581" on="0"/>
        <pt x="606" y="551" on="0"/>
        <pt x="588" y="551" on="1"/>
        <pt x="575" y="551" on="0"/>
        <pt x="560" y="562" on="0"/>
        <pt x="552" y="582" on="0"/>
        <pt x="550" y="606" on="0"/>
        <pt x="550" y="620" on="1"/>
        <pt x="550" y="654" on="0"/>
        <pt x="533" y="711" on="0"/>
        <pt x="497" y="753" on="0"/>
        <pt x="439" y="777" on="0"/>
        <pt x="398" y="777" on="1"/>
        <pt x="342" y="777" on="0"/>
        <pt x="263" y="722" on="0"/>
        <pt x="211" y="635" on="0"/>
        <pt x="185" y="530" on="0"/>
        <pt x="183" y="481" on="1"/>
        <pt x="209" y="481" on="1"/>
        <pt x="242" y="481" on="0"/>
        <pt x="307" y="484" on="0"/>
        <pt x="327" y="484" on="1"/>
        <pt x="335" y="484" on="0"/>
        <pt x="348" y="466" on="0"/>
        <pt x="348" y="455" on="1"/>
        <pt x="348" y="447" on="0"/>
        <pt x="336" y="421" on="0"/>
        <pt x="319" y="421" on="1"/>
        <pt x="299" y="421" on="0"/>
        <pt x="220" y="420" on="0"/>
        <pt x="181" y="420" on="1"/>
        <pt x="181" y="404" on="1"/>
        <pt x="181" y="381" on="0"/>
        <pt x="183" y="336" on="0"/>
        <pt x="186" y="315" on="1"/>
        <pt x="209" y="315" on="1"/>
        <pt x="242" y="315" on="0"/>
        <pt x="307" y="318" on="0"/>
        <pt x="327" y="318" on="1"/>
        <pt x="335" y="318" on="0"/>
        <pt x="348" y="300" on="0"/>
        <pt x="348" y="289" on="1"/>
        <pt x="348" y="281" on="0"/>
        <pt x="336" y="255" on="0"/>
        <pt x="319" y="255" on="1"/>
        <pt x="300" y="255" on="0"/>
        <pt x="227" y="254" on="0"/>
        <pt x="190" y="254" on="1"/>
        <pt x="196" y="209" on="0"/>
        <pt x="228" y="133" on="0"/>
        <pt x="278" y="79" on="0"/>
        <pt x="343" y="48" on="0"/>
        <pt x="384" y="48" on="1"/>
        <pt x="415" y="48" on="0"/>
        <pt x="469" y="57" on="0"/>
        <pt x="514" y="79" on="0"/>
        <pt x="547" y="119" on="0"/>
        <pt x="556" y="149" on="1"/>
        <pt x="557" y="155" on="0"/>
        <pt x="559" y="174" on="0"/>
        <pt x="565" y="192" on="0"/>
        <pt x="577" y="205" on="0"/>
        <pt x="589" y="205" on="1"/>
        <pt x="608" y="205" on="0"/>
        <pt x="617" y="180" on="0"/>
      </contour>
    </TTGlyph>
    <TTGlyph name="F" xMin="38" yMin="0" xMax="588" yMax="821">
      <contour>
        <pt x="137" y="92" on="1"/>
        <pt x="139" y="192" on="0"/>
        <pt x="141" y="389" on="0"/>
        <pt x="141" y="489" on="1"/>
        <pt x="141" y="523" on="0"/>
        <pt x="139" y="582" on="0"/>
        <pt x="137" y="639" on="0"/>
        <pt x="135" y="697" on="0"/>
        <pt x="135" y="732" on="1"/>
        <pt x="135" y="771" on="0"/>
        <pt x="63" y="771" on="1"/>
        <pt x="51" y="771" on="0"/>
        <pt x="41" y="788" on="0"/>
        <pt x="41" y="796" on="1"/>
        <pt x="41" y="807" on="0"/>
        <pt x="57" y="821" on="0"/>
        <pt x="79" y="821" on="1"/>
        <pt x="143" y="821" on="0"/>
        <pt x="280" y="819" on="0"/>
        <pt x="344" y="819" on="1"/>
        <pt x="397" y="819" on="0"/>
        <pt x="501" y="821" on="0"/>
        <pt x="554" y="821" on="1"/>
        <pt x="575" y="821" on="0"/>
        <pt x="588" y="799" on="0"/>
        <pt x="588" y="773" on="1"/>
        <pt x="588" y="647" on="1"/>
        <pt x="588" y="622" on="0"/>
        <pt x="574" y="600" on="0"/>
        <pt x="554" y="600" on="1"/>
        <pt x="533" y="600" on="0"/>
        <pt x="521" y="629" on="0"/>
        <pt x="521" y="647" on="1"/>
        <pt x="521" y="714" on="1"/>
        <pt x="521" y="742" on="0"/>
        <pt x="502" y="755" on="0"/>
        <pt x="482" y="755" on="1"/>
        <pt x="211" y="755" on="1"/>
        <pt x="211" y="455" on="1"/>
        <pt x="240" y="453" on="0"/>
        <pt x="280" y="453" on="0"/>
        <pt x="308" y="453" on="1"/>
        <pt x="320" y="453" on="0"/>
        <pt x="351" y="454" on="0"/>
        <pt x="380" y="454" on="0"/>
        <pt x="403" y="455" on="0"/>
        <pt x="406" y="455" on="1"/>
        <pt x="411" y="455" on="0"/>
        <pt x="417" y="472" on="0"/>
        <pt x="420" y="493" on="0"/>
        <pt x="420" y="513" on="0"/>
        <pt x="420" y="517" on="1"/>
        <pt x="420" y="527" on="0"/>
        <pt x="421" y="544" on="0"/>
        <pt x="427" y="557" on="0"/>
        <pt x="441" y="564" on="0"/>
        <pt x="454" y="564" on="1"/>
        <pt x="476" y="564" on="0"/>
        <pt x="484" y="533" on="0"/>
        <pt x="484" y="517" on="1"/>
        <pt x="484" y="492" on="0"/>
        <pt x="482" y="440" on="0"/>
        <pt x="482" y="415" on="1"/>
        <pt x="482" y="390" on="0"/>
        <pt x="484" y="333" on="0"/>
        <pt x="484" y="309" on="1"/>
        <pt x="484" y="288" on="0"/>
        <pt x="469" y="271" on="0"/>
        <pt x="454" y="271" on="1"/>
        <pt x="440" y="271" on="0"/>
        <pt x="422" y="285" on="0"/>
        <pt x="422" y="299" on="1"/>
        <pt x="422" y="324" on="0"/>
        <pt x="413" y="357" on="0"/>
        <pt x="399" y="378" on="0"/>
        <pt x="384" y="387" on="0"/>
        <pt x="378" y="387" on="1"/>
        <pt x="361" y="388" on="0"/>
        <pt x="328" y="389" on="0"/>
        <pt x="311" y="389" on="1"/>
        <pt x="282" y="389" on="0"/>
        <pt x="240" y="388" on="0"/>
        <pt x="211" y="386" on="1"/>
        <pt x="211" y="367" on="0"/>
        <pt x="211" y="320" on="0"/>
        <pt x="210" y="271" on="0"/>
        <pt x="210" y="224" on="0"/>
        <pt x="210" y="205" on="1"/>
        <pt x="210" y="188" on="0"/>
        <pt x="211" y="142" on="0"/>
        <pt x="212" y="98" on="0"/>
        <pt x="213" y="64" on="0"/>
        <pt x="213" y="60" on="1"/>
        <pt x="340" y="60" on="1"/>
        <pt x="346" y="60" on="0"/>
        <pt x="358" y="59" on="0"/>
        <pt x="369" y="53" on="0"/>
        <pt x="376" y="39" on="0"/>
        <pt x="376" y="26" on="1"/>
        <pt x="376" y="10" on="0"/>
        <pt x="357" y="0" on="0"/>
        <pt x="346" y="0" on="1"/>
        <pt x="81" y="0" on="1"/>
        <pt x="68" y="0" on="0"/>
        <pt x="38" y="6" on="0"/>
        <pt x="38" y="23" on="1"/>
        <pt x="38" y="39" on="0"/>
        <pt x="53" y="48" on="0"/>
        <pt x="66" y="48" on="1"/>
        <pt x="80" y="48" on="0"/>
        <pt x="106" y="50" on="0"/>
        <pt x="125" y="59" on="0"/>
        <pt x="137" y="77" on="0"/>
      </contour>
    </TTGlyph>
    <TTGlyph name="G" xMin="37" yMin="-14" xMax="605" yMax="838">
      <contour>
        <pt x="512" y="254" on="1"/>
        <pt x="462" y="254" on="0"/>
        <pt x="355" y="247" on="0"/>
        <pt x="301" y="247" on="1"/>
        <pt x="280" y="247" on="0"/>
        <pt x="259" y="264" on="0"/>
        <pt x="259" y="275" on="1"/>
        <pt x="259" y="295" on="0"/>
        <pt x="294" y="310" on="0"/>
        <pt x="310" y="310" on="1"/>
        <pt x="372" y="310" on="0"/>
        <pt x="491" y="320" on="0"/>
        <pt x="545" y="321" on="1"/>
        <pt x="569" y="321" on="0"/>
        <pt x="605" y="299" on="0"/>
        <pt x="605" y="273" on="1"/>
        <pt x="605" y="256" on="0"/>
        <pt x="603" y="200" on="0"/>
        <pt x="603" y="164" on="1"/>
        <pt x="603" y="116" on="0"/>
        <pt x="605" y="55" on="0"/>
        <pt x="605" y="35" on="1"/>
        <pt x="605" y="19" on="0"/>
        <pt x="586" y="2" on="0"/>
        <pt x="574" y="2" on="1"/>
        <pt x="560" y="2" on="0"/>
        <pt x="542" y="19" on="0"/>
        <pt x="542" y="36" on="1"/>
        <pt x="542" y="55" on="0"/>
        <pt x="544" y="95" on="0"/>
        <pt x="544" y="103" on="1"/>
        <pt x="527" y="72" on="0"/>
        <pt x="481" y="28" on="0"/>
        <pt x="426" y="-1" on="0"/>
        <pt x="366" y="-14" on="0"/>
        <pt x="336" y="-14" on="1"/>
        <pt x="283" y="-14" on="0"/>
        <pt x="176" y="29" on="0"/>
        <pt x="90" y="128" on="0"/>
        <pt x="37" y="288" on="0"/>
        <pt x="37" y="404" on="1"/>
        <pt x="37" y="491" on="0"/>
        <pt x="83" y="649" on="0"/>
        <pt x="165" y="768" on="0"/>
        <pt x="281" y="838" on="0"/>
        <pt x="350" y="838" on="1"/>
        <pt x="404" y="838" on="0"/>
        <pt x="505" y="775" on="0"/>
        <pt x="533" y="702" on="1"/>
        <pt x="528" y="789" on="1"/>
        <pt x="528" y="802" on="0"/>
        <pt x="545" y="821" on="0"/>
        <pt x="560" y="821" on="1"/>
        <pt x="578" y="821" on="0"/>
        <pt x="597" y="800" on="0"/>
        <pt x="597" y="788" on="1"/>
        <pt x="597" y="767" on="0"/>
        <pt x="596" y="734" on="0"/>
        <pt x="594" y="702" on="0"/>
        <pt x="593" y="668" on="0"/>
        <pt x="593" y="648" on="1"/>
        <pt x="593" y="622" on="0"/>
        <pt x="595" y="546" on="0"/>
        <pt x="595" y="520" on="1"/>
        <pt x="595" y="494" on="0"/>
        <pt x="580" y="464" on="0"/>
        <pt x="561" y="464" on="1"/>
        <pt x="544" y="464" on="0"/>
        <pt x="525" y="493" on="0"/>
        <pt x="525" y="517" on="1"/>
        <pt x="525" y="572" on="0"/>
        <pt x="505" y="667" on="0"/>
        <pt x="461" y="737" on="0"/>
        <pt x="391" y="777" on="0"/>
        <pt x="341" y="777" on="1"/>
        <pt x="294" y="777" on="0"/>
        <pt x="211" y="718" on="0"/>
        <pt x="148" y="617" on="0"/>
        <pt x="112" y="481" on="0"/>
        <pt x="112" y="404" on="1"/>
        <pt x="112" y="339" on="0"/>
        <pt x="137" y="211" on="0"/>
        <pt x="192" y="111" on="0"/>
        <pt x="281" y="49" on="0"/>
        <pt x="345" y="49" on="1"/>
        <pt x="382" y="49" on="0"/>
        <pt x="451" y="77" on="0"/>
        <pt x="505" y="125" on="0"/>
        <pt x="537" y="189" on="0"/>
        <pt x="537" y="225" on="1"/>
        <pt x="537" y="242" on="0"/>
        <pt x="531" y="254" on="0"/>
      </contour>
    </TTGlyph>
    <TTGlyph name="Gbreve" xMin="37" yMin="-14" xMax="605" yMax="972">
      <component glyphName=".ttfautohint" x="37" y="0" flags="0x0"/>
      <component glyphName="G" x="0" y="0" flags="0x204"/>
      <component glyphName="breve" x="238" y="355" flags="0x4"/>
    </TTGlyph>
    <TTGlyph name="Gcircumflex" xMin="37" yMin="-14" xMax="605" yMax="972">
      <contour>
        <pt x="465" y="847" on="1"/>
        <pt x="460" y="847" on="0"/>
        <pt x="434" y="855" on="0"/>
        <pt x="400" y="869" on="0"/>
        <pt x="362" y="888" on="0"/>
        <pt x="345" y="898" on="1"/>
        <pt x="328" y="888" on="0"/>
        <pt x="290" y="869" on="0"/>
        <pt x="257" y="855" on="0"/>
        <pt x="231" y="847" on="0"/>
        <pt x="226" y="847" on="1"/>
        <pt x="215" y="847" on="0"/>
        <pt x="215" y="860" on="1"/>
        <pt x="215" y="876" on="0"/>
        <pt x="250" y="915" on="0"/>
        <pt x="295" y="949" on="0"/>
        <pt x="337" y="972" on="0"/>
        <pt x="345" y="972" on="1"/>
        <pt x="354" y="972" on="0"/>
        <pt x="397" y="948" on="0"/>
        <pt x="442" y="915" on="0"/>
        <pt x="476" y="877" on="0"/>
        <pt x="476" y="864" on="1"/>
        <pt x="476" y="857" on="0"/>
        <pt x="471" y="847" on="0"/>
      </contour>
      <contour>
        <pt x="512" y="254" on="1"/>
        <pt x="462" y="254" on="0"/>
        <pt x="355" y="247" on="0"/>
        <pt x="301" y="247" on="1"/>
        <pt x="280" y="247" on="0"/>
        <pt x="259" y="264" on="0"/>
        <pt x="259" y="275" on="1"/>
        <pt x="259" y="295" on="0"/>
        <pt x="294" y="310" on="0"/>
        <pt x="310" y="310" on="1"/>
        <pt x="372" y="310" on="0"/>
        <pt x="491" y="320" on="0"/>
        <pt x="545" y="321" on="1"/>
        <pt x="569" y="321" on="0"/>
        <pt x="605" y="299" on="0"/>
        <pt x="605" y="273" on="1"/>
        <pt x="605" y="256" on="0"/>
        <pt x="603" y="200" on="0"/>
        <pt x="603" y="164" on="1"/>
        <pt x="603" y="116" on="0"/>
        <pt x="605" y="55" on="0"/>
        <pt x="605" y="35" on="1"/>
        <pt x="605" y="19" on="0"/>
        <pt x="586" y="2" on="0"/>
        <pt x="574" y="2" on="1"/>
        <pt x="560" y="2" on="0"/>
        <pt x="542" y="19" on="0"/>
        <pt x="542" y="36" on="1"/>
        <pt x="542" y="55" on="0"/>
        <pt x="544" y="95" on="0"/>
        <pt x="544" y="103" on="1"/>
        <pt x="527" y="72" on="0"/>
        <pt x="481" y="28" on="0"/>
        <pt x="426" y="-1" on="0"/>
        <pt x="366" y="-14" on="0"/>
        <pt x="336" y="-14" on="1"/>
        <pt x="283" y="-14" on="0"/>
        <pt x="176" y="29" on="0"/>
        <pt x="90" y="128" on="0"/>
        <pt x="37" y="288" on="0"/>
        <pt x="37" y="404" on="1"/>
        <pt x="37" y="491" on="0"/>
        <pt x="83" y="649" on="0"/>
        <pt x="165" y="768" on="0"/>
        <pt x="281" y="838" on="0"/>
        <pt x="350" y="838" on="1"/>
        <pt x="404" y="838" on="0"/>
        <pt x="505" y="775" on="0"/>
        <pt x="533" y="702" on="1"/>
        <pt x="528" y="789" on="1"/>
        <pt x="528" y="802" on="0"/>
        <pt x="545" y="821" on="0"/>
        <pt x="560" y="821" on="1"/>
        <pt x="578" y="821" on="0"/>
        <pt x="597" y="800" on="0"/>
        <pt x="597" y="788" on="1"/>
        <pt x="597" y="767" on="0"/>
        <pt x="596" y="734" on="0"/>
        <pt x="594" y="702" on="0"/>
        <pt x="593" y="668" on="0"/>
        <pt x="593" y="648" on="1"/>
        <pt x="593" y="622" on="0"/>
        <pt x="595" y="546" on="0"/>
        <pt x="595" y="520" on="1"/>
        <pt x="595" y="494" on="0"/>
        <pt x="580" y="464" on="0"/>
        <pt x="561" y="464" on="1"/>
        <pt x="544" y="464" on="0"/>
        <pt x="525" y="493" on="0"/>
        <pt x="525" y="517" on="1"/>
        <pt x="525" y="572" on="0"/>
        <pt x="505" y="667" on="0"/>
        <pt x="461" y="737" on="0"/>
        <pt x="391" y="777" on="0"/>
        <pt x="341" y="777" on="1"/>
        <pt x="294" y="777" on="0"/>
        <pt x="211" y="718" on="0"/>
        <pt x="148" y="617" on="0"/>
        <pt x="112" y="481" on="0"/>
        <pt x="112" y="404" on="1"/>
        <pt x="112" y="339" on="0"/>
        <pt x="137" y="211" on="0"/>
        <pt x="192" y="111" on="0"/>
        <pt x="281" y="49" on="0"/>
        <pt x="345" y="49" on="1"/>
        <pt x="382" y="49" on="0"/>
        <pt x="451" y="77" on="0"/>
        <pt x="505" y="125" on="0"/>
        <pt x="537" y="189" on="0"/>
        <pt x="537" y="225" on="1"/>
        <pt x="537" y="242" on="0"/>
        <pt x="531" y="254" on="0"/>
      </contour>
    </TTGlyph>
    <TTGlyph name="Gcommaaccent" xMin="38" yMin="-230" xMax="606" yMax="838">
      <component glyphName=".ttfautohint" x="38" y="0" flags="0x0"/>
      <component glyphName="G" x="1" y="0" flags="0x4"/>
      <component glyphName="comma" x="256" y="-139" flags="0x4"/>
    </TTGlyph>
    <TTGlyph name="Gdotaccent" xMin="37" yMin="-14" xMax="605" yMax="972">
      <component glyphName=".ttfautohint" x="37" y="0" flags="0x0"/>
      <component glyphName="G" x="0" y="0" flags="0x204"/>
      <component glyphName="dotaccent" x="293" y="336" flags="0x4"/>
    </TTGlyph>
    <TTGlyph name="H" xMin="39" yMin="-55" xMax="796" yMax="821">
      <contour>
        <pt x="657" y="732" on="1"/>
        <pt x="657" y="713" on="0"/>
        <pt x="656" y="625" on="0"/>
        <pt x="656" y="524" on="0"/>
        <pt x="655" y="428" on="0"/>
        <pt x="655" y="401" on="1"/>
        <pt x="655" y="333" on="0"/>
        <pt x="658" y="198" on="0"/>
        <pt x="662" y="85" on="0"/>
        <pt x="665" y="6" on="0"/>
        <pt x="665" y="-4" on="1"/>
        <pt x="761" y="-4" on="1"/>
        <pt x="772" y="-4" on="0"/>
        <pt x="796" y="-15" on="0"/>
        <pt x="796" y="-32" on="1"/>
        <pt x="796" y="-46" on="0"/>
        <pt x="781" y="-55" on="0"/>
        <pt x="771" y="-55" on="1"/>
        <pt x="553" y="-55" on="1"/>
        <pt x="539" y="-55" on="0"/>
        <pt x="512" y="-48" on="0"/>
        <pt x="512" y="-32" on="1"/>
        <pt x="512" y="-17" on="0"/>
        <pt x="532" y="-7" on="0"/>
        <pt x="541" y="-7" on="1"/>
        <pt x="548" y="-7" on="0"/>
        <pt x="563" y="-6" on="0"/>
        <pt x="576" y="3" on="0"/>
        <pt x="585" y="22" on="0"/>
        <pt x="585" y="39" on="1"/>
        <pt x="585" y="386" on="1"/>
        <pt x="553" y="386" on="0"/>
        <pt x="522" y="387" on="1"/>
        <pt x="496" y="387" on="0"/>
        <pt x="437" y="388" on="0"/>
        <pt x="415" y="388" on="1"/>
        <pt x="364" y="388" on="0"/>
        <pt x="262" y="387" on="0"/>
        <pt x="211" y="386" on="1"/>
        <pt x="211" y="51" on="1"/>
        <pt x="307" y="51" on="1"/>
        <pt x="326" y="51" on="0"/>
        <pt x="342" y="37" on="0"/>
        <pt x="342" y="27" on="1"/>
        <pt x="342" y="10" on="0"/>
        <pt x="327" y="0" on="0"/>
        <pt x="317" y="0" on="1"/>
        <pt x="95" y="0" on="1"/>
        <pt x="81" y="0" on="0"/>
        <pt x="54" y="10" on="0"/>
        <pt x="54" y="27" on="1"/>
        <pt x="54" y="41" on="0"/>
        <pt x="74" y="48" on="0"/>
        <pt x="83" y="48" on="1"/>
        <pt x="90" y="48" on="0"/>
        <pt x="109" y="49" on="0"/>
        <pt x="125" y="58" on="0"/>
        <pt x="136" y="77" on="0"/>
        <pt x="136" y="94" on="1"/>
        <pt x="136" y="171" on="0"/>
        <pt x="140" y="319" on="0"/>
        <pt x="140" y="401" on="1"/>
        <pt x="140" y="483" on="0"/>
        <pt x="136" y="666" on="0"/>
        <pt x="136" y="748" on="1"/>
        <pt x="136" y="757" on="0"/>
        <pt x="123" y="766" on="0"/>
        <pt x="104" y="770" on="0"/>
        <pt x="83" y="771" on="0"/>
        <pt x="76" y="771" on="1"/>
        <pt x="65" y="771" on="0"/>
        <pt x="39" y="781" on="0"/>
        <pt x="39" y="796" on="1"/>
        <pt x="39" y="814" on="0"/>
        <pt x="67" y="821" on="0"/>
        <pt x="76" y="821" on="1"/>
        <pt x="268" y="821" on="1"/>
        <pt x="300" y="821" on="0"/>
        <pt x="324" y="810" on="0"/>
        <pt x="324" y="796" on="1"/>
        <pt x="324" y="780" on="0"/>
        <pt x="294" y="771" on="0"/>
        <pt x="282" y="771" on="1"/>
        <pt x="277" y="771" on="0"/>
        <pt x="254" y="770" on="0"/>
        <pt x="230" y="766" on="0"/>
        <pt x="211" y="755" on="0"/>
        <pt x="211" y="746" on="1"/>
        <pt x="211" y="454" on="1"/>
        <pt x="262" y="452" on="0"/>
        <pt x="364" y="452" on="0"/>
        <pt x="415" y="452" on="1"/>
        <pt x="437" y="452" on="0"/>
        <pt x="495" y="452" on="0"/>
        <pt x="548" y="453" on="0"/>
        <pt x="583" y="454" on="0"/>
        <pt x="582" y="454" on="1"/>
        <pt x="582" y="734" on="1"/>
        <pt x="582" y="743" on="0"/>
        <pt x="572" y="752" on="0"/>
        <pt x="557" y="756" on="0"/>
        <pt x="539" y="757" on="0"/>
        <pt x="532" y="757" on="1"/>
        <pt x="521" y="757" on="0"/>
        <pt x="495" y="768" on="0"/>
        <pt x="495" y="782" on="1"/>
        <pt x="495" y="797" on="0"/>
        <pt x="523" y="807" on="0"/>
        <pt x="532" y="807" on="1"/>
        <pt x="724" y="807" on="1"/>
        <pt x="756" y="807" on="0"/>
        <pt x="780" y="797" on="0"/>
        <pt x="780" y="782" on="1"/>
        <pt x="780" y="765" on="0"/>
        <pt x="750" y="757" on="0"/>
        <pt x="738" y="757" on="1"/>
        <pt x="733" y="757" on="0"/>
        <pt x="707" y="756" on="0"/>
        <pt x="679" y="752" on="0"/>
        <pt x="657" y="741" on="0"/>
      </contour>
    </TTGlyph>
    <TTGlyph name="Hbar" xMin="41" yMin="-55" xMax="798" yMax="821">
      <contour>
        <pt x="710" y="625" on="1"/>
        <pt x="718" y="625" on="0"/>
        <pt x="731" y="607" on="0"/>
        <pt x="731" y="595" on="1"/>
        <pt x="731" y="587" on="0"/>
        <pt x="719" y="560" on="0"/>
        <pt x="702" y="560" on="1"/>
        <pt x="689" y="560" on="0"/>
        <pt x="597" y="560" on="0"/>
        <pt x="473" y="560" on="0"/>
        <pt x="333" y="559" on="0"/>
        <pt x="210" y="559" on="0"/>
        <pt x="121" y="559" on="0"/>
        <pt x="109" y="559" on="1"/>
        <pt x="98" y="559" on="0"/>
        <pt x="83" y="581" on="0"/>
        <pt x="83" y="592" on="1"/>
        <pt x="83" y="603" on="0"/>
        <pt x="95" y="624" on="0"/>
        <pt x="109" y="624" on="1"/>
        <pt x="114" y="624" on="0"/>
        <pt x="158" y="624" on="0"/>
        <pt x="219" y="623" on="0"/>
        <pt x="291" y="623" on="0"/>
        <pt x="355" y="622" on="0"/>
        <pt x="404" y="622" on="0"/>
        <pt x="413" y="622" on="1"/>
        <pt x="427" y="622" on="0"/>
        <pt x="477" y="622" on="0"/>
        <pt x="538" y="623" on="0"/>
        <pt x="603" y="624" on="0"/>
        <pt x="659" y="625" on="0"/>
        <pt x="702" y="625" on="0"/>
      </contour>
      <contour>
        <pt x="659" y="732" on="1"/>
        <pt x="659" y="713" on="0"/>
        <pt x="658" y="625" on="0"/>
        <pt x="658" y="524" on="0"/>
        <pt x="657" y="428" on="0"/>
        <pt x="657" y="401" on="1"/>
        <pt x="657" y="333" on="0"/>
        <pt x="660" y="198" on="0"/>
        <pt x="664" y="85" on="0"/>
        <pt x="667" y="6" on="0"/>
        <pt x="667" y="-4" on="1"/>
        <pt x="763" y="-4" on="1"/>
        <pt x="774" y="-4" on="0"/>
        <pt x="798" y="-15" on="0"/>
        <pt x="798" y="-32" on="1"/>
        <pt x="798" y="-46" on="0"/>
        <pt x="783" y="-55" on="0"/>
        <pt x="773" y="-55" on="1"/>
        <pt x="555" y="-55" on="1"/>
        <pt x="541" y="-55" on="0"/>
        <pt x="514" y="-48" on="0"/>
        <pt x="514" y="-32" on="1"/>
        <pt x="514" y="-17" on="0"/>
        <pt x="534" y="-7" on="0"/>
        <pt x="543" y="-7" on="1"/>
        <pt x="550" y="-7" on="0"/>
        <pt x="565" y="-6" on="0"/>
        <pt x="578" y="3" on="0"/>
        <pt x="587" y="22" on="0"/>
        <pt x="587" y="39" on="1"/>
        <pt x="587" y="386" on="1"/>
        <pt x="555" y="386" on="0"/>
        <pt x="524" y="387" on="1"/>
        <pt x="498" y="387" on="0"/>
        <pt x="439" y="388" on="0"/>
        <pt x="417" y="388" on="1"/>
        <pt x="366" y="388" on="0"/>
        <pt x="264" y="387" on="0"/>
        <pt x="213" y="386" on="1"/>
        <pt x="213" y="51" on="1"/>
        <pt x="309" y="51" on="1"/>
        <pt x="328" y="51" on="0"/>
        <pt x="344" y="37" on="0"/>
        <pt x="344" y="27" on="1"/>
        <pt x="344" y="10" on="0"/>
        <pt x="329" y="0" on="0"/>
        <pt x="319" y="0" on="1"/>
        <pt x="97" y="0" on="1"/>
        <pt x="83" y="0" on="0"/>
        <pt x="56" y="10" on="0"/>
        <pt x="56" y="27" on="1"/>
        <pt x="56" y="41" on="0"/>
        <pt x="76" y="48" on="0"/>
        <pt x="85" y="48" on="1"/>
        <pt x="92" y="48" on="0"/>
        <pt x="111" y="49" on="0"/>
        <pt x="127" y="58" on="0"/>
        <pt x="138" y="77" on="0"/>
        <pt x="138" y="94" on="1"/>
        <pt x="138" y="171" on="0"/>
        <pt x="142" y="319" on="0"/>
        <pt x="142" y="401" on="1"/>
        <pt x="142" y="483" on="0"/>
        <pt x="138" y="666" on="0"/>
        <pt x="138" y="748" on="1"/>
        <pt x="138" y="757" on="0"/>
        <pt x="125" y="766" on="0"/>
        <pt x="106" y="770" on="0"/>
        <pt x="85" y="771" on="0"/>
        <pt x="78" y="771" on="1"/>
        <pt x="67" y="771" on="0"/>
        <pt x="41" y="781" on="0"/>
        <pt x="41" y="796" on="1"/>
        <pt x="41" y="814" on="0"/>
        <pt x="69" y="821" on="0"/>
        <pt x="78" y="821" on="1"/>
        <pt x="270" y="821" on="1"/>
        <pt x="302" y="821" on="0"/>
        <pt x="326" y="810" on="0"/>
        <pt x="326" y="796" on="1"/>
        <pt x="326" y="780" on="0"/>
        <pt x="296" y="771" on="0"/>
        <pt x="284" y="771" on="1"/>
        <pt x="279" y="771" on="0"/>
        <pt x="256" y="770" on="0"/>
        <pt x="232" y="766" on="0"/>
        <pt x="213" y="755" on="0"/>
        <pt x="213" y="746" on="1"/>
        <pt x="213" y="454" on="1"/>
        <pt x="264" y="452" on="0"/>
        <pt x="366" y="452" on="0"/>
        <pt x="417" y="452" on="1"/>
        <pt x="439" y="452" on="0"/>
        <pt x="497" y="452" on="0"/>
        <pt x="550" y="453" on="0"/>
        <pt x="585" y="454" on="0"/>
        <pt x="584" y="454" on="1"/>
        <pt x="584" y="734" on="1"/>
        <pt x="584" y="743" on="0"/>
        <pt x="574" y="752" on="0"/>
        <pt x="559" y="756" on="0"/>
        <pt x="541" y="757" on="0"/>
        <pt x="534" y="757" on="1"/>
        <pt x="523" y="757" on="0"/>
        <pt x="497" y="768" on="0"/>
        <pt x="497" y="782" on="1"/>
        <pt x="497" y="797" on="0"/>
        <pt x="525" y="807" on="0"/>
        <pt x="534" y="807" on="1"/>
        <pt x="726" y="807" on="1"/>
        <pt x="758" y="807" on="0"/>
        <pt x="782" y="797" on="0"/>
        <pt x="782" y="782" on="1"/>
        <pt x="782" y="765" on="0"/>
        <pt x="752" y="757" on="0"/>
        <pt x="740" y="757" on="1"/>
        <pt x="735" y="757" on="0"/>
        <pt x="709" y="756" on="0"/>
        <pt x="681" y="752" on="0"/>
        <pt x="659" y="741" on="0"/>
      </contour>
    </TTGlyph>
    <TTGlyph name="Hcircumflex" xMin="39" yMin="-55" xMax="796" yMax="972">
      <contour>
        <pt x="533" y="847" on="1"/>
        <pt x="528" y="847" on="0"/>
        <pt x="502" y="855" on="0"/>
        <pt x="468" y="869" on="0"/>
        <pt x="430" y="888" on="0"/>
        <pt x="413" y="898" on="1"/>
        <pt x="396" y="888" on="0"/>
        <pt x="358" y="869" on="0"/>
        <pt x="325" y="855" on="0"/>
        <pt x="299" y="847" on="0"/>
        <pt x="294" y="847" on="1"/>
        <pt x="283" y="847" on="0"/>
        <pt x="283" y="860" on="1"/>
        <pt x="283" y="876" on="0"/>
        <pt x="318" y="915" on="0"/>
        <pt x="363" y="949" on="0"/>
        <pt x="405" y="972" on="0"/>
        <pt x="413" y="972" on="1"/>
        <pt x="422" y="972" on="0"/>
        <pt x="465" y="948" on="0"/>
        <pt x="510" y="915" on="0"/>
        <pt x="544" y="877" on="0"/>
        <pt x="544" y="864" on="1"/>
        <pt x="544" y="857" on="0"/>
        <pt x="539" y="847" on="0"/>
      </contour>
      <contour>
        <pt x="657" y="732" on="1"/>
        <pt x="657" y="713" on="0"/>
        <pt x="656" y="625" on="0"/>
        <pt x="656" y="524" on="0"/>
        <pt x="655" y="428" on="0"/>
        <pt x="655" y="401" on="1"/>
        <pt x="655" y="333" on="0"/>
        <pt x="658" y="198" on="0"/>
        <pt x="662" y="85" on="0"/>
        <pt x="665" y="6" on="0"/>
        <pt x="665" y="-4" on="1"/>
        <pt x="761" y="-4" on="1"/>
        <pt x="772" y="-4" on="0"/>
        <pt x="796" y="-15" on="0"/>
        <pt x="796" y="-32" on="1"/>
        <pt x="796" y="-46" on="0"/>
        <pt x="781" y="-55" on="0"/>
        <pt x="771" y="-55" on="1"/>
        <pt x="553" y="-55" on="1"/>
        <pt x="539" y="-55" on="0"/>
        <pt x="512" y="-48" on="0"/>
        <pt x="512" y="-32" on="1"/>
        <pt x="512" y="-17" on="0"/>
        <pt x="532" y="-7" on="0"/>
        <pt x="541" y="-7" on="1"/>
        <pt x="548" y="-7" on="0"/>
        <pt x="563" y="-6" on="0"/>
        <pt x="576" y="3" on="0"/>
        <pt x="585" y="22" on="0"/>
        <pt x="585" y="39" on="1"/>
        <pt x="585" y="386" on="1"/>
        <pt x="553" y="386" on="0"/>
        <pt x="522" y="387" on="1"/>
        <pt x="496" y="387" on="0"/>
        <pt x="437" y="388" on="0"/>
        <pt x="415" y="388" on="1"/>
        <pt x="364" y="388" on="0"/>
        <pt x="262" y="387" on="0"/>
        <pt x="211" y="386" on="1"/>
        <pt x="211" y="51" on="1"/>
        <pt x="307" y="51" on="1"/>
        <pt x="326" y="51" on="0"/>
        <pt x="342" y="37" on="0"/>
        <pt x="342" y="27" on="1"/>
        <pt x="342" y="10" on="0"/>
        <pt x="327" y="0" on="0"/>
        <pt x="317" y="0" on="1"/>
        <pt x="95" y="0" on="1"/>
        <pt x="81" y="0" on="0"/>
        <pt x="54" y="10" on="0"/>
        <pt x="54" y="27" on="1"/>
        <pt x="54" y="41" on="0"/>
        <pt x="74" y="48" on="0"/>
        <pt x="83" y="48" on="1"/>
        <pt x="90" y="48" on="0"/>
        <pt x="109" y="49" on="0"/>
        <pt x="125" y="58" on="0"/>
        <pt x="136" y="77" on="0"/>
        <pt x="136" y="94" on="1"/>
        <pt x="136" y="171" on="0"/>
        <pt x="140" y="319" on="0"/>
        <pt x="140" y="401" on="1"/>
        <pt x="140" y="483" on="0"/>
        <pt x="136" y="666" on="0"/>
        <pt x="136" y="748" on="1"/>
        <pt x="136" y="757" on="0"/>
        <pt x="123" y="766" on="0"/>
        <pt x="104" y="770" on="0"/>
        <pt x="83" y="771" on="0"/>
        <pt x="76" y="771" on="1"/>
        <pt x="65" y="771" on="0"/>
        <pt x="39" y="781" on="0"/>
        <pt x="39" y="796" on="1"/>
        <pt x="39" y="814" on="0"/>
        <pt x="67" y="821" on="0"/>
        <pt x="76" y="821" on="1"/>
        <pt x="268" y="821" on="1"/>
        <pt x="300" y="821" on="0"/>
        <pt x="324" y="810" on="0"/>
        <pt x="324" y="796" on="1"/>
        <pt x="324" y="780" on="0"/>
        <pt x="294" y="771" on="0"/>
        <pt x="282" y="771" on="1"/>
        <pt x="277" y="771" on="0"/>
        <pt x="254" y="770" on="0"/>
        <pt x="230" y="766" on="0"/>
        <pt x="211" y="755" on="0"/>
        <pt x="211" y="746" on="1"/>
        <pt x="211" y="454" on="1"/>
        <pt x="262" y="452" on="0"/>
        <pt x="364" y="452" on="0"/>
        <pt x="415" y="452" on="1"/>
        <pt x="437" y="452" on="0"/>
        <pt x="495" y="452" on="0"/>
        <pt x="548" y="453" on="0"/>
        <pt x="583" y="454" on="0"/>
        <pt x="582" y="454" on="1"/>
        <pt x="582" y="734" on="1"/>
        <pt x="582" y="743" on="0"/>
        <pt x="572" y="752" on="0"/>
        <pt x="557" y="756" on="0"/>
        <pt x="539" y="757" on="0"/>
        <pt x="532" y="757" on="1"/>
        <pt x="521" y="757" on="0"/>
        <pt x="495" y="768" on="0"/>
        <pt x="495" y="782" on="1"/>
        <pt x="495" y="797" on="0"/>
        <pt x="523" y="807" on="0"/>
        <pt x="532" y="807" on="1"/>
        <pt x="724" y="807" on="1"/>
        <pt x="756" y="807" on="0"/>
        <pt x="780" y="797" on="0"/>
        <pt x="780" y="782" on="1"/>
        <pt x="780" y="765" on="0"/>
        <pt x="750" y="757" on="0"/>
        <pt x="738" y="757" on="1"/>
        <pt x="733" y="757" on="0"/>
        <pt x="707" y="756" on="0"/>
        <pt x="679" y="752" on="0"/>
        <pt x="657" y="741" on="0"/>
      </contour>
    </TTGlyph>
    <TTGlyph name="I" xMin="27" yMin="0" xMax="335" yMax="821">
      <contour>
        <pt x="214" y="51" on="1"/>
        <pt x="305" y="51" on="1"/>
        <pt x="316" y="51" on="0"/>
        <pt x="335" y="37" on="0"/>
        <pt x="335" y="23" on="1"/>
        <pt x="335" y="17" on="0"/>
        <pt x="328" y="0" on="0"/>
        <pt x="315" y="0" on="1"/>
        <pt x="83" y="0" on="1"/>
        <pt x="68" y="0" on="0"/>
        <pt x="42" y="8" on="0"/>
        <pt x="42" y="23" on="1"/>
        <pt x="42" y="37" on="0"/>
        <pt x="62" y="48" on="0"/>
        <pt x="71" y="48" on="1"/>
        <pt x="79" y="48" on="0"/>
        <pt x="102" y="49" on="0"/>
        <pt x="124" y="58" on="0"/>
        <pt x="139" y="77" on="0"/>
        <pt x="139" y="94" on="1"/>
        <pt x="139" y="171" on="0"/>
        <pt x="143" y="319" on="0"/>
        <pt x="143" y="401" on="1"/>
        <pt x="143" y="484" on="0"/>
        <pt x="139" y="665" on="0"/>
        <pt x="139" y="748" on="1"/>
        <pt x="139" y="757" on="0"/>
        <pt x="122" y="766" on="0"/>
        <pt x="98" y="770" on="0"/>
        <pt x="73" y="771" on="0"/>
        <pt x="64" y="771" on="1"/>
        <pt x="59" y="771" on="0"/>
        <pt x="46" y="773" on="0"/>
        <pt x="35" y="778" on="0"/>
        <pt x="27" y="788" on="0"/>
        <pt x="27" y="796" on="1"/>
        <pt x="27" y="813" on="0"/>
        <pt x="55" y="821" on="0"/>
        <pt x="64" y="821" on="1"/>
        <pt x="266" y="821" on="1"/>
        <pt x="298" y="821" on="0"/>
        <pt x="317" y="809" on="0"/>
        <pt x="317" y="796" on="1"/>
        <pt x="317" y="782" on="0"/>
        <pt x="292" y="771" on="0"/>
        <pt x="280" y="771" on="1"/>
        <pt x="276" y="771" on="0"/>
        <pt x="255" y="770" on="0"/>
        <pt x="232" y="766" on="0"/>
        <pt x="214" y="755" on="0"/>
        <pt x="214" y="746" on="1"/>
      </contour>
    </TTGlyph>
    <TTGlyph name="IJ" xMin="27" yMin="-14" xMax="851" yMax="821">
      <component glyphName=".ttfautohint" x="27" y="0" flags="0x0"/>
      <component glyphName="I" x="0" y="0" flags="0x4"/>
      <component glyphName="J" x="354" y="0" flags="0x4"/>
    </TTGlyph>
    <TTGlyph name="Iacute" xMin="27" yMin="0" xMax="335" yMax="972">
      <contour>
        <pt x="240" y="941" on="1"/>
        <pt x="240" y="929" on="0"/>
        <pt x="212" y="899" on="0"/>
        <pt x="175" y="872" on="0"/>
        <pt x="136" y="854" on="0"/>
        <pt x="126" y="854" on="1"/>
        <pt x="115" y="854" on="0"/>
        <pt x="102" y="867" on="0"/>
        <pt x="102" y="877" on="1"/>
        <pt x="102" y="887" on="0"/>
        <pt x="127" y="919" on="0"/>
        <pt x="161" y="950" on="0"/>
        <pt x="197" y="972" on="0"/>
        <pt x="208" y="972" on="1"/>
        <pt x="223" y="972" on="0"/>
        <pt x="240" y="955" on="0"/>
      </contour>
      <contour>
        <pt x="214" y="51" on="1"/>
        <pt x="305" y="51" on="1"/>
        <pt x="316" y="51" on="0"/>
        <pt x="335" y="37" on="0"/>
        <pt x="335" y="23" on="1"/>
        <pt x="335" y="17" on="0"/>
        <pt x="328" y="0" on="0"/>
        <pt x="315" y="0" on="1"/>
        <pt x="83" y="0" on="1"/>
        <pt x="68" y="0" on="0"/>
        <pt x="42" y="8" on="0"/>
        <pt x="42" y="23" on="1"/>
        <pt x="42" y="37" on="0"/>
        <pt x="62" y="48" on="0"/>
        <pt x="71" y="48" on="1"/>
        <pt x="79" y="48" on="0"/>
        <pt x="102" y="49" on="0"/>
        <pt x="124" y="58" on="0"/>
        <pt x="139" y="77" on="0"/>
        <pt x="139" y="94" on="1"/>
        <pt x="139" y="171" on="0"/>
        <pt x="143" y="319" on="0"/>
        <pt x="143" y="401" on="1"/>
        <pt x="143" y="484" on="0"/>
        <pt x="139" y="665" on="0"/>
        <pt x="139" y="748" on="1"/>
        <pt x="139" y="757" on="0"/>
        <pt x="122" y="766" on="0"/>
        <pt x="98" y="770" on="0"/>
        <pt x="73" y="771" on="0"/>
        <pt x="64" y="771" on="1"/>
        <pt x="59" y="771" on="0"/>
        <pt x="46" y="773" on="0"/>
        <pt x="35" y="778" on="0"/>
        <pt x="27" y="788" on="0"/>
        <pt x="27" y="796" on="1"/>
        <pt x="27" y="813" on="0"/>
        <pt x="55" y="821" on="0"/>
        <pt x="64" y="821" on="1"/>
        <pt x="266" y="821" on="1"/>
        <pt x="298" y="821" on="0"/>
        <pt x="317" y="809" on="0"/>
        <pt x="317" y="796" on="1"/>
        <pt x="317" y="782" on="0"/>
        <pt x="292" y="771" on="0"/>
        <pt x="280" y="771" on="1"/>
        <pt x="276" y="771" on="0"/>
        <pt x="255" y="770" on="0"/>
        <pt x="232" y="766" on="0"/>
        <pt x="214" y="755" on="0"/>
        <pt x="214" y="746" on="1"/>
      </contour>
    </TTGlyph>
    <TTGlyph name="Ibreve" xMin="27" yMin="0" xMax="335" yMax="972">
      <component glyphName=".ttfautohint" x="27" y="0" flags="0x0"/>
      <component glyphName="I" x="0" y="0" flags="0x204"/>
      <component glyphName="breve" x="60" y="355" flags="0x4"/>
    </TTGlyph>
    <TTGlyph name="Icircumflex" xMin="27" yMin="0" xMax="335" yMax="972">
      <contour>
        <pt x="291" y="847" on="1"/>
        <pt x="286" y="847" on="0"/>
        <pt x="260" y="855" on="0"/>
        <pt x="226" y="869" on="0"/>
        <pt x="188" y="888" on="0"/>
        <pt x="171" y="898" on="1"/>
        <pt x="154" y="888" on="0"/>
        <pt x="116" y="869" on="0"/>
        <pt x="83" y="855" on="0"/>
        <pt x="57" y="847" on="0"/>
        <pt x="52" y="847" on="1"/>
        <pt x="41" y="847" on="0"/>
        <pt x="41" y="860" on="1"/>
        <pt x="41" y="876" on="0"/>
        <pt x="76" y="915" on="0"/>
        <pt x="121" y="949" on="0"/>
        <pt x="163" y="972" on="0"/>
        <pt x="171" y="972" on="1"/>
        <pt x="180" y="972" on="0"/>
        <pt x="223" y="948" on="0"/>
        <pt x="268" y="915" on="0"/>
        <pt x="302" y="877" on="0"/>
        <pt x="302" y="864" on="1"/>
        <pt x="302" y="857" on="0"/>
        <pt x="297" y="847" on="0"/>
      </contour>
      <contour>
        <pt x="214" y="51" on="1"/>
        <pt x="305" y="51" on="1"/>
        <pt x="316" y="51" on="0"/>
        <pt x="335" y="37" on="0"/>
        <pt x="335" y="23" on="1"/>
        <pt x="335" y="17" on="0"/>
        <pt x="328" y="0" on="0"/>
        <pt x="315" y="0" on="1"/>
        <pt x="83" y="0" on="1"/>
        <pt x="68" y="0" on="0"/>
        <pt x="42" y="8" on="0"/>
        <pt x="42" y="23" on="1"/>
        <pt x="42" y="37" on="0"/>
        <pt x="62" y="48" on="0"/>
        <pt x="71" y="48" on="1"/>
        <pt x="79" y="48" on="0"/>
        <pt x="102" y="49" on="0"/>
        <pt x="124" y="58" on="0"/>
        <pt x="139" y="77" on="0"/>
        <pt x="139" y="94" on="1"/>
        <pt x="139" y="171" on="0"/>
        <pt x="143" y="319" on="0"/>
        <pt x="143" y="401" on="1"/>
        <pt x="143" y="484" on="0"/>
        <pt x="139" y="665" on="0"/>
        <pt x="139" y="748" on="1"/>
        <pt x="139" y="757" on="0"/>
        <pt x="122" y="766" on="0"/>
        <pt x="98" y="770" on="0"/>
        <pt x="73" y="771" on="0"/>
        <pt x="64" y="771" on="1"/>
        <pt x="59" y="771" on="0"/>
        <pt x="46" y="773" on="0"/>
        <pt x="35" y="778" on="0"/>
        <pt x="27" y="788" on="0"/>
        <pt x="27" y="796" on="1"/>
        <pt x="27" y="813" on="0"/>
        <pt x="55" y="821" on="0"/>
        <pt x="64" y="821" on="1"/>
        <pt x="266" y="821" on="1"/>
        <pt x="298" y="821" on="0"/>
        <pt x="317" y="809" on="0"/>
        <pt x="317" y="796" on="1"/>
        <pt x="317" y="782" on="0"/>
        <pt x="292" y="771" on="0"/>
        <pt x="280" y="771" on="1"/>
        <pt x="276" y="771" on="0"/>
        <pt x="255" y="770" on="0"/>
        <pt x="232" y="766" on="0"/>
        <pt x="214" y="755" on="0"/>
        <pt x="214" y="746" on="1"/>
      </contour>
    </TTGlyph>
    <TTGlyph name="Idieresis" xMin="17" yMin="0" xMax="335" yMax="972">
      <contour>
        <pt x="17" y="916" on="1"/>
        <pt x="17" y="923" on="0"/>
        <pt x="23" y="942" on="0"/>
        <pt x="37" y="960" on="0"/>
        <pt x="58" y="972" on="0"/>
        <pt x="73" y="972" on="1"/>
        <pt x="93" y="972" on="0"/>
        <pt x="122" y="943" on="0"/>
        <pt x="122" y="920" on="1"/>
        <pt x="122" y="884" on="0"/>
        <pt x="85" y="859" on="0"/>
        <pt x="66" y="859" on="1"/>
        <pt x="46" y="859" on="0"/>
        <pt x="17" y="891" on="0"/>
      </contour>
      <contour>
        <pt x="224" y="904" on="1"/>
        <pt x="224" y="911" on="0"/>
        <pt x="230" y="930" on="0"/>
        <pt x="244" y="948" on="0"/>
        <pt x="265" y="960" on="0"/>
        <pt x="280" y="960" on="1"/>
        <pt x="300" y="960" on="0"/>
        <pt x="329" y="931" on="0"/>
        <pt x="329" y="908" on="1"/>
        <pt x="329" y="872" on="0"/>
        <pt x="292" y="847" on="0"/>
        <pt x="273" y="847" on="1"/>
        <pt x="253" y="847" on="0"/>
        <pt x="224" y="879" on="0"/>
      </contour>
      <contour>
        <pt x="214" y="51" on="1"/>
        <pt x="305" y="51" on="1"/>
        <pt x="316" y="51" on="0"/>
        <pt x="335" y="37" on="0"/>
        <pt x="335" y="23" on="1"/>
        <pt x="335" y="17" on="0"/>
        <pt x="328" y="0" on="0"/>
        <pt x="315" y="0" on="1"/>
        <pt x="83" y="0" on="1"/>
        <pt x="68" y="0" on="0"/>
        <pt x="42" y="8" on="0"/>
        <pt x="42" y="23" on="1"/>
        <pt x="42" y="37" on="0"/>
        <pt x="62" y="48" on="0"/>
        <pt x="71" y="48" on="1"/>
        <pt x="79" y="48" on="0"/>
        <pt x="102" y="49" on="0"/>
        <pt x="124" y="58" on="0"/>
        <pt x="139" y="77" on="0"/>
        <pt x="139" y="94" on="1"/>
        <pt x="139" y="171" on="0"/>
        <pt x="143" y="319" on="0"/>
        <pt x="143" y="401" on="1"/>
        <pt x="143" y="484" on="0"/>
        <pt x="139" y="665" on="0"/>
        <pt x="139" y="748" on="1"/>
        <pt x="139" y="757" on="0"/>
        <pt x="122" y="766" on="0"/>
        <pt x="98" y="770" on="0"/>
        <pt x="73" y="771" on="0"/>
        <pt x="64" y="771" on="1"/>
        <pt x="59" y="771" on="0"/>
        <pt x="46" y="773" on="0"/>
        <pt x="35" y="778" on="0"/>
        <pt x="27" y="788" on="0"/>
        <pt x="27" y="796" on="1"/>
        <pt x="27" y="813" on="0"/>
        <pt x="55" y="821" on="0"/>
        <pt x="64" y="821" on="1"/>
        <pt x="266" y="821" on="1"/>
        <pt x="298" y="821" on="0"/>
        <pt x="317" y="809" on="0"/>
        <pt x="317" y="796" on="1"/>
        <pt x="317" y="782" on="0"/>
        <pt x="292" y="771" on="0"/>
        <pt x="280" y="771" on="1"/>
        <pt x="276" y="771" on="0"/>
        <pt x="255" y="770" on="0"/>
        <pt x="232" y="766" on="0"/>
        <pt x="214" y="755" on="0"/>
        <pt x="214" y="746" on="1"/>
      </contour>
    </TTGlyph>
    <TTGlyph name="Idotaccent" xMin="27" yMin="0" xMax="335" yMax="972">
      <component glyphName=".ttfautohint" x="27" y="0" flags="0x0"/>
      <component glyphName="I" x="0" y="0" flags="0x204"/>
      <component glyphName="dotaccent" x="107" y="336" flags="0x4"/>
    </TTGlyph>
    <TTGlyph name="Igrave" xMin="27" yMin="0" xMax="335" yMax="972">
      <contour>
        <pt x="103" y="941" on="1"/>
        <pt x="103" y="955" on="0"/>
        <pt x="120" y="972" on="0"/>
        <pt x="135" y="972" on="1"/>
        <pt x="146" y="972" on="0"/>
        <pt x="182" y="950" on="0"/>
        <pt x="216" y="919" on="0"/>
        <pt x="241" y="887" on="0"/>
        <pt x="241" y="877" on="1"/>
        <pt x="241" y="867" on="0"/>
        <pt x="228" y="854" on="0"/>
        <pt x="217" y="854" on="1"/>
        <pt x="206" y="854" on="0"/>
        <pt x="168" y="872" on="0"/>
        <pt x="131" y="899" on="0"/>
        <pt x="103" y="929" on="0"/>
      </contour>
      <contour>
        <pt x="214" y="51" on="1"/>
        <pt x="305" y="51" on="1"/>
        <pt x="316" y="51" on="0"/>
        <pt x="335" y="37" on="0"/>
        <pt x="335" y="23" on="1"/>
        <pt x="335" y="17" on="0"/>
        <pt x="328" y="0" on="0"/>
        <pt x="315" y="0" on="1"/>
        <pt x="83" y="0" on="1"/>
        <pt x="68" y="0" on="0"/>
        <pt x="42" y="8" on="0"/>
        <pt x="42" y="23" on="1"/>
        <pt x="42" y="37" on="0"/>
        <pt x="62" y="48" on="0"/>
        <pt x="71" y="48" on="1"/>
        <pt x="79" y="48" on="0"/>
        <pt x="102" y="49" on="0"/>
        <pt x="124" y="58" on="0"/>
        <pt x="139" y="77" on="0"/>
        <pt x="139" y="94" on="1"/>
        <pt x="139" y="171" on="0"/>
        <pt x="143" y="319" on="0"/>
        <pt x="143" y="401" on="1"/>
        <pt x="143" y="484" on="0"/>
        <pt x="139" y="665" on="0"/>
        <pt x="139" y="748" on="1"/>
        <pt x="139" y="757" on="0"/>
        <pt x="122" y="766" on="0"/>
        <pt x="98" y="770" on="0"/>
        <pt x="73" y="771" on="0"/>
        <pt x="64" y="771" on="1"/>
        <pt x="59" y="771" on="0"/>
        <pt x="46" y="773" on="0"/>
        <pt x="35" y="778" on="0"/>
        <pt x="27" y="788" on="0"/>
        <pt x="27" y="796" on="1"/>
        <pt x="27" y="813" on="0"/>
        <pt x="55" y="821" on="0"/>
        <pt x="64" y="821" on="1"/>
        <pt x="266" y="821" on="1"/>
        <pt x="298" y="821" on="0"/>
        <pt x="317" y="809" on="0"/>
        <pt x="317" y="796" on="1"/>
        <pt x="317" y="782" on="0"/>
        <pt x="292" y="771" on="0"/>
        <pt x="280" y="771" on="1"/>
        <pt x="276" y="771" on="0"/>
        <pt x="255" y="770" on="0"/>
        <pt x="232" y="766" on="0"/>
        <pt x="214" y="755" on="0"/>
        <pt x="214" y="746" on="1"/>
      </contour>
    </TTGlyph>
    <TTGlyph name="Imacron" xMin="27" yMin="0" xMax="335" yMax="942">
      <component glyphName=".ttfautohint" x="27" y="0" flags="0x0"/>
      <component glyphName="I" x="0" y="0" flags="0x204"/>
      <component glyphName="macron" x="26" y="385" flags="0x4"/>
    </TTGlyph>
    <TTGlyph name="Iogonek" xMin="27" yMin="-149" xMax="335" yMax="821">
      <component glyphName=".ttfautohint" x="27" y="0" flags="0x0"/>
      <component glyphName="I" x="0" y="0" flags="0x204"/>
      <component glyphName="ogonek" x="69" y="0" flags="0x4"/>
    </TTGlyph>
    <TTGlyph name="Itilde" xMin="6" yMin="0" xMax="351" yMax="963">
      <component glyphName=".ttfautohint" x="6" y="0" flags="0x0"/>
      <component glyphName="I" x="0" y="0" flags="0x204"/>
      <component glyphName="tilde" x="-5" y="363" flags="0x4"/>
    </TTGlyph>
    <TTGlyph name="J" xMin="-4" yMin="-14" xMax="497" yMax="821">
      <contour>
        <pt x="57" y="135" on="1"/>
        <pt x="57" y="114" on="0"/>
        <pt x="78" y="82" on="0"/>
        <pt x="111" y="61" on="0"/>
        <pt x="152" y="50" on="0"/>
        <pt x="172" y="50" on="1"/>
        <pt x="233" y="50" on="0"/>
        <pt x="299" y="104" on="0"/>
        <pt x="331" y="196" on="0"/>
        <pt x="337" y="314" on="0"/>
        <pt x="337" y="379" on="1"/>
        <pt x="337" y="432" on="0"/>
        <pt x="336" y="553" on="0"/>
        <pt x="335" y="660" on="0"/>
        <pt x="334" y="738" on="0"/>
        <pt x="334" y="748" on="1"/>
        <pt x="334" y="757" on="0"/>
        <pt x="315" y="766" on="0"/>
        <pt x="289" y="770" on="0"/>
        <pt x="259" y="771" on="0"/>
        <pt x="249" y="771" on="1"/>
        <pt x="238" y="771" on="0"/>
        <pt x="212" y="782" on="0"/>
        <pt x="212" y="796" on="1"/>
        <pt x="212" y="813" on="0"/>
        <pt x="240" y="821" on="0"/>
        <pt x="249" y="821" on="1"/>
        <pt x="446" y="821" on="1"/>
        <pt x="478" y="821" on="0"/>
        <pt x="497" y="809" on="0"/>
        <pt x="497" y="796" on="1"/>
        <pt x="497" y="782" on="0"/>
        <pt x="472" y="771" on="0"/>
        <pt x="460" y="771" on="1"/>
        <pt x="457" y="771" on="0"/>
        <pt x="441" y="770" on="0"/>
        <pt x="423" y="766" on="0"/>
        <pt x="409" y="755" on="0"/>
        <pt x="409" y="746" on="1"/>
        <pt x="409" y="279" on="1"/>
        <pt x="409" y="132" on="0"/>
        <pt x="292" y="-14" on="0"/>
        <pt x="167" y="-14" on="1"/>
        <pt x="131" y="-14" on="0"/>
        <pt x="69" y="9" on="0"/>
        <pt x="22" y="49" on="0"/>
        <pt x="-4" y="104" on="0"/>
        <pt x="-4" y="137" on="1"/>
        <pt x="-4" y="194" on="0"/>
        <pt x="48" y="264" on="0"/>
        <pt x="89" y="264" on="1"/>
        <pt x="97" y="264" on="0"/>
        <pt x="116" y="259" on="0"/>
        <pt x="132" y="247" on="0"/>
        <pt x="143" y="229" on="0"/>
        <pt x="143" y="216" on="1"/>
        <pt x="143" y="198" on="0"/>
        <pt x="126" y="170" on="0"/>
        <pt x="107" y="170" on="1"/>
        <pt x="87" y="170" on="0"/>
        <pt x="74" y="182" on="1"/>
        <pt x="66" y="177" on="0"/>
        <pt x="57" y="150" on="0"/>
      </contour>
    </TTGlyph>
    <TTGlyph name="Jcircumflex" xMin="-4" yMin="-14" xMax="497" yMax="972">
      <contour>
        <pt x="478" y="847" on="1"/>
        <pt x="473" y="847" on="0"/>
        <pt x="447" y="855" on="0"/>
        <pt x="413" y="869" on="0"/>
        <pt x="375" y="888" on="0"/>
        <pt x="358" y="898" on="1"/>
        <pt x="341" y="888" on="0"/>
        <pt x="303" y="869" on="0"/>
        <pt x="270" y="855" on="0"/>
        <pt x="244" y="847" on="0"/>
        <pt x="239" y="847" on="1"/>
        <pt x="228" y="847" on="0"/>
        <pt x="228" y="860" on="1"/>
        <pt x="228" y="876" on="0"/>
        <pt x="263" y="915" on="0"/>
        <pt x="308" y="949" on="0"/>
        <pt x="350" y="972" on="0"/>
        <pt x="358" y="972" on="1"/>
        <pt x="367" y="972" on="0"/>
        <pt x="410" y="948" on="0"/>
        <pt x="455" y="915" on="0"/>
        <pt x="489" y="877" on="0"/>
        <pt x="489" y="864" on="1"/>
        <pt x="489" y="857" on="0"/>
        <pt x="484" y="847" on="0"/>
      </contour>
      <contour>
        <pt x="57" y="135" on="1"/>
        <pt x="57" y="114" on="0"/>
        <pt x="78" y="82" on="0"/>
        <pt x="111" y="61" on="0"/>
        <pt x="152" y="50" on="0"/>
        <pt x="172" y="50" on="1"/>
        <pt x="233" y="50" on="0"/>
        <pt x="299" y="104" on="0"/>
        <pt x="331" y="196" on="0"/>
        <pt x="337" y="314" on="0"/>
        <pt x="337" y="379" on="1"/>
        <pt x="337" y="432" on="0"/>
        <pt x="336" y="553" on="0"/>
        <pt x="335" y="660" on="0"/>
        <pt x="334" y="738" on="0"/>
        <pt x="334" y="748" on="1"/>
        <pt x="334" y="757" on="0"/>
        <pt x="315" y="766" on="0"/>
        <pt x="289" y="770" on="0"/>
        <pt x="259" y="771" on="0"/>
        <pt x="249" y="771" on="1"/>
        <pt x="238" y="771" on="0"/>
        <pt x="212" y="782" on="0"/>
        <pt x="212" y="796" on="1"/>
        <pt x="212" y="813" on="0"/>
        <pt x="240" y="821" on="0"/>
        <pt x="249" y="821" on="1"/>
        <pt x="446" y="821" on="1"/>
        <pt x="478" y="821" on="0"/>
        <pt x="497" y="809" on="0"/>
        <pt x="497" y="796" on="1"/>
        <pt x="497" y="782" on="0"/>
        <pt x="472" y="771" on="0"/>
        <pt x="460" y="771" on="1"/>
        <pt x="457" y="771" on="0"/>
        <pt x="441" y="770" on="0"/>
        <pt x="423" y="766" on="0"/>
        <pt x="409" y="755" on="0"/>
        <pt x="409" y="746" on="1"/>
        <pt x="409" y="279" on="1"/>
        <pt x="409" y="132" on="0"/>
        <pt x="292" y="-14" on="0"/>
        <pt x="167" y="-14" on="1"/>
        <pt x="131" y="-14" on="0"/>
        <pt x="69" y="9" on="0"/>
        <pt x="22" y="49" on="0"/>
        <pt x="-4" y="104" on="0"/>
        <pt x="-4" y="137" on="1"/>
        <pt x="-4" y="194" on="0"/>
        <pt x="48" y="264" on="0"/>
        <pt x="89" y="264" on="1"/>
        <pt x="97" y="264" on="0"/>
        <pt x="116" y="259" on="0"/>
        <pt x="132" y="247" on="0"/>
        <pt x="143" y="229" on="0"/>
        <pt x="143" y="216" on="1"/>
        <pt x="143" y="198" on="0"/>
        <pt x="126" y="170" on="0"/>
        <pt x="107" y="170" on="1"/>
        <pt x="87" y="170" on="0"/>
        <pt x="74" y="182" on="1"/>
        <pt x="66" y="177" on="0"/>
        <pt x="57" y="150" on="0"/>
      </contour>
    </TTGlyph>
    <TTGlyph name="K" xMin="38" yMin="-36" xMax="759" yMax="821">
      <contour>
        <pt x="210" y="421" on="1"/>
        <pt x="230" y="440" on="0"/>
        <pt x="289" y="498" on="0"/>
        <pt x="353" y="564" on="0"/>
        <pt x="417" y="631" on="0"/>
        <pt x="468" y="687" on="0"/>
        <pt x="500" y="725" on="0"/>
        <pt x="500" y="730" on="1"/>
        <pt x="500" y="744" on="0"/>
        <pt x="481" y="745" on="0"/>
        <pt x="468" y="746" on="1"/>
        <pt x="458" y="746" on="0"/>
        <pt x="434" y="756" on="0"/>
        <pt x="434" y="770" on="1"/>
        <pt x="434" y="780" on="0"/>
        <pt x="448" y="795" on="0"/>
        <pt x="468" y="795" on="1"/>
        <pt x="736" y="795" on="1"/>
        <pt x="745" y="795" on="0"/>
        <pt x="759" y="783" on="0"/>
        <pt x="759" y="771" on="1"/>
        <pt x="759" y="764" on="0"/>
        <pt x="749" y="750" on="0"/>
        <pt x="739" y="750" on="1"/>
        <pt x="721" y="749" on="0"/>
        <pt x="679" y="748" on="0"/>
        <pt x="640" y="744" on="0"/>
        <pt x="608" y="736" on="0"/>
        <pt x="600" y="729" on="1"/>
        <pt x="564" y="694" on="0"/>
        <pt x="483" y="614" on="0"/>
        <pt x="399" y="528" on="0"/>
        <pt x="315" y="438" on="0"/>
        <pt x="275" y="395" on="1"/>
        <pt x="330" y="323" on="0"/>
        <pt x="383" y="254" on="1"/>
        <pt x="405" y="225" on="0"/>
        <pt x="454" y="163" on="0"/>
        <pt x="502" y="103" on="0"/>
        <pt x="548" y="49" on="0"/>
        <pt x="567" y="28" on="1"/>
        <pt x="575" y="20" on="0"/>
        <pt x="644" y="16" on="0"/>
        <pt x="686" y="16" on="1"/>
        <pt x="709" y="16" on="0"/>
        <pt x="749" y="11" on="0"/>
        <pt x="749" y="-2" on="1"/>
        <pt x="749" y="-11" on="0"/>
        <pt x="735" y="-24" on="0"/>
        <pt x="691" y="-32" on="0"/>
        <pt x="612" y="-36" on="0"/>
        <pt x="547" y="-36" on="1"/>
        <pt x="538" y="-36" on="0"/>
        <pt x="498" y="3" on="0"/>
        <pt x="445" y="67" on="0"/>
        <pt x="381" y="150" on="0"/>
        <pt x="316" y="236" on="0"/>
        <pt x="254" y="320" on="0"/>
        <pt x="228" y="353" on="1"/>
        <pt x="210" y="335" on="1"/>
        <pt x="210" y="50" on="1"/>
        <pt x="306" y="50" on="1"/>
        <pt x="317" y="50" on="0"/>
        <pt x="341" y="40" on="0"/>
        <pt x="341" y="27" on="1"/>
        <pt x="341" y="13" on="0"/>
        <pt x="326" y="0" on="0"/>
        <pt x="316" y="0" on="1"/>
        <pt x="99" y="0" on="1"/>
        <pt x="92" y="0" on="0"/>
        <pt x="76" y="1" on="0"/>
        <pt x="62" y="5" on="0"/>
        <pt x="53" y="14" on="0"/>
        <pt x="53" y="23" on="1"/>
        <pt x="53" y="40" on="0"/>
        <pt x="78" y="48" on="0"/>
        <pt x="87" y="48" on="1"/>
        <pt x="93" y="48" on="0"/>
        <pt x="109" y="49" on="0"/>
        <pt x="124" y="58" on="0"/>
        <pt x="135" y="77" on="0"/>
        <pt x="135" y="94" on="1"/>
        <pt x="135" y="171" on="0"/>
        <pt x="139" y="319" on="0"/>
        <pt x="139" y="401" on="1"/>
        <pt x="139" y="484" on="0"/>
        <pt x="135" y="665" on="0"/>
        <pt x="135" y="748" on="1"/>
        <pt x="135" y="757" on="0"/>
        <pt x="122" y="766" on="0"/>
        <pt x="104" y="770" on="0"/>
        <pt x="85" y="771" on="0"/>
        <pt x="79" y="771" on="1"/>
        <pt x="68" y="771" on="0"/>
        <pt x="38" y="782" on="0"/>
        <pt x="38" y="796" on="1"/>
        <pt x="38" y="805" on="0"/>
        <pt x="47" y="815" on="0"/>
        <pt x="61" y="820" on="0"/>
        <pt x="74" y="821" on="0"/>
        <pt x="79" y="821" on="1"/>
        <pt x="267" y="821" on="1"/>
        <pt x="299" y="821" on="0"/>
        <pt x="323" y="811" on="0"/>
        <pt x="323" y="796" on="1"/>
        <pt x="323" y="788" on="0"/>
        <pt x="314" y="778" on="0"/>
        <pt x="302" y="773" on="0"/>
        <pt x="287" y="771" on="0"/>
        <pt x="281" y="771" on="1"/>
        <pt x="276" y="771" on="0"/>
        <pt x="253" y="770" on="0"/>
        <pt x="229" y="766" on="0"/>
        <pt x="210" y="755" on="0"/>
        <pt x="210" y="746" on="1"/>
      </contour>
    </TTGlyph>
    <TTGlyph name="K.salt" xMin="36" yMin="-47" xMax="762" yMax="821">
      <contour>
        <pt x="211" y="421" on="1"/>
        <pt x="232" y="442" on="0"/>
        <pt x="292" y="502" on="0"/>
        <pt x="356" y="567" on="0"/>
        <pt x="421" y="632" on="0"/>
        <pt x="471" y="688" on="0"/>
        <pt x="503" y="727" on="0"/>
        <pt x="503" y="734" on="1"/>
        <pt x="503" y="743" on="0"/>
        <pt x="480" y="746" on="0"/>
        <pt x="472" y="746" on="1"/>
        <pt x="456" y="746" on="0"/>
        <pt x="438" y="759" on="0"/>
        <pt x="438" y="770" on="1"/>
        <pt x="438" y="775" on="0"/>
        <pt x="452" y="795" on="0"/>
        <pt x="472" y="795" on="1"/>
        <pt x="739" y="795" on="1"/>
        <pt x="748" y="795" on="0"/>
        <pt x="762" y="779" on="0"/>
        <pt x="762" y="772" on="1"/>
        <pt x="762" y="767" on="0"/>
        <pt x="753" y="751" on="0"/>
        <pt x="742" y="750" on="1"/>
        <pt x="692" y="748" on="0"/>
        <pt x="615" y="740" on="0"/>
        <pt x="603" y="729" on="1"/>
        <pt x="547" y="676" on="0"/>
        <pt x="405" y="534" on="0"/>
        <pt x="309" y="436" on="1"/>
        <pt x="369" y="435" on="0"/>
        <pt x="455" y="411" on="0"/>
        <pt x="514" y="374" on="0"/>
        <pt x="551" y="327" on="0"/>
        <pt x="572" y="280" on="0"/>
        <pt x="580" y="236" on="0"/>
        <pt x="582" y="220" on="1"/>
        <pt x="585" y="193" on="0"/>
        <pt x="587" y="122" on="0"/>
        <pt x="596" y="57" on="0"/>
        <pt x="615" y="13" on="0"/>
        <pt x="635" y="13" on="1"/>
        <pt x="653" y="13" on="0"/>
        <pt x="663" y="34" on="0"/>
        <pt x="664" y="54" on="1"/>
        <pt x="664" y="64" on="0"/>
        <pt x="678" y="88" on="0"/>
        <pt x="698" y="88" on="1"/>
        <pt x="708" y="88" on="0"/>
        <pt x="721" y="79" on="0"/>
        <pt x="727" y="67" on="0"/>
        <pt x="729" y="54" on="0"/>
        <pt x="729" y="50" on="1"/>
        <pt x="729" y="20" on="0"/>
        <pt x="714" y="-17" on="0"/>
        <pt x="690" y="-39" on="0"/>
        <pt x="661" y="-47" on="0"/>
        <pt x="647" y="-47" on="1"/>
        <pt x="610" y="-47" on="0"/>
        <pt x="562" y="-22" on="0"/>
        <pt x="534" y="20" on="0"/>
        <pt x="522" y="75" on="0"/>
        <pt x="517" y="135" on="0"/>
        <pt x="515" y="194" on="0"/>
        <pt x="512" y="220" on="1"/>
        <pt x="509" y="248" on="0"/>
        <pt x="484" y="304" on="0"/>
        <pt x="428" y="349" on="0"/>
        <pt x="332" y="379" on="0"/>
        <pt x="257" y="382" on="1"/>
        <pt x="211" y="335" on="1"/>
        <pt x="211" y="50" on="1"/>
        <pt x="302" y="50" on="1"/>
        <pt x="313" y="50" on="0"/>
        <pt x="338" y="41" on="0"/>
        <pt x="338" y="21" on="1"/>
        <pt x="338" y="0" on="0"/>
        <pt x="300" y="0" on="1"/>
        <pt x="292" y="0" on="0"/>
        <pt x="268" y="1" on="0"/>
        <pt x="239" y="1" on="0"/>
        <pt x="210" y="2" on="0"/>
        <pt x="197" y="2" on="1"/>
        <pt x="171" y="2" on="0"/>
        <pt x="115" y="0" on="0"/>
        <pt x="89" y="0" on="1"/>
        <pt x="70" y="0" on="0"/>
        <pt x="36" y="9" on="0"/>
        <pt x="36" y="23" on="1"/>
        <pt x="36" y="37" on="0"/>
        <pt x="52" y="48" on="0"/>
        <pt x="74" y="48" on="1"/>
        <pt x="90" y="48" on="0"/>
        <pt x="112" y="50" on="0"/>
        <pt x="127" y="59" on="0"/>
        <pt x="135" y="76" on="0"/>
        <pt x="135" y="92" on="1"/>
        <pt x="136" y="132" on="0"/>
        <pt x="137" y="233" on="0"/>
        <pt x="139" y="326" on="0"/>
        <pt x="140" y="395" on="0"/>
        <pt x="140" y="404" on="1"/>
        <pt x="140" y="413" on="0"/>
        <pt x="139" y="487" on="0"/>
        <pt x="138" y="577" on="0"/>
        <pt x="137" y="660" on="0"/>
        <pt x="137" y="678" on="1"/>
        <pt x="137" y="712" on="0"/>
        <pt x="133" y="750" on="0"/>
        <pt x="122" y="768" on="0"/>
        <pt x="103" y="771" on="0"/>
        <pt x="87" y="771" on="1"/>
        <pt x="68" y="771" on="0"/>
        <pt x="39" y="779" on="0"/>
        <pt x="39" y="796" on="1"/>
        <pt x="39" y="812" on="0"/>
        <pt x="67" y="821" on="0"/>
        <pt x="76" y="821" on="1"/>
        <pt x="272" y="821" on="1"/>
        <pt x="304" y="821" on="0"/>
        <pt x="323" y="804" on="0"/>
        <pt x="323" y="796" on="1"/>
        <pt x="323" y="781" on="0"/>
        <pt x="298" y="771" on="0"/>
        <pt x="286" y="771" on="1"/>
        <pt x="281" y="771" on="0"/>
        <pt x="257" y="770" on="0"/>
        <pt x="231" y="766" on="0"/>
        <pt x="211" y="755" on="0"/>
        <pt x="211" y="746" on="1"/>
      </contour>
    </TTGlyph>
    <TTGlyph name="Kcommaaccent" xMin="38" yMin="-221" xMax="759" yMax="821">
      <component glyphName=".ttfautohint" x="38" y="0" flags="0x0"/>
      <component glyphName="K" x="0" y="0" flags="0x204"/>
      <component glyphName="comma" x="280" y="-130" flags="0x4"/>
    </TTGlyph>
    <TTGlyph name="L" xMin="32" yMin="0" xMax="543" yMax="821">
      <contour>
        <pt x="67" y="48" on="1"/>
        <pt x="78" y="48" on="0"/>
        <pt x="103" y="49" on="0"/>
        <pt x="125" y="55" on="0"/>
        <pt x="139" y="67" on="0"/>
        <pt x="139" y="78" on="1"/>
        <pt x="139" y="90" on="0"/>
        <pt x="140" y="165" on="0"/>
        <pt x="140" y="263" on="0"/>
        <pt x="141" y="371" on="0"/>
        <pt x="141" y="416" on="1"/>
        <pt x="141" y="479" on="0"/>
        <pt x="139" y="573" on="0"/>
        <pt x="137" y="646" on="0"/>
        <pt x="135" y="705" on="0"/>
        <pt x="135" y="734" on="1"/>
        <pt x="135" y="747" on="0"/>
        <pt x="121" y="762" on="0"/>
        <pt x="101" y="769" on="0"/>
        <pt x="80" y="771" on="0"/>
        <pt x="73" y="771" on="1"/>
        <pt x="62" y="771" on="0"/>
        <pt x="36" y="779" on="0"/>
        <pt x="36" y="796" on="1"/>
        <pt x="36" y="813" on="0"/>
        <pt x="64" y="821" on="0"/>
        <pt x="73" y="821" on="1"/>
        <pt x="275" y="821" on="1"/>
        <pt x="307" y="821" on="0"/>
        <pt x="326" y="810" on="0"/>
        <pt x="326" y="796" on="1"/>
        <pt x="326" y="780" on="0"/>
        <pt x="301" y="771" on="0"/>
        <pt x="289" y="771" on="1"/>
        <pt x="284" y="771" on="0"/>
        <pt x="259" y="770" on="0"/>
        <pt x="233" y="766" on="0"/>
        <pt x="212" y="755" on="0"/>
        <pt x="212" y="746" on="1"/>
        <pt x="212" y="66" on="1"/>
        <pt x="423" y="66" on="1"/>
        <pt x="438" y="66" on="0"/>
        <pt x="460" y="80" on="0"/>
        <pt x="463" y="97" on="1"/>
        <pt x="464" y="102" on="0"/>
        <pt x="468" y="148" on="0"/>
        <pt x="472" y="202" on="0"/>
        <pt x="476" y="251" on="0"/>
        <pt x="476" y="259" on="1"/>
        <pt x="476" y="282" on="0"/>
        <pt x="487" y="309" on="0"/>
        <pt x="509" y="309" on="1"/>
        <pt x="523" y="309" on="0"/>
        <pt x="543" y="298" on="0"/>
        <pt x="543" y="284" on="1"/>
        <pt x="543" y="266" on="0"/>
        <pt x="539" y="201" on="0"/>
        <pt x="534" y="128" on="0"/>
        <pt x="529" y="55" on="0"/>
        <pt x="527" y="29" on="1"/>
        <pt x="525" y="12" on="0"/>
        <pt x="509" y="0" on="0"/>
        <pt x="494" y="0" on="1"/>
        <pt x="56" y="0" on="1"/>
        <pt x="39" y="0" on="0"/>
        <pt x="32" y="19" on="0"/>
        <pt x="32" y="24" on="1"/>
        <pt x="32" y="39" on="0"/>
        <pt x="50" y="48" on="0"/>
      </contour>
    </TTGlyph>
    <TTGlyph name="Lacute" xMin="32" yMin="0" xMax="543" yMax="972">
      <contour>
        <pt x="248" y="941" on="1"/>
        <pt x="248" y="929" on="0"/>
        <pt x="220" y="899" on="0"/>
        <pt x="183" y="872" on="0"/>
        <pt x="144" y="854" on="0"/>
        <pt x="134" y="854" on="1"/>
        <pt x="123" y="854" on="0"/>
        <pt x="110" y="867" on="0"/>
        <pt x="110" y="877" on="1"/>
        <pt x="110" y="887" on="0"/>
        <pt x="135" y="919" on="0"/>
        <pt x="169" y="950" on="0"/>
        <pt x="205" y="972" on="0"/>
        <pt x="216" y="972" on="1"/>
        <pt x="231" y="972" on="0"/>
        <pt x="248" y="955" on="0"/>
      </contour>
      <contour>
        <pt x="67" y="48" on="1"/>
        <pt x="78" y="48" on="0"/>
        <pt x="103" y="49" on="0"/>
        <pt x="125" y="55" on="0"/>
        <pt x="139" y="67" on="0"/>
        <pt x="139" y="78" on="1"/>
        <pt x="139" y="90" on="0"/>
        <pt x="140" y="165" on="0"/>
        <pt x="140" y="263" on="0"/>
        <pt x="141" y="371" on="0"/>
        <pt x="141" y="416" on="1"/>
        <pt x="141" y="479" on="0"/>
        <pt x="139" y="573" on="0"/>
        <pt x="137" y="646" on="0"/>
        <pt x="135" y="705" on="0"/>
        <pt x="135" y="734" on="1"/>
        <pt x="135" y="747" on="0"/>
        <pt x="121" y="762" on="0"/>
        <pt x="101" y="769" on="0"/>
        <pt x="80" y="771" on="0"/>
        <pt x="73" y="771" on="1"/>
        <pt x="62" y="771" on="0"/>
        <pt x="36" y="779" on="0"/>
        <pt x="36" y="796" on="1"/>
        <pt x="36" y="813" on="0"/>
        <pt x="64" y="821" on="0"/>
        <pt x="73" y="821" on="1"/>
        <pt x="275" y="821" on="1"/>
        <pt x="307" y="821" on="0"/>
        <pt x="326" y="810" on="0"/>
        <pt x="326" y="796" on="1"/>
        <pt x="326" y="780" on="0"/>
        <pt x="301" y="771" on="0"/>
        <pt x="289" y="771" on="1"/>
        <pt x="284" y="771" on="0"/>
        <pt x="259" y="770" on="0"/>
        <pt x="233" y="766" on="0"/>
        <pt x="212" y="755" on="0"/>
        <pt x="212" y="746" on="1"/>
        <pt x="212" y="66" on="1"/>
        <pt x="423" y="66" on="1"/>
        <pt x="438" y="66" on="0"/>
        <pt x="460" y="80" on="0"/>
        <pt x="463" y="97" on="1"/>
        <pt x="464" y="102" on="0"/>
        <pt x="468" y="148" on="0"/>
        <pt x="472" y="202" on="0"/>
        <pt x="476" y="251" on="0"/>
        <pt x="476" y="259" on="1"/>
        <pt x="476" y="282" on="0"/>
        <pt x="487" y="309" on="0"/>
        <pt x="509" y="309" on="1"/>
        <pt x="523" y="309" on="0"/>
        <pt x="543" y="298" on="0"/>
        <pt x="543" y="284" on="1"/>
        <pt x="543" y="266" on="0"/>
        <pt x="539" y="201" on="0"/>
        <pt x="534" y="128" on="0"/>
        <pt x="529" y="55" on="0"/>
        <pt x="527" y="29" on="1"/>
        <pt x="525" y="12" on="0"/>
        <pt x="509" y="0" on="0"/>
        <pt x="494" y="0" on="1"/>
        <pt x="56" y="0" on="1"/>
        <pt x="39" y="0" on="0"/>
        <pt x="32" y="19" on="0"/>
        <pt x="32" y="24" on="1"/>
        <pt x="32" y="39" on="0"/>
        <pt x="50" y="48" on="0"/>
      </contour>
    </TTGlyph>
    <TTGlyph name="Lcaron" xMin="32" yMin="0" xMax="543" yMax="972">
      <contour>
        <pt x="304" y="972" on="1"/>
        <pt x="310" y="972" on="0"/>
        <pt x="315" y="962" on="0"/>
        <pt x="315" y="955" on="1"/>
        <pt x="315" y="941" on="0"/>
        <pt x="281" y="904" on="0"/>
        <pt x="236" y="871" on="0"/>
        <pt x="193" y="847" on="0"/>
        <pt x="184" y="847" on="1"/>
        <pt x="176" y="847" on="0"/>
        <pt x="134" y="870" on="0"/>
        <pt x="89" y="904" on="0"/>
        <pt x="54" y="943" on="0"/>
        <pt x="54" y="959" on="1"/>
        <pt x="54" y="972" on="0"/>
        <pt x="65" y="972" on="1"/>
        <pt x="70" y="972" on="0"/>
        <pt x="96" y="964" on="0"/>
        <pt x="129" y="950" on="0"/>
        <pt x="167" y="931" on="0"/>
        <pt x="184" y="921" on="1"/>
        <pt x="201" y="931" on="0"/>
        <pt x="239" y="950" on="0"/>
        <pt x="273" y="964" on="0"/>
        <pt x="299" y="972" on="0"/>
      </contour>
      <contour>
        <pt x="67" y="48" on="1"/>
        <pt x="78" y="48" on="0"/>
        <pt x="103" y="49" on="0"/>
        <pt x="125" y="55" on="0"/>
        <pt x="139" y="67" on="0"/>
        <pt x="139" y="78" on="1"/>
        <pt x="139" y="90" on="0"/>
        <pt x="140" y="165" on="0"/>
        <pt x="140" y="263" on="0"/>
        <pt x="141" y="371" on="0"/>
        <pt x="141" y="416" on="1"/>
        <pt x="141" y="479" on="0"/>
        <pt x="139" y="573" on="0"/>
        <pt x="137" y="646" on="0"/>
        <pt x="135" y="705" on="0"/>
        <pt x="135" y="734" on="1"/>
        <pt x="135" y="747" on="0"/>
        <pt x="121" y="762" on="0"/>
        <pt x="101" y="769" on="0"/>
        <pt x="80" y="771" on="0"/>
        <pt x="73" y="771" on="1"/>
        <pt x="62" y="771" on="0"/>
        <pt x="36" y="779" on="0"/>
        <pt x="36" y="796" on="1"/>
        <pt x="36" y="813" on="0"/>
        <pt x="64" y="821" on="0"/>
        <pt x="73" y="821" on="1"/>
        <pt x="275" y="821" on="1"/>
        <pt x="307" y="821" on="0"/>
        <pt x="326" y="810" on="0"/>
        <pt x="326" y="796" on="1"/>
        <pt x="326" y="780" on="0"/>
        <pt x="301" y="771" on="0"/>
        <pt x="289" y="771" on="1"/>
        <pt x="284" y="771" on="0"/>
        <pt x="259" y="770" on="0"/>
        <pt x="233" y="766" on="0"/>
        <pt x="212" y="755" on="0"/>
        <pt x="212" y="746" on="1"/>
        <pt x="212" y="66" on="1"/>
        <pt x="423" y="66" on="1"/>
        <pt x="438" y="66" on="0"/>
        <pt x="460" y="80" on="0"/>
        <pt x="463" y="97" on="1"/>
        <pt x="464" y="102" on="0"/>
        <pt x="468" y="148" on="0"/>
        <pt x="472" y="202" on="0"/>
        <pt x="476" y="251" on="0"/>
        <pt x="476" y="259" on="1"/>
        <pt x="476" y="282" on="0"/>
        <pt x="487" y="309" on="0"/>
        <pt x="509" y="309" on="1"/>
        <pt x="523" y="309" on="0"/>
        <pt x="543" y="298" on="0"/>
        <pt x="543" y="284" on="1"/>
        <pt x="543" y="266" on="0"/>
        <pt x="539" y="201" on="0"/>
        <pt x="534" y="128" on="0"/>
        <pt x="529" y="55" on="0"/>
        <pt x="527" y="29" on="1"/>
        <pt x="525" y="12" on="0"/>
        <pt x="509" y="0" on="0"/>
        <pt x="494" y="0" on="1"/>
        <pt x="56" y="0" on="1"/>
        <pt x="39" y="0" on="0"/>
        <pt x="32" y="19" on="0"/>
        <pt x="32" y="24" on="1"/>
        <pt x="32" y="39" on="0"/>
        <pt x="50" y="48" on="0"/>
      </contour>
    </TTGlyph>
    <TTGlyph name="Lcommaaccent" xMin="32" yMin="-232" xMax="543" yMax="821">
      <component glyphName=".ttfautohint" x="32" y="0" flags="0x0"/>
      <component glyphName="L" x="0" y="0" flags="0x204"/>
      <component glyphName="comma" x="205" y="-141" flags="0x4"/>
    </TTGlyph>
    <TTGlyph name="Ldot" xMin="32" yMin="0" xMax="543" yMax="821">
      <component glyphName=".ttfautohint" x="32" y="0" flags="0x0"/>
      <component glyphName="L" x="0" y="0" flags="0x4"/>
      <component glyphName="dotaccent" x="285" y="-219" flags="0x4"/>
    </TTGlyph>
    <TTGlyph name="Lslash" xMin="34" yMin="0" xMax="545" yMax="821">
      <contour>
        <pt x="358" y="442" on="1"/>
        <pt x="367" y="442" on="0"/>
        <pt x="383" y="423" on="0"/>
        <pt x="383" y="412" on="1"/>
        <pt x="383" y="404" on="0"/>
        <pt x="368" y="377" on="0"/>
        <pt x="346" y="377" on="1"/>
        <pt x="318" y="377" on="0"/>
        <pt x="243" y="377" on="0"/>
        <pt x="164" y="376" on="0"/>
        <pt x="92" y="376" on="0"/>
        <pt x="67" y="376" on="1"/>
        <pt x="54" y="376" on="0"/>
        <pt x="35" y="399" on="0"/>
        <pt x="35" y="409" on="1"/>
        <pt x="35" y="419" on="0"/>
        <pt x="50" y="441" on="0"/>
        <pt x="67" y="441" on="1"/>
        <pt x="87" y="441" on="0"/>
        <pt x="162" y="439" on="0"/>
        <pt x="198" y="439" on="1"/>
        <pt x="227" y="439" on="0"/>
        <pt x="271" y="440" on="0"/>
        <pt x="309" y="441" on="0"/>
        <pt x="341" y="442" on="0"/>
      </contour>
      <contour>
        <pt x="69" y="48" on="1"/>
        <pt x="80" y="48" on="0"/>
        <pt x="105" y="49" on="0"/>
        <pt x="127" y="55" on="0"/>
        <pt x="141" y="67" on="0"/>
        <pt x="141" y="78" on="1"/>
        <pt x="141" y="90" on="0"/>
        <pt x="142" y="165" on="0"/>
        <pt x="142" y="263" on="0"/>
        <pt x="143" y="371" on="0"/>
        <pt x="143" y="416" on="1"/>
        <pt x="143" y="479" on="0"/>
        <pt x="141" y="573" on="0"/>
        <pt x="139" y="646" on="0"/>
        <pt x="137" y="705" on="0"/>
        <pt x="137" y="734" on="1"/>
        <pt x="137" y="747" on="0"/>
        <pt x="123" y="762" on="0"/>
        <pt x="103" y="769" on="0"/>
        <pt x="82" y="771" on="0"/>
        <pt x="75" y="771" on="1"/>
        <pt x="64" y="771" on="0"/>
        <pt x="38" y="779" on="0"/>
        <pt x="38" y="796" on="1"/>
        <pt x="38" y="813" on="0"/>
        <pt x="66" y="821" on="0"/>
        <pt x="75" y="821" on="1"/>
        <pt x="277" y="821" on="1"/>
        <pt x="309" y="821" on="0"/>
        <pt x="328" y="810" on="0"/>
        <pt x="328" y="796" on="1"/>
        <pt x="328" y="780" on="0"/>
        <pt x="303" y="771" on="0"/>
        <pt x="291" y="771" on="1"/>
        <pt x="286" y="771" on="0"/>
        <pt x="261" y="770" on="0"/>
        <pt x="235" y="766" on="0"/>
        <pt x="214" y="755" on="0"/>
        <pt x="214" y="746" on="1"/>
        <pt x="214" y="66" on="1"/>
        <pt x="425" y="66" on="1"/>
        <pt x="440" y="66" on="0"/>
        <pt x="462" y="80" on="0"/>
        <pt x="465" y="97" on="1"/>
        <pt x="466" y="102" on="0"/>
        <pt x="470" y="148" on="0"/>
        <pt x="474" y="202" on="0"/>
        <pt x="478" y="251" on="0"/>
        <pt x="478" y="259" on="1"/>
        <pt x="478" y="282" on="0"/>
        <pt x="489" y="309" on="0"/>
        <pt x="511" y="309" on="1"/>
        <pt x="525" y="309" on="0"/>
        <pt x="545" y="298" on="0"/>
        <pt x="545" y="284" on="1"/>
        <pt x="545" y="266" on="0"/>
        <pt x="541" y="201" on="0"/>
        <pt x="536" y="128" on="0"/>
        <pt x="531" y="55" on="0"/>
        <pt x="529" y="29" on="1"/>
        <pt x="527" y="12" on="0"/>
        <pt x="511" y="0" on="0"/>
        <pt x="496" y="0" on="1"/>
        <pt x="58" y="0" on="1"/>
        <pt x="41" y="0" on="0"/>
        <pt x="34" y="19" on="0"/>
        <pt x="34" y="24" on="1"/>
        <pt x="34" y="39" on="0"/>
        <pt x="52" y="48" on="0"/>
      </contour>
    </TTGlyph>
</ttFont>
